/* XPM */
static char *xpm_[] = {
/* columns rows colors chars-per-pixel */
"64 64 18 1 ",
"  c black",
". c gray15",
"X c #10264B",
"o c #14294E",
"O c #2C4060",
"+ c #304363",
"@ c gray26",
"# c #585858",
"$ c gray42",
"% c #8D8D8D",
"& c gray61",
"* c #AAAAAA",
"= c gray72",
"- c #C5C5C5",
"; c #DDDDDD",
": c #E9E9E9",
"> c #F4F4F4",
", c white",
/* pixels */
"XXXXXXXXXXXXXXXXXXXXXXXXXXXXXXXXXXXXXXXXXXXXXXXXXXXXXXXXXXXXXXXX",
"XXXXXXXXXXXXXXXXXXXXXXXXXXXXXXXXXXXXXXXXXXXXXXXXXXXXXXXXXXXXXXXX",
"XXXXXXXXXXXXXXXXXXXXXXXXXXXXXXXXXXXXXXXXXXXXXXXXXXXXXXXXXXXXXXXX",
"XXXXXXXXXXXXXXXXXXXXXXXXXXXXXXXXXXXXXXXXXXXXXXXXXXXXXXXXXXXXXXXX",
"XXXXXXXXXXXXXXXXXXXXXXXXXXXXXXXXXXXXXXXXXXXXXXXXXXXXXXXXXXXXXXXX",
"XXXXXXXXXXXXXXXXXXXXXXXXXXXXXXXXXXXXXXXXXXXXXXXXXXXXXXXXXXXXXXXX",
"XXXXXXo++++++++++++++++++++++++++++++++++++++++++++++++++oXXXXXX",
"XXXXXXO,,,,,,,,,,,,,,,,,,,,,,,,,,,,,,,,,,,,,,,,,,,,,,,,,,OXXXXXX",
"XXXXXXO,,,,,,,,,,,,,,,,,,,,,,,,,,,,,,,,,,,,,,,,,,,,,,,,,,OXXXXXX",
"XXXXXXO,,,,,,,,,,,,,,,,,,,,,,,,,,,,,,,,,,,,,,,,,,,,,,,,,,OXXXXXX",
"XXXXXXO,,,,,,,,,,,,,,,,,,,,,,,,,,,,,,,,,,,,,,,,,,,,,,,,,,OXXXXXX",
"XXXXXXO,,,,,,,,,,,,,,,,,,,,,,,,,,,,,,,,,,,,,,,,,,,,,,,,,,OXXXXXX",
"XXXXXXO,,,,,,,,,,,,,,,,,,,,,,,,,,,,,,,,,,,,,,,,,,,,,,,,,,OXXXXXX",
"XXXXXXO,,,,,,,,,,,,,,,,,,,,,,,,,,,,,,,,,,,,,,,,,,,,,,,,,,OXXXXXX",
"XXXXXXO,,,,,,,,,,,,,,,,,,,,,,,,-$@,,,,,,,,,,,,,,,,,,,,,,,OXXXXXX",
"XXXXXXO,,,,,,,,,,,,,,,,,,,,,,=@  @,,,,,,,,,,,,,,,,,,,,,,,OXXXXXX",
"XXXXXXO,,,,,,,,,,,,,,,,,,,,*.    @,,,,,,,,,,,,,,,,,,,,,,,OXXXXXX",
"XXXXXXO,,,,,,,,,,,,,,,,,>&       @,,,,,,,,,,,,,,,,,,,,,,,OXXXXXX",
"XXXXXXO,,,,,,,,,,,,,,,,,*%=>%    @,,,,,,,,,,,,,,,,,,,,,,,OXXXXXX",
"XXXXXXO,,,,,,,,,,,,,,,,,,,,,,#   @,,,,,,,,,,,,,,,,,,,,,,,OXXXXXX",
"XXXXXXO,,,,,,,,,,,,,,,,,,,,,,%   @,,,,,,,,,,,,,,,,,,,,,,,OXXXXXX",
"XXXXXXO,,,,,,,,,,,,,,,,,,,,,,*   @,,,,,,,,,,,,,,,,,,,,,,,OXXXXXX",
"XXXXXXO,,,,,,,,,,,,,,,,,,,,,,*   @,,,,,,,,,,,,,,,,,,,,,,,OXXXXXX",
"XXXXXXO,,,,,,,,,,,,,,,,,,,,,,*   @,,,,,,,,,,,,,,,,,,,,,,,OXXXXXX",
"XXXXXXO,,,,,,,,,,,,,,,,,,,,,,*   @,,,,,,,,,,,,,,,,,,,,,,,OXXXXXX",
"XXXXXXO,,,,,,,,,,,,,,,,,,,,,,*   @,,,,,,,,,,,,,,,,,,,,,,,OXXXXXX",
"XXXXXXO,,,,,,,,,,,,,,,,,,,,,,*   @,,,,,,,,,,,,,,,,,,,,,,,OXXXXXX",
"XXXXXXO,,,,,,,,,,,,,,,,,,,,,,*   @,,,,,,,,,,,,,,,,,,,,,,,OXXXXXX",
"XXXXXXO,,,,,,,,,,,,,,,,,,,,,,*   @,,,,,,,,,,,,,,,,,,,,,,,OXXXXXX",
"XXXXXXO,,,,,,,,,,,,,,,,,,,,,,*   @,,,,,,,,,,,,,,,,,,,,,,,OXXXXXX",
"XXXXXXO,,,,,,,,,,,,,,,,,,,,,,*   @,,,,,,,,,,,,,,,,,,,,,,,OXXXXXX",
"XXXXXXO,,,,,,,,,,,,,,,,,,,,,,*   @,,,,,,,,,,,,,,,,,,,,,,,OXXXXXX",
"XXXXXXO,,,,,,,,,,,,,,,,,,,,,,*   @,,,,,,,,,,,,,,,,,,,,,,,OXXXXXX",
"XXXXXXO,,,,,,,,,,,,,,,,,,,,,,*   @,,,,,,,,,,,,,,,,,,,,,,,OXXXXXX",
"XXXXXXO,,,,,,,,,,,,,,,,,,,,,,*   @,,,,,,,,,,,,,,,,,,,,,,,OXXXXXX",
"XXXXXXO,,,,,,,,,,,,,,,,,,,,,,*   @,,,,,,,,,,,,,,,,,,,,,,,OXXXXXX",
"XXXXXXO,,,,,,,,,,,,,,,,,,,,,,*   @,,,,,,,,,,,,,,,,,,,,,,,OXXXXXX",
"XXXXXXO,,,,,,,,,,,,,,,,,,,,,,*   @,,,,,,,,,,,,,,,,,,,,,,,OXXXXXX",
"XXXXXXO,,,,,,,,,,,,,,,,,,,,,,*   @,,,,,,,,,,,,,,,,,,,,,,,OXXXXXX",
"XXXXXXO,,,,,,,,,,,,,,,,,,,,,,*   @,,,,,,,,,,,,,,,,,,,,,,,OXXXXXX",
"XXXXXXO,,,,,,,,,,,,,,,,,,,,,,*   @,,,,,,,,,,,,,,,,,,,,,,,OXXXXXX",
"XXXXXXO,,,,,,,,,,,,,,,,,,,,,,*   @,,,,,,,,,,,,,,,,,,,,,,,OXXXXXX",
"XXXXXXO,,,,,,,,,,,,,,,,,,,,,,*   @,,,,,,,,,,,,,,,,,,,,,,,OXXXXXX",
"XXXXXXO,,,,,,,,,,,,,,,,,,,,,,*   @,,,,,,,,,,,,,,,,,,,,,,,OXXXXXX",
"XXXXXXO,,,,,,,,,,,,,,,,,,,,,,*   @,,,,,,,,,,,,,,,,,,,,,,,OXXXXXX",
"XXXXXXO,,,,,,,,,,,,,,,,,,,,,,*   .,,,,,,,,,,,,,,,,,,,,,,,OXXXXXX",
"XXXXXXO,,,,,,,,,,,,,,,,,,,,,,&    ,,,,,,,,,,,,,,,,,,,,,,,OXXXXXX",
"XXXXXXO,,,,,,,,,,,,,,,,,,,,,,$    ;,,,,,,,,,,,,,,,,,,,,,,OXXXXXX",
"XXXXXXO,,,,,,,,,,,,,,,,,,,,:%     #=,,,,,,,,,,,,,,,,,,,,,OXXXXXX",
"XXXXXXO,,,,,,,,,,,,,,,,,,             =,,,,,,,,,,,,,,,,,,OXXXXXX",
"XXXXXXO,,,,,,,,,,,,,,,,,,,,,,,,,,,,,,,,,,,,,,,,,,,,,,,,,,OXXXXXX",
"XXXXXXO,,,,,,,,,,,,,,,,,,,,,,,,,,,,,,,,,,,,,,,,,,,,,,,,,,OXXXXXX",
"XXXXXXO,,,,,,,,,,,,,,,,,,,,,,,,,,,,,,,,,,,,,,,,,,,,,,,,,,OXXXXXX",
"XXXXXXO,,,,,,,,,,,,,,,,,,,,,,,,,,,,,,,,,,,,,,,,,,,,,,,,,,OXXXXXX",
"XXXXXXO,,,,,,,,,,,,,,,,,,,,,,,,,,,,,,,,,,,,,,,,,,,,,,,,,,OXXXXXX",
"XXXXXXO,,,,,,,,,,,,,,,,,,,,,,,,,,,,,,,,,,,,,,,,,,,,,,,,,,OXXXXXX",
"XXXXXXO,,,,,,,,,,,,,,,,,,,,,,,,,,,,,,,,,,,,,,,,,,,,,,,,,,OXXXXXX",
"XXXXXXo++++++++++++++++++++++++++++++++++++++++++++++++++oXXXXXX",
"XXXXXXXXXXXXXXXXXXXXXXXXXXXXXXXXXXXXXXXXXXXXXXXXXXXXXXXXXXXXXXXX",
"XXXXXXXXXXXXXXXXXXXXXXXXXXXXXXXXXXXXXXXXXXXXXXXXXXXXXXXXXXXXXXXX",
"XXXXXXXXXXXXXXXXXXXXXXXXXXXXXXXXXXXXXXXXXXXXXXXXXXXXXXXXXXXXXXXX",
"XXXXXXXXXXXXXXXXXXXXXXXXXXXXXXXXXXXXXXXXXXXXXXXXXXXXXXXXXXXXXXXX",
"XXXXXXXXXXXXXXXXXXXXXXXXXXXXXXXXXXXXXXXXXXXXXXXXXXXXXXXXXXXXXXXX",
"XXXXXXXXXXXXXXXXXXXXXXXXXXXXXXXXXXXXXXXXXXXXXXXXXXXXXXXXXXXXXXXX"
};
