/* XPM */
static char *c0a8d4719541445fc175a0fdb50afc82C3q3oP6SJxGY0cHQ[] = {
/* columns rows colors chars-per-pixel */
"64 64 4 1 ",
"  c #152E2C",
". c #147069",
"X c #0047D6",
"o c #BEE6E2",
/* pixels */
"Xooooooooooooooooooooooooooooooooooooooooooooooooooooooooooooooo",
"Xooooooooooooooooooooooooooooooooooooooooooooooooooooooooooooooo",
"XooXXXXXXXXXXXXXXXXXXXXXXXXXXXXXXXXXXXXXXXXXXXXXXXXXXXXXXXXXXXoo",
"Xoo..........................................................Xoo",
"Xoo..........................................................Xoo",
"Xoo..........................................................Xoo",
"Xoo..........................................................Xoo",
"Xoo..........................................................Xoo",
"Xoo..........................................................Xoo",
"Xoo..........................................................Xoo",
"Xoo..........................................................Xoo",
"Xoo..........................................................Xoo",
"Xoo..........................................................Xoo",
"Xoo..........................................................Xoo",
"Xoo..........................................................Xoo",
"Xoo..........................................................Xoo",
"Xoo..........................................................Xoo",
"Xoo..........................................................Xoo",
"Xoo..........................................................Xoo",
"Xoo..........................................................Xoo",
"Xoo..........................................................Xoo",
"Xoo..........................................................Xoo",
"Xoo..........................................................Xoo",
"Xoo..........................................................Xoo",
"Xoo..........................................................Xoo",
"Xoo..........................................................Xoo",
"Xoo.....................                  ...................Xoo",
"Xoo.....................                  ...................Xoo",
"Xoo.....................                  ...................Xoo",
"Xoo.....................                  ...................Xoo",
"Xoo.....................                  ...................Xoo",
"Xoo.....................                  ...................Xoo",
"Xoo.....................                  ...................Xoo",
"Xoo.....................                  ...................Xoo",
"Xoo.....................                  ...................Xoo",
"Xoo.....................                  ...................Xoo",
"Xoo.....................                  ...................Xoo",
"Xoo.....................                  ...................Xoo",
"Xoo.....................                  ...................Xoo",
"Xoo.....................                  ...................Xoo",
"Xoo.....................                  ...................Xoo",
"Xoo.....................                  ...................Xoo",
"Xoo..........................................................Xoo",
"Xoo..........................................................Xoo",
"Xoo..........................................................Xoo",
"Xoo..........................................................Xoo",
"Xoo..........................................................Xoo",
"Xoo..........................................................Xoo",
"Xoo..........................................................Xoo",
"Xoo..........................................................Xoo",
"Xoo..........................................................Xoo",
"Xoo..........................................................Xoo",
"Xoo..........................................................Xoo",
"Xoo..........................................................Xoo",
"Xoo..........................................................Xoo",
"Xoo..........................................................Xoo",
"Xoo..........................................................Xoo",
"Xoo..........................................................Xoo",
"Xoo..........................................................Xoo",
"Xoo..........................................................Xoo",
"Xoo..........................................................Xoo",
"Xooooooooooooooooooooooooooooooooooooooooooooooooooooooooooooooo",
"Xooooooooooooooooooooooooooooooooooooooooooooooooooooooooooooooo",
"XXXXXXXXXXXXXXXXXXXXXXXXXXXXXXXXXXXXXXXXXXXXXXXXXXXXXXXXXXXXXXXX"
};
