/* XPM */
static char *_f014205c5da4a74f2e80d50174b2eberZsFtsm0Cdv64CRp[] = {
/* columns rows colors chars-per-pixel */
"64 64 8 1 ",
"  c #00A2E8",
". c #1BACE8",
"X c #5BC3E9",
"o c #07A5E8",
"O c #66C7E9",
"+ c #3BB8E9",
"@ c #26B0E9",
"# c #7BCEEA",
/* pixels */
"                                                                ",
"                                                                ",
"                                                                ",
"                                                                ",
"                                                                ",
"           o..o                                                 ",
"           .XX.                                                 ",
"           @##@                                                 ",
"           @##@                                                 ",
"         o.+OO+.o                                               ",
"         .XO++OX.                                               ",
"       o.+OX..XO+.o                                             ",
"       .XO+.oo.+OX.                                             ",
"   o.@@+OX.    .XO+@@.o                                         ",
"   .X##O+.o    o.+O##X.                                         ",
" o.+O##X.        .X##O+.o                                       ",
" .XO+@@.o        o.@@+OX.                                       ",
" .XX.                .XX.                                       ",
" o..o                o..o                                       ",
"                               o..o                o..o         ",
"                               .XX.                .XX.         ",
"                               @##@                @##@         ",
"                               @##@                @##@         ",
"                             o.+OO+.o            o.+OO+.o       ",
"                             .XO++OX.            .XO++OX.       ",
"                           o.+OX..XO+.o        o.+OX..XO+.o     ",
"                           .XO+.oo.+OX.        .XO+.oo.+OX.     ",
"                       o.@@+OX.    .XO+@@.oo.@@+OX.    .XO+@@.o ",
"                       .X##O+.o    o.+O##X..X##O+.o    o.+O##X. ",
"                     o.+O##X.        .X##O++O##X.        .X##O+@",
"                     .XO+@@.o        o.@@+OO+@@.o        o.@@+O#",
"                     @XX.                .XX.                .X#",
"                     o..o                o..o                o.@",
"                                                                ",
"                                                                ",
"                                                                ",
"                                                                ",
"         o..o                o..o                               ",
"         .XX.                .XX.                               ",
"         @##@                @##@                               ",
"         @##@                @##@                               ",
"       o.+OO+.o            o.+OO+.o                             ",
"       .XO++OX.            .XO++OX.                             ",
"     o.+OX..XO+.o        o.+OX..XO+.o                           ",
"     .XO+.oo.+OX.        .XO+.oo.+OX.                           ",
" o.@@+OX.    .XO+@@.oo.@@+OX.    .XO+@@.o                       ",
" .X##O+.o    o.+O##X..X##O+.o    o.+O##X.                       ",
"@+O##X.        .X##O++O##X.        .X##O+.o                     ",
"#O+@@.o        o.@@+OO+@@.o        o.@@+OX.                     ",
"#X.                .XX.                .XX.                     ",
"@.o                o..o                o..o                     ",
"                                                                ",
"                                                                ",
"                                                                ",
"                                                                ",
"                                                                ",
"                                                                ",
"                                                                ",
"                                                                ",
"                                                                ",
"                                                                ",
"                                                                ",
"                                                                ",
"                                                                "
};
