/* XPM */
static char *xpm_[] = {
/* columns rows colors chars-per-pixel */
"96 96 9 1 ",
"  c black",
". c gray50",
"X c #ED1C24",
"o c #804000",
"O c #800040",
"+ c #00A2E8",
"@ c #99D9EA",
"# c #C3C3C3",
"$ c white",
/* pixels */
"++++++++++++++++++++++++++++++++++++++++++++++++++++++++++++++++++++++++++++++++++++++++++++++++",
"++++++++++++++++++++++++++++++++++++++++++++++++++++++++++++++++++++++++++++++++++++++++++++++++",
"++++++++++++++++++++++++++++++++++++++++++++++++++++++++++++++++++++++++++++++++++++++++++++++++",
"++++++++++++++++++++++++++++++++++++++++++++++++++++++++++++++++++++++++++++++++++++++++++++++++",
"++++++++++++++++++++++++++++++++++++++++++++++++++++++++++++++++++++++++++++++++++++++++++++++++",
"++++++++++++++++++++++++++++++++++++++++++++++++++++++++++++++++++++++++++++++++++++++++++++++++",
"++++++++++++++++++++++++++++++++++++++++++++++++++++++++++++++++++++++++++++++++++++++++++++++++",
"++++++++++++++++++++++++++++++++++++++++++++++++++++++++++++++++++++++++++++++++++++++++++++++++",
"++++++++++++++++++++++++++++++++++++++++++++++++++++++++++++++++++++++++++++++++++++++++++++++++",
"++++++++++++++++++@@@+++++++++++++++++++++++++++++++++++++++++++++++++++++++++++++++++++++++++++",
"++++++++++++++++++@@@+++++++++++++++++++++++++++++++++++++++++++++++++++++++++++++++++++++++++++",
"++++++++++++++++++@@@+++++++++++++++++++++++++++++++++++++++++++++++++++++++++++++++++++++++++++",
"++++++++++++++++++@@@+++++++++++++++++++++++++++++++++++++++++++++++++++++++++++++++++++++++++++",
"++++++++++++++++++@@@+++++++++++++++++++++++++++++++++++++++++++++++++++++++++++++++++++++++++++",
"++++++++++++++++++@@@+++++++++++++++++++++++++++++++++++++++++++++++++++++++++++++++++++++++++++",
"+++++++++++++++@@@+++@@@++++++++++++++++++++++++++++++++++++++++++++++++++++++++++++++++++++++++",
"+++++++++++++++@@@+++@@@++++++++++++++++++++++++++++++++++++++++++++++++++++++++++++++++++++++++",
"+++++++++++++++@@@+++@@@++++++++++++++++++++++++++++++++++++++++++++++++++++++++++++++++++++++++",
"++++++++++++@@@+++++++++@@@+++++++++++++++++++++++++++++++++++++++++++++++++++++++++++++++++++++",
"++++++++++++@@@+++++++++@@@+++++++++++++++++++++++++++++++++++++++++++++++++++++++++++++++++++++",
"++++++++++++@@@+++++++++@@@+++++++++++++++++++++++++++++++++++++++++++++++++++++++++++++++++++++",
"++++++@@@@@@+++++++++++++++@@@@@@+++++++++++++++++++++++++++++++++++++++++++++++++++++++++++++++",
"++++++@@@@@@+++++++++++++++@@@@@@+++++++++++++++++++++++++++++++++++++++++++++++++++++++++++++++",
"++++++@@@@@@+++++++++++++++@@@@@@+++++++++++++++++++++++++++++++++++++++++++++++++++++++++++++++",
"+++@@@+++++++++++++++++++++++++++@@@++++++++++++++++++++++++++++++++++++++++++++++++++++++++++++",
"+++@@@+++++++++++++++++++++++++++@@@+++++++++++++XXX++++++++++++++++++++++++++++++++++++++++++++",
"+++@@@+++++++++++++++++++++++++++@@@+++++++++++++XXX++++++++++++++++++++++++++++++++++++++++++++",
"+++++++++++++++++++++++++++++++++++++++++++++++++XXX++++++++++++++++++++++++++++++++++++++++++++",
"+++++++++++++++++++++++++++++++++++++++++++++++++...   +++++++++++++++++++++++++++++++++++++++++",
"+++++++++++++++++++++++++++++++++++++++++++++++++...   +++++++++++++++++++++++++++++++++++++++++",
"++++++++++++++++++++++++++++++++++++++++++++++++@...   +++++++++++++++++++++++@@@+++++++++++++++",
"++++++++++++++++++++++++++++++++++++++++++++++++@...         +++++++++++++++++@@@+++++++++++++++",
"++++++++++++++++++++++++++++++++++++++++++++++++@...         +++++++++++++++++@@@+++++++++++++++",
"++++++++++++++++++++++++++++++++++++++++++++++++@...         +++++++++++++++++@@@+++++++++++++++",
"++++++++++++++++++++++++++++++++++++++++$$$+++++@...   $$$$$$   ++++++++++++++@@@+++++++++++++++",
"++++++++++++++++++++++++++++++++++++++++$$$+++++@...   $$$$$$   ++++++++++++++@@@+++++++++++++++",
"++++++++++++++++++++++++++++++++++++++++$$$++@@@+...   $$$$$$   +++++++++++@@@+++@@@++++++++++++",
"+++++++++++++++++++++++++++++++++++++$$$$$$$$$$$$...@@+            ++++++++@@@+++@@@++++++++++++",
"+++++++++++++++++++++++++++++++++++++$$$$$$$$$$$$...@@+            ++++++++@@@+++@@@++++++++++++",
"+++++++++++++++++++++++++++++++++++++$$$$$$$$$$$$...++@            +++++@@@+++++++++@@@+++++++++",
"+++++++++++++++++++++++++++++++++++++$$$$$$$$$$$$$$$$$$@@+++++++   +++++@@@+++++++++@@@+++++++++",
"+++++++++++++++++++++++++++++++++++++$$$$$$$$$$$$$$$$$$@@+++++++   +++++@@@+++++++++@@@+++++++++",
"++++++++++++++++++++++++++++++++++++@$$$$$$$$$$$$$$$$$$++@@@@@@+   @@@@@+++++++++++++++@@@@@@+++",
"++++++++++++++++++++++++++++++++++$$$$$$$$$$$$$$$$$$$$$###@@@@@+++@@@@@@+++++++++++++++@@@@@@+++",
"++++++++++++++++++++++++++++++++++$$$$$$$$$$$$$$$$$$$$$###@@@@@+++@@@@@@+++++++++++++++@@@@@@+++",
"+++++++++++++++++++++++++++++++++@$$$$$$$$$$$$$$$$$$$$$###+++++@@@+++++++++++++++++++++++++++@@@",
"+++++++++++++++++++++++++++++++++@@@+$$$$$$$$$$$$$$$###++++++++@@@+++++++++++++++++++++++++++@@@",
"+++++++++++++++++++++++++++++++++@@@+$$$$$$$$$$$$$$$###++++++++@@@+++++++++++++++++++++++++++@@@",
"+++++++++++++++++++++++++++++++++++++$$$$$$$$$$$$$$$###+++++++++++++++++++++++++++++++++++++++++",
"++++++++++++++++oooooo+++++++++++++++++++++$$$$$$$$$###+++++++++++++++++++++oooo++++++++++++++++",
"++++++++++++++++oooooo+++++++++++++++++++++$$$$$$$$$###+++++++++++++++++++++oooo++++++++++++++++",
"++++++++++++++++oooooo+++++++++++++++++++++$$$$$$$$$###+++++++++++++++++++++oooo++++++++++++++++",
"++++++++++++++++++++++oooooo+++++++++++++++++++++###+++++++++++++++++++++ooo++++++++++++++++++++",
"++++++++++++++++++++++oooooo+++++++++++++++++++++###+++++++++++++++++++++ooo++++++++++++++++++++",
"++++++++++++++++++++++oooooo+++++++++++++++++++++###+++++++++++++++++++++ooo++++++++++++++++++++",
"+++++++++++++++++++++++++oooOOOOOOOOOOOOOOO++++++...++++++OOOOOOOOOOOOooo+++++++++++++++++++++++",
"+++++++++++++++++++++++++oooOOOOOOOOOOOOOOO++++++...++++++OOOOOOOOOOOOooo+++++++++++++++++++++++",
"+++++++++++++++@@@+++++++oooOOOOOOOOOOOOOOO++@@@+...++++++OOOOOOOOOOOOooo+++++++++++++++++++++++",
"+++++++++++++++@@@++++++++++oooOOOOOOOOOOOOOOOOOOOOOOOOOOOOOOOOOOOOooo++++++++++++++++++++++++++",
"+++++++++++++++@@@++++++++++oooOOOOOOOOOOOOOOOOOOOOOOOOOOOOOOOOOOOOooo++++++++++++++++++++++++++",
"+++++++++++++++@@@++++++++++oooOOOOOOOOOOOOOOOOOOOOOOOOOOOOOOOOOOOOooo++++++++++++++++++++++++++",
"+++++++++++++++@@@+++++++++++++oooOOOOOOOOOOOOOOOOOOOOOOOOOOOOOOooo+++++++++++++++++++++++++++++",
"+++++++++++++++@@@+++++++++++++oooOOOOOOOOOOOOOOOOOOOOOOOOOOOOOOooo+++++++++++++++++++++++++++++",
"++++++++++++@@@+++@@@++++++++++oooOOOOOOOOOOOOOOOOOOOOOOOOOOOOOOooo+++++++++++++++++++++++++++++",
"++++++++++++@@@+++@@@+++++++++++++ooooooOOOOOOOOOOOOOOOOOOoooooo++++++++++++++++++++++++++++++++",
"++++++++++++@@@+++@@@+++++++++++++ooooooOOOOOOOOOOOOOOOOOOoooooo++++++++++++++++++++++++++++++++",
"+++++++++@@@+++++++++@@@++++++++++ooooooOOOOOOOOOOOOOOOOOOoooooo++++++++++++++++++++++++++++++++",
"+++++++++@@@+++++++++@@@+++++++++++++++@oooooooooooooooooo++++++++++++++++++++++++++++++++++++++",
"+++++++++@@@+++++++++@@@+++++++++++++++@oooooooooooooooooo++++++++++++++++++++++++++++++++++++++",
"+++@@@@@@+++++++++++++++@@@@@@+++@@@@@@+oooooooooooooooooo@@++++++++++++++++++++++++++++++++++++",
"+++@@@@@@+++++++++++++++@@@@@@+++@@@@@@+oooooooooooooooooo@@++++++++++++++++++++++++++++++++++++",
"+++@@@@@@+++++++++++++++@@@@@@+++@@@@@@+++++++++++++++@@@@@@++++++++++++++++++++++++++++++++++++",
"@@@+++++++++++++++++++++++++++@@@+++++++++++++++++++++++++++@@@+++++++++++++++++++++++++++++++++",
"@@@+++++++++++++++++++++++++++@@@+++++++++++++++++++++++++++@@@+++++++++++++++++++++++++++++++++",
"@@@+++++++++++++++++++++++++++@@@+++++++++++++++++++++++++++@@@+++++++++++++++++++++++++++++++++",
"++++++++++++++++++++++++++++++++++++++++++++++++++++++++++++++++++++++++++++++++++++++++++++++++",
"++++++++++++++++++++++++++++++++++++++++++++++++++++++++++++++++++++++++++++++++++++++++++++++++",
"++++++++++++++++++++++++++++++++++++++++++++++++++++++++++++++++++++++++++++++++++++++++++++++++",
"++++++++++++++++++++++++++++++++++++++++++++++++++++++++++++++++++++++++++++++++++++++++++++++++",
"++++++++++++++++++++++++++++++++++++++++++++++++++++++++++++++++++++++++++++++++++++++++++++++++",
"++++++++++++++++++++++++++++++++++++++++++++++++++++++++++++++++++++++++++++++++++++++++++++++++",
"++++++++++++++++++++++++++++++++++++++++++++++++++++++++++++++++++++++++++++++++++++++++++++++++",
"++++++++++++++++++++++++++++++++++++++++++++++++++++++++++++++++++++++++++++++++++++++++++++++++",
"++++++++++++++++++++++++++++++++++++++++++++++++++++++++++++++++++++++++++++++++++++++++++++++++",
"++++++++++++++++++++++++++++++++++++++++++++++++++++++++++++++++++++++++++++++++++++++++++++++++",
"++++++++++++++++++++++++++++++++++++++++++++++++++++++++++++++++++++++++++++++++++++++++++++++++",
"++++++++++++++++++++++++++++++++++++++++++++++++++++++++++++++++++++++++++++++++++++++++++++++++",
"++++++++++++++++++++++++++++++++++++++++++++++++++++++++++++++++++++++++++++++++++++++++++++++++",
"++++++++++++++++++++++++++++++++++++++++++++++++++++++++++++++++++++++++++++++++++++++++++++++++",
"++++++++++++++++++++++++++++++++++++++++++++++++++++++++++++++++++++++++++++++++++++++++++++++++",
"++++++++++++++++++++++++++++++++++++++++++++++++++++++++++++++++++++++++++++++++++++++++++++++++",
"++++++++++++++++++++++++++++++++++++++++++++++++++++++++++++++++++++++++++++++++++++++++++++++++",
"++++++++++++++++++++++++++++++++++++++++++++++++++++++++++++++++++++++++++++++++++++++++++++++++",
"++++++++++++++++++++++++++++++++++++++++++++++++++++++++++++++++++++++++++++++++++++++++++++++++",
"++++++++++++++++++++++++++++++++++++++++++++++++++++++++++++++++++++++++++++++++++++++++++++++++",
"++++++++++++++++++++++++++++++++++++++++++++++++++++++++++++++++++++++++++++++++++++++++++++++++"
};
