/* XPM */
static char *xpm_[] = {
/* columns rows colors chars-per-pixel */
"64 64 9 1 ",
"  c black",
". c gray50",
"X c #880015",
"o c #ED1C24",
"O c #804000",
"+ c #00A2E8",
"@ c #99D9EA",
"# c #C3C3C3",
"$ c white",
/* pixels */
"++++++++++++++++++++++++++++++++++++++++++++++++++++++++++++++++",
"++++++++++++++++++++++++++++++++++++++++++++++++++++++++++++++++",
"++++++++++++++++++++++++++++++++++++++++++++++++++++++++++++++++",
"++++++++++++++++++++++++++++++++++++++++++++++++++++++++++++++++",
"++++++++++++++++++++++++++++++++++++++++++++++++++++++++++++++++",
"++++++++++++++++++++++++++++++++++++++++++++++++++++++++++++++++",
"++++++++++++++++++++++++++++++++++++++++++++++++++++++++++++++++",
"++++++++++++++++++++++++++++++++++++++++++++++++++++++++++++++++",
"++++++++++++@@++++++++++++++++++@@++++++++++++++++++++++++++++++",
"++++++++++++@@++++++++++++++++++@@++++++++++++++++++++++++++++++",
"++++++++++++@@++++++++++++++++++@@++++++++++++++++++++++++++++++",
"++++++++++++@@++++++++++++++++++@@++++++++++++++++++++++++++++++",
"++++++++++@@++@@++++++++++++++oo++@@++++++++++++++++++++++++++++",
"++++++++++@@++@@++++++++++++++oo++@@++++++++++++++++++++++++++++",
"++++++++@@++++++@@++++++++++@@..  ++@@++++++++++++++++++++++++++",
"++++++++@@++++++@@++++++++++@@..  ++@@++++++++++++++++++++++++++",
"++++@@@@++++++++++@@@@++@@@@++..      @@@@++++++++++++++++++++++",
"++++@@@@++++++++++@@@@++@@@@++..      @@@@++++++++++++++++++++++",
"++@@++++++++++++++++++@@$$++++..  $$$$  ++@@++++++++++++++++++++",
"++@@++++++++++++++++++@@$$++++..  $$$$  ++@@++++++++++++++++++++",
"++++++++++++++++++++++$$$$$$$$..++        ++++++++++++++++++++++",
"++++++++++++++++++++++$$$$$$$$..++        ++++++++++++++++++++++",
"++++++++++++++++++++++$$$$$$$$$$$$++++++  ++++++++++++++++++++++",
"++++++++++++++++++++++$$$$$$$$$$$$++++++  ++++++++++++++++++++++",
"++++++++++++++++++++$$$$$$$$$$$$$$##++++++++++++++++++++++++++++",
"++++++++++++++++++++$$$$$$$$$$$$$$##++++++++++++++++++++++++++++",
"++++++++++++++++++++++$$$$$$$$$$##++++++++++++++++++++++++++++++",
"++++++++++++++++++++++$$$$$$$$$$##++++++++++++++++++++++++++++++",
"++++++++++XX++++++++++++++$$$$$$##++++++++++++++XXXX++++++++++++",
"++++++++++XX++++++++++++++$$$$$$##++++++++++++++XXXX++++++++++++",
"++++++++++++XXXX++++++++++++++##++++++++++++XXXX++++@@++++++++++",
"++++++++++++XXXX++++++++++++++##++++++++++++XXXX++++@@++++++++++",
"++++++++++++++XXXXOOOOOOOO++++..++++OOOOOOXXXX++++++@@++++++++++",
"++++++++++++++XXXXOOOOOOOO++++..++++OOOOOOXXXX++++++@@++++++++++",
"++++++++++++++++XXOOOOOOOOOOOOOOOOOOOOOOOOXX++++++@@++@@++++++++",
"++++++++++++++++XXOOOOOOOOOOOOOOOOOOOOOOOOXX++++++@@++@@++++++++",
"++++++++++++++++++XXOOOOOOOOOOOOOOOOOOOOXX++++++@@++++++@@++++++",
"++++++++++++++++++XXOOOOOOOOOOOOOOOOOOOOXX++++++@@++++++@@++++++",
"++++++++++++++++++++XXXXOOOOOOOOOOOOXXXX++++@@@@++++++++++@@@@++",
"++++++++++++++++++++XXXXOOOOOOOOOOOOXXXX++++@@@@++++++++++@@@@++",
"++++++++++@@++++++++++++XXXXXXXXXXXX++++++@@++++++++++++++++++@@",
"++++++++++@@++++++++++++XXXXXXXXXXXX++++++@@++++++++++++++++++@@",
"++++++++++@@++++++++++++++++++++++++++++++++++++++++++++++++++++",
"++++++++++@@++++++++++++++++++++++++++++++++++++++++++++++++++++",
"++++++++@@++@@++++++++++++++++++++++++++++++++++++++++++++++++++",
"++++++++@@++@@++++++++++++++++++++++++++++++++++++++++++++++++++",
"++++++@@++++++@@++++++++++++++++++++++++++++++++++++++++++++++++",
"++++++@@++++++@@++++++++++++++++++++++++++++++++++++++++++++++++",
"++@@@@++++++++++@@@@++++++++++++++++++++++++++++++++++++++++++++",
"++@@@@++++++++++@@@@++++++++++++++++++++++++++++++++++++++++++++",
"@@++++++++++++++++++@@++++++++++++++++++++++++++++++++++++++++++",
"@@++++++++++++++++++@@++++++++++++++++++++++++++++++++++++++++++",
"++++++++++++++++++++++++++++++++++++++++++++++++++++++++++++++++",
"++++++++++++++++++++++++++++++++++++++++++++++++++++++++++++++++",
"++++++++++++++++++++++++++++++++++++++++++++++++++++++++++++++++",
"++++++++++++++++++++++++++++++++++++++++++++++++++++++++++++++++",
"++++++++++++++++++++++++++++++++++++++++++++++++++++++++++++++++",
"++++++++++++++++++++++++++++++++++++++++++++++++++++++++++++++++",
"++++++++++++++++++++++++++++++++++++++++++++++++++++++++++++++++",
"++++++++++++++++++++++++++++++++++++++++++++++++++++++++++++++++",
"++++++++++++++++++++++++++++++++++++++++++++++++++++++++++++++++",
"++++++++++++++++++++++++++++++++++++++++++++++++++++++++++++++++",
"++++++++++++++++++++++++++++++++++++++++++++++++++++++++++++++++",
"++++++++++++++++++++++++++++++++++++++++++++++++++++++++++++++++"
};
