/* XPM */
static char *xpm_[] = {
/* columns rows colors chars-per-pixel */
"64 64 9 1 ",
"  c black",
". c gray50",
"X c #ED1C24",
"o c #804000",
"O c #800040",
"+ c #00A2E8",
"@ c #99D9EA",
"# c #C3C3C3",
"$ c white",
/* pixels */
"++++++++++++++++++++++++++++++++++++++++++++++++++++++++++++++++",
"++++++++++++++++++++++++++++++++++++++++++++++++++++++++++++++++",
"++++++++++++++++++++++++++++++++++++++++++++++++++++++++++++++++",
"++++++++++++++++++++++++++++++++++++++++++++++++++++++++++++++++",
"++++++++++++++++++++++++++++++++++++++++++++++++++++++++++++++++",
"++++++++++++++++++++++++++++++++++++++++++++++++++++++++++++++++",
"++++++++++++++++++++++++++++++++++++++++++++++++++++++++++++++++",
"++++++++++++++++++++++++++++++++++++++++++++++++++++++++++++++++",
"++++++++++++@@++++++++++++++++++@@++++++++++++++++++++++++++++++",
"++++++++++++@@++++++++++++++++++@@++++++++++++++++++++++++++++++",
"++++++++++++@@++++++++++++++++++@@++++++++++++++++++++++++++++++",
"++++++++++++@@++++++++++++++++++@@++++++++++++++++++++++++++++++",
"++++++++++@@++@@++++++++++++++@@++@@++++++++++++++++++++++++++++",
"++++++++++@@++@@++++++++++++++@@++@@++++++++++++++++++++++++++++",
"++++++++@@++++++@@++++++++++@@XX++++@@++++++++++++++++++++++++++",
"++++++++@@++++++@@++++++++++@@XX++++@@++++++++++++++++++++++++++",
"++++@@@@++++++++++@@@@++@@@@++..  ++++@@@@++++++++++++++++++++++",
"++++@@@@++++++++++@@@@++@@@@++..  ++++@@@@++++++++++++++++++++++",
"++@@++++++++++++++++++@@++++++..      ++++@@++++++++++++++++++++",
"++@@++++++++++++++++++@@++++++..      ++++@@++++++++++++++++++++",
"++++++++++++++++++++++++$$++++..  $$$$  ++++++++++++++++++++++++",
"++++++++++++++++++++++++$$++++..  $$$$  ++++++++++++++++++++++++",
"++++++++++++++++++++++$$$$$$$$..++        ++++++++++++++++++++++",
"++++++++++++++++++++++$$$$$$$$..++        ++++++++++++++++++++++",
"++++++++++++++++++++++$$$$$$$$$$$$++++++  ++++++++++++++++++++++",
"++++++++++++++++++++++$$$$$$$$$$$$++++++  ++++++++++++++++++++++",
"++++++++++++++++++++$$$$$$$$$$$$$$##++++++++++++++++++++++++++++",
"++++++++++++++++++++$$$$$$$$$$$$$$##++++++++++++++++++++++++++++",
"++++++++++++++++++++++$$$$$$$$$$##++++++++++++++++++++++++++++++",
"++++++++++++++++++++++$$$$$$$$$$##++++++++++++++++++++++++++++++",
"++++++++oooo++++++++++++++$$$$$$##++++++++++++++oo++@@++++++++++",
"++++++++oooo++++++++++++++$$$$$$##++++++++++++++oo++@@++++++++++",
"++++++++++++oooo++++++++++++++##++++++++++++++oo++++@@++++++++++",
"++++++++++++oooo++++++++++++++##++++++++++++++oo++++@@++++++++++",
"++++++++++++++ooOOOOOOOOOO++++..++++OOOOOOOOoo++++@@++@@++++++++",
"++++++++++++++ooOOOOOOOOOO++++..++++OOOOOOOOoo++++@@++@@++++++++",
"++++++++++++++++ooOOOOOOOOOOOOOOOOOOOOOOOOoo++++@@++++++@@++++++",
"++++++++++++++++ooOOOOOOOOOOOOOOOOOOOOOOOOoo++++@@++++++@@++++++",
"++++++++++++++++++ooOOOOOOOOOOOOOOOOOOOOoo++@@@@++++++++++@@@@++",
"++++++++++++++++++ooOOOOOOOOOOOOOOOOOOOOoo++@@@@++++++++++@@@@++",
"++++++++++@@++++++++ooooOOOOOOOOOOOOoooo++@@++++++++++++++++++@@",
"++++++++++@@++++++++ooooOOOOOOOOOOOOoooo++@@++++++++++++++++++@@",
"++++++++++@@++++++++++++oooooooooooo++++++++++++++++++++++++++++",
"++++++++++@@++++++++++++oooooooooooo++++++++++++++++++++++++++++",
"++++++++@@++@@++++++++++++++++++++++++++++++++++++++++++++++++++",
"++++++++@@++@@++++++++++++++++++++++++++++++++++++++++++++++++++",
"++++++@@++++++@@++++++++++++++++++++++++++++++++++++++++++++++++",
"++++++@@++++++@@++++++++++++++++++++++++++++++++++++++++++++++++",
"++@@@@++++++++++@@@@++++++++++++++++++++++++++++++++++++++++++++",
"++@@@@++++++++++@@@@++++++++++++++++++++++++++++++++++++++++++++",
"@@++++++++++++++++++@@++++++++++++++++++++++++++++++++++++++++++",
"@@++++++++++++++++++@@++++++++++++++++++++++++++++++++++++++++++",
"++++++++++++++++++++++++++++++++++++++++++++++++++++++++++++++++",
"++++++++++++++++++++++++++++++++++++++++++++++++++++++++++++++++",
"++++++++++++++++++++++++++++++++++++++++++++++++++++++++++++++++",
"++++++++++++++++++++++++++++++++++++++++++++++++++++++++++++++++",
"++++++++++++++++++++++++++++++++++++++++++++++++++++++++++++++++",
"++++++++++++++++++++++++++++++++++++++++++++++++++++++++++++++++",
"++++++++++++++++++++++++++++++++++++++++++++++++++++++++++++++++",
"++++++++++++++++++++++++++++++++++++++++++++++++++++++++++++++++",
"++++++++++++++++++++++++++++++++++++++++++++++++++++++++++++++++",
"++++++++++++++++++++++++++++++++++++++++++++++++++++++++++++++++",
"++++++++++++++++++++++++++++++++++++++++++++++++++++++++++++++++",
"++++++++++++++++++++++++++++++++++++++++++++++++++++++++++++++++"
};
