/* XPM */
static char *xpm_[] = {
/* columns rows colors chars-per-pixel */
"96 96 9 1 ",
"  c black",
". c gray50",
"X c #880015",
"o c #ED1C24",
"O c #804000",
"+ c #00A2E8",
"@ c #99D9EA",
"# c #C3C3C3",
"$ c white",
/* pixels */
"++++++++++++++++++++++++++++++++++++++++++++++++++++++++++++++++++++++++++++++++++++++++++++++++",
"++++++++++++++++++++++++++++++++++++++++++++++++++++++++++++++++++++++++++++++++++++++++++++++++",
"++++++++++++++++++++++++++++++++++++++++++++++++++++++++++++++++++++++++++++++++++++++++++++++++",
"++++++++++++++++++++++++++++++++++++++++++++++++++++++++++++++++++++++++++++++++++++++++++++++++",
"++++++++++++++++++++++++++++++++++++++++++++++++++++++++++++++++++++++++++++++++++++++++++++++++",
"++++++++++++++++++++++++++++++++++++++++++++++++++++++++++++++++++++++++++++++++++++++++++++++++",
"++++++++++++++++++++++++++++++++++++++++++++++++++++++++++++++++++++++++++++++++++++++++++++++++",
"++++++++++++++++++++++++++++++++++++++++++++++++++++++++++++++++++++++++++++++++++++++++++++++++",
"++++++++++++++++++++++++++++++++++++++++++++++++++++++++++++++++++++++++++++++++++++++++++++++++",
"++++++++++++++++++@@@+++++++++++++++++++++++++++++++++++++++++++++++++++++++++++++++++++++++++++",
"++++++++++++++++++@@@+++++++++++++++++++++++++++++++++++++++++++++++++++++++++++++++++++++++++++",
"++++++++++++++++++@@@+++++++++++++++++++++++++++++++++++++++++++++++++++++++++++++++++++++++++++",
"++++++++++++++++++@@@+++++++++++++++++++++++++++++++++++++++++++++++++++++++++++++++++++++++++++",
"++++++++++++++++++@@@+++++++++++++++++++++++++++++++++++++++++++++++++++++++++++++++++++++++++++",
"++++++++++++++++++@@@+++++++++++++++++++++++++++++++++++++++++++++++++++++++++++++++++++++++++++",
"+++++++++++++++@@@+++@@@++++++++++++++++++++++++++++++++++++++++++++++++++++++++++++++++++++++++",
"+++++++++++++++@@@+++@@@+++++++++++++++++++++++++ooo++++++++++++++++++++++++++++++++++++++++++++",
"+++++++++++++++@@@+++@@@+++++++++++++++++++++++++ooo++++++++++++++++++++++++++++++++++++++++++++",
"++++++++++++@@@+++++++++@@@++++++++++++++++++++++ooo++++++++++++++++++++++++++++++++++++++++++++",
"++++++++++++@@@+++++++++@@@++++++++++++++++++++++...   +++++++++++++++++++++++++++++++++++++++++",
"++++++++++++@@@+++++++++@@@++++++++++++++++++++++...   +++++++++++++++++++++++++++++++++++++++++",
"++++++@@@@@@+++++++++++++++@@@@@@++++++++++++++++...   +++++++++++++++++++++++++++++++++++++++++",
"++++++@@@@@@+++++++++++++++@@@@@@++++++++++++++++...         +++++++++++++++++++++++++++++++++++",
"++++++@@@@@@+++++++++++++++@@@@@@++++++++++++++++...         +++++++++++++++++++++++++++++++++++",
"+++@@@+++++++++++++++++++++++++++@@@+++++++++++++...         +++++++++++++++++++++++++++++++++++",
"+++@@@+++++++++++++++++++++++++++@@@++++$$$++++++...   $$$$$$   ++++++++++++++++++++++++++++++++",
"+++@@@+++++++++++++++++++++++++++@@@++++$$$++++++...   $$$$$$   ++++++++++++++++++++++++++++++++",
"++++++++++++++++++++++++++++++++++++++++$$$++++++...   $$$$$$   ++++++++++++++++++++++++++++++++",
"+++++++++++++++++++++++++++++++++++++$$$$$$$$$$$$...+++            +++++++++++++++++++++++++++++",
"+++++++++++++++++++++++++++++++++++++$$$$$$$$$$$$...+++            +++++++++++++++++++++++++++++",
"+++++++++++++++++++++++++++++++++++++$$$$$$$$$$$$...+++            +++++++++++@@@+++++++++++++++",
"+++++++++++++++++++++++++++++++++++++$$$$$$$$$$$$$$$$$$+++++++++   +++++++++++@@@+++++++++++++++",
"+++++++++++++++++++++++++++++++++++++$$$$$$$$$$$$$$$$$$+++++++++   +++++++++++@@@+++++++++++++++",
"+++++++++++++++++++++++++++++++++++++$$$$$$$$$$$$$$$$$$+++++++++   +++++++++++@@@+++++++++++++++",
"++++++++++++++++++++++++++++++++++$$$$$$$$$$$$$$$$$$$$$###++++++++++++++++++++@@@+++++++++++++++",
"++++++++++++++++++++++++++++++++++$$$$$$$$$$$$$$$$$$$$$###++++++++++++++++++++@@@+++++++++++++++",
"++++++++++++++++++++++++++++++++++$$$$$$$$$$$$$$$$$$$$$###+++++++++++++++++@@@+++@@@++++++++++++",
"+++++++++++++++++++++++++++++++++++++$$$$$$$$$$$$$$$###++++++++++++++++++++@@@+++@@@++++++++++++",
"+++++++++++++++++++++++++++++++++++++$$$$$$$$$$$$$$$###++++++++++++++++++++@@@+++@@@++++++++++++",
"+++++++++++++++++++++++++++++++++++++$$$$$$$$$$$$$$$###@@+++++++++++++++@@@+++++++++@@@+++++++++",
"++++++++++++++++XXXXXX++++++++++++++++++++@$$$$$$$$$###@@+++++++++++++++@@@+XXX+++++@@@+++++++++",
"++++++++++++++++XXXXXX++++++++++++++++++++@$$$$$$$$$###@@+++++++++++++++@@@+XXX+++++@@@+++++++++",
"++++++++++++++++XXXXXX++++++++++++++@@@@@@+$$$$$$$$$###++@@@@@@+++@@@@++++++XXX++++++++@@@@@@+++",
"++++++++++++++++++++++XXXXXX++++++++@@@@@@+++++++###+++++@@@@@@+++@@@@+++XXX+++++++++++@@@@@@+++",
"++++++++++++++++++++++XXXXXX++++++++@@@@@@+++++++###+++++@@@@@@+++@@@@+++XXX+++++++++++@@@@@@+++",
"++++++++++++++++++++++XXXXXX+++++@@@+++++++++++++###+++++++++++@@@+++++++XXX+++++++++++++++++@@@",
"+++++++++++++++++++++++++XXXOOOOOOOOOOOOOOO++++++...++++++OOOOOOOOOOOOXXX++++++++++++++++++++@@@",
"+++++++++++++++++++++++++XXXOOOOOOOOOOOOOOO++++++...++++++OOOOOOOOOOOOXXX++++++++++++++++++++@@@",
"+++++++++++++++++++++++++XXXOOOOOOOOOOOOOOO++++++...++++++OOOOOOOOOOOOXXX+++++++++++++++++++++++",
"++++++++++++++++++++++++++++XXXOOOOOOOOOOOOOOOOOOOOOOOOOOOOOOOOOOOOXXX++++++++++++++++++++++++++",
"++++++++++++++++++++++++++++XXXOOOOOOOOOOOOOOOOOOOOOOOOOOOOOOOOOOOOXXX++++++++++++++++++++++++++",
"++++++++++++++++++++++++++++XXXOOOOOOOOOOOOOOOOOOOOOOOOOOOOOOOOOOOOXXX++++++++++++++++++++++++++",
"+++++++++++++++++++++++++++++++XXXOOOOOOOOOOOOOOOOOOOOOOOOOOOOOOXXX+++++++++++++++++++++++++++++",
"+++++++++++++++++++++++++++++++XXXOOOOOOOOOOOOOOOOOOOOOOOOOOOOOOXXX+++++++++++++++++++++++++++++",
"+++++++++++++++++++++++++++++++XXXOOOOOOOOOOOOOOOOOOOOOOOOOOOOOOXXX+++++++++++++++++++++++++++++",
"++++++++++++++++++++++++++++++++++XXXXXXOOOOOOOOOOOOOOOOOOXXXXXX++++++++++++++++++++++++++++++++",
"++++++++++++++++++++++++++++++++++XXXXXXOOOOOOOOOOOOOOOOOOXXXXXX++++++++++++++++++++++++++++++++",
"+++++++++++++++@@@++++++++++++++++XXXXXXOOOOOOOOOOOOOOOOOOXXXXXX++++++++++++++++++++++++++++++++",
"+++++++++++++++@@@++++++++++++++++++++++XXXXXXXXXXXXXXXXXX++++++++++++++++++++++++++++++++++++++",
"+++++++++++++++@@@++++++++++++++++++++++XXXXXXXXXXXXXXXXXX++++++++++++++++++++++++++++++++++++++",
"+++++++++++++++@@@++++++++++++++++++++++XXXXXXXXXXXXXXXXXX++++++++++++++++++++++++++++++++++++++",
"+++++++++++++++@@@++++++++++++++++++++++XXXXXXXXXXXXXXXXXX++++++++++++++++++++++++++++++++++++++",
"+++++++++++++++@@@+++++++++++++++++++++++++++@@@++++++++++++++++++++++++++++++++++++++++++++++++",
"++++++++++++@@@+++@@@+++++++++++++++++++++@@@+++@@@+++++++++++++++++++++++++++++++++++++++++++++",
"++++++++++++@@@+++@@@+++++++++++++++++++++@@@+++@@@+++++++++++++++++++++++++++++++++++++++++++++",
"++++++++++++@@@+++@@@+++++++++++++++++++++@@@+++@@@+++++++++++++++++++++++++++++++++++++++++++++",
"+++++++++@@@+++++++++@@@+++++++++++++++@@@+++++++++@@@++++++++++++++++++++++++++++++++++++++++++",
"+++++++++@@@+++++++++@@@+++++++++++++++@@@+++++++++@@@++++++++++++++++++++++++++++++++++++++++++",
"+++++++++@@@+++++++++@@@+++++++++++++++@@@+++++++++@@@++++++++++++++++++++++++++++++++++++++++++",
"+++@@@@@@+++++++++++++++@@@@@@+++@@@@@@+++++++++++++++@@@@@@++++++++++++++++++++++++++++++++++++",
"+++@@@@@@+++++++++++++++@@@@@@+++@@@@@@+++++++++++++++@@@@@@++++++++++++++++++++++++++++++++++++",
"+++@@@@@@+++++++++++++++@@@@@@+++@@@@@@+++++++++++++++@@@@@@++++++++++++++++++++++++++++++++++++",
"@@@+++++++++++++++++++++++++++@@@+++++++++++++++++++++++++++@@@+++++++++++++++++++++++++++++++++",
"@@@+++++++++++++++++++++++++++@@@+++++++++++++++++++++++++++@@@+++++++++++++++++++++++++++++++++",
"@@@+++++++++++++++++++++++++++@@@+++++++++++++++++++++++++++@@@+++++++++++++++++++++++++++++++++",
"++++++++++++++++++++++++++++++++++++++++++++++++++++++++++++++++++++++++++++++++++++++++++++++++",
"++++++++++++++++++++++++++++++++++++++++++++++++++++++++++++++++++++++++++++++++++++++++++++++++",
"++++++++++++++++++++++++++++++++++++++++++++++++++++++++++++++++++++++++++++++++++++++++++++++++",
"++++++++++++++++++++++++++++++++++++++++++++++++++++++++++++++++++++++++++++++++++++++++++++++++",
"++++++++++++++++++++++++++++++++++++++++++++++++++++++++++++++++++++++++++++++++++++++++++++++++",
"++++++++++++++++++++++++++++++++++++++++++++++++++++++++++++++++++++++++++++++++++++++++++++++++",
"++++++++++++++++++++++++++++++++++++++++++++++++++++++++++++++++++++++++++++++++++++++++++++++++",
"++++++++++++++++++++++++++++++++++++++++++++++++++++++++++++++++++++++++++++++++++++++++++++++++",
"++++++++++++++++++++++++++++++++++++++++++++++++++++++++++++++++++++++++++++++++++++++++++++++++",
"++++++++++++++++++++++++++++++++++++++++++++++++++++++++++++++++++++++++++++++++++++++++++++++++",
"++++++++++++++++++++++++++++++++++++++++++++++++++++++++++++++++++++++++++++++++++++++++++++++++",
"++++++++++++++++++++++++++++++++++++++++++++++++++++++++++++++++++++++++++++++++++++++++++++++++",
"++++++++++++++++++++++++++++++++++++++++++++++++++++++++++++++++++++++++++++++++++++++++++++++++",
"++++++++++++++++++++++++++++++++++++++++++++++++++++++++++++++++++++++++++++++++++++++++++++++++",
"++++++++++++++++++++++++++++++++++++++++++++++++++++++++++++++++++++++++++++++++++++++++++++++++",
"++++++++++++++++++++++++++++++++++++++++++++++++++++++++++++++++++++++++++++++++++++++++++++++++",
"++++++++++++++++++++++++++++++++++++++++++++++++++++++++++++++++++++++++++++++++++++++++++++++++",
"++++++++++++++++++++++++++++++++++++++++++++++++++++++++++++++++++++++++++++++++++++++++++++++++",
"++++++++++++++++++++++++++++++++++++++++++++++++++++++++++++++++++++++++++++++++++++++++++++++++",
"++++++++++++++++++++++++++++++++++++++++++++++++++++++++++++++++++++++++++++++++++++++++++++++++",
"++++++++++++++++++++++++++++++++++++++++++++++++++++++++++++++++++++++++++++++++++++++++++++++++"
};
