/* XPM */
static char *xpm_[] = {
/* columns rows colors chars-per-pixel */
"96 96 9 1 ",
"  c gray50",
". c #880015",
"X c #ED1C24",
"o c #804000",
"O c #B97A57",
"+ c #00A2E8",
"@ c #99D9EA",
"# c #C3C3C3",
"$ c white",
/* pixels */
"++++++++++++++++++++++++++++++++++++++++++++++++++++++++++++++++++++++++++++++++++++++++++++++++",
"++++++++++++++++++++++++++++++++++++++++++++++++++++++++++++++++++++++++++++++++++++++++++++++++",
"++++++++++++++++++++++++++++++++++++++++++++++++++++++++++++++++++++++++++++++++++++++++++++++++",
"++++++++++++++++++++++++++++++++++++++++++++++++++++++++++++++++++++++++++++++++++++++++++++++++",
"++++++++++++++++++++++++++++++++++++++++++++++++++++++++++++++++++++++++++++++++++++++++++++++++",
"++++++++++++++++++++++++++++++++++++++++++++++++++++++++++++++++++++++++++++++++++++++++++++++++",
"++++++++++++++++++++++++++++++++++++++++++++++++++++++++++++++++++++++++++++++++++++++++++++++++",
"++++++++++++++++++++++++++++++++++++++++++++++++++++++++++++++++++++++++++++++++++++++++++++++++",
"++++++++++++++++++++++++++++++++++++++++++++++++++++++++++++++++++++++++++++++++++++++++++++++++",
"++++++++++++++++++@@@+++++++++++++++++++++++++++++++++++++++++++++++++++++++++++++++++++++++++++",
"++++++++++++++++++@@@+++++++++++++++++++++++++++++++++++++++++++++++++++++++++++++++++++++++++++",
"++++++++++++++++++@@@+++++++++++++++++++++++++++++++++++++++++++++++++++++++++++++++++++++++++++",
"++++++++++++++++++@@@+++++++++++++++++++++++++++++++++++++++++++++++++++++++++++++++++++++++++++",
"++++++++++++++++++@@@+++++++++++++++++++++++++++++++++++++XXX+++++++++++++++++++++++++++++++++++",
"++++++++++++++++++@@@+++++++++++++++++++++++++++++++++++++XXX+++++++++++++++++++++++++++++++++++",
"+++++++++++++++@@@+++@@@++++++++++++++++++++++++++++++++++XXX+++++++++++++++++++++++++++++++++++",
"+++++++++++++++@@@+++@@@++++++++++++++++++++++++++++++++++oo#+++++++++++++++++++++++++++++++++++",
"+++++++++++++++@@@+++@@@++++++++++++++++++++++++++++++++++oo#+++++++++++++++++++++++++++++++++++",
"++++++++++++@@@+++++++++@@@++++++++++++++++++++++++++++++ooo###+++++++++++++++++++++++++++++++++",
"++++++++++++@@@+++++++++@@@++++++++++++++++++++++++++++++ooo###+++++++++++++++++++++++++++++++++",
"++++++++++++@@@+++++++++@@@++++++++++++++++++++++++++++++ooo###+++++++++++++++++++++++++++++++++",
"++++++@@@@@@+++++++++++++++@@@@@@+++++++++$$$++++++++++ooo###...++++++++++++++++++++++++++++++++",
"++++++@@@@@@+++++++++++++++@@@@@@+++++++++$$$$$$$++++++ooo###......+++++++++++++++++++++++++++++",
"++++++@@@@@@+++++++++++++++@@@@@@+++++++++$$$$$$$++++++ooo###......+++++++++++++++++++++++++++++",
"+++@@@+++++++++++++++++++++++++++@@@++++++$$$$$$$$$$$$$oo####......+++++++++++++++++++++++++++++",
"+++@@@+++++++++++++++++++++++++++@@@++++  $$$$$$$$$$$$$$$$$$......###+++++++++++++++++++++++++++",
"+++@@@+++++++++++++++++++++++++++@@@++++  $$$$$$$$$$$$$$$$$$......###+++++++++++++++++++++++++++",
"++++++++++++++++++++++++++++++++++++++++      $$$$$$$$$$$$$$$$$$..###+++++++++++++++++++++++++++",
"++++++++++++++++++++++++++++++++++++$$$$$$         $XXX$$$$$$$$$$$$##+++++++++++++++++++++++++++",
"++++++++++++++++++++++++++++++++++++$$$$$$         $XXX$$$$$$$$$$$$##+++++++++++++++++++++++++++",
"++++++++++++++++++++++++++++++++++++$$$$$$$$$$      XXX$$$$$$$$$$$$$$#++++++++@@@+++++++++++++++",
"++++++++++++++++++++++++++++++++++++$$$$$$$$$$$$$   ooo   $$$$$$$$$++#++++++++@@@+++++++++++++++",
"++++++++++++++++++++++++++++++++++++$$$$$$$$$$$$$   ooo   $$$$$$$$$++#++++++++@@@+++++++++++++++",
"++++++++++++++++++++++++++++++++++$$$$$$$$$$$$$$$$$$$$o        $$$$+++++++++++@@@+++++++++++++++",
"++++++++++++++++++++++++++++++++++$$$$$$$$$$$$$$$$$$$$$$$$        ++++++++++++@@@+++++++++++++++",
"++++++++++++++++++++++++++++++++++$$$$$$$$$$$$$$$$$$$$$$$$        ++++++++++++@@@+++++++++++++++",
"++++++++++++++++++++++++++++++++++$$$$$$$$$$$$$$$$$$$$$$$$$$$$$   +++++++++@@@+++@@@++++++++++++",
"+++++++++++++++++++++++++++++++++$$$$$$$$$$$$$$$$$$$$$$$$$$$$$$$$$+++++++++@@@+++@@@++++++++++++",
"+++++++++++++++++++++++++++++++++$$$$$$$$$$$$$$$$$$$$$$$$$$$$$$$$$+++++++++@@@+++@@@++++++++++++",
"+++++++++++++++++++++++++++++++++$$$$$$$$$$$$$$$$$$$$$$$$$$$$$$$###+++++@@@+++++++++@@@+++++++++",
"+++++++++++++++++++++++++++++++++$$$$$$$$$$$$$$$$$$$$$$$$$$$$$$$###+++++@@@+++++++++@@@+++++++++",
"+++++++++++++++++++++++++++++++++$$$$$$$$$$$$$$$$$$$$$$$$$$$$$$$###+++++@@@+++++++++@@@+++++++++",
"+++++++++++++++++++++++++++++++$$$$$$$$$$$$$$$$$$$$$$$$$$$$$$$$$###@@@@@+++++++++++++++@@@@@@+++",
"+++++++++++++++++++++++++++++++$$$$$$$$$$$$$$$$$$$$$$$$$$$$$$$$###@@@@@@+++++++++++++++@@@@@@+++",
"+++++++++++++++++++++++++++++++$$$$$$$$$$$$$$$$$$$$$$$$$$$$$$$$###@@@@@@+++++++++++++++@@@@@@+++",
"+++++++++++++++++++++++++++++++###$$$$$$$$$$$$$$$$$$$$$$$$$$$$$###+++++++++++++++++++++++++++@@@",
"++++++++++++++++++++++++++++++#########$$$$$$$$$o$$$$$$$$$$$$#####+++++++++++++++++++++++++++@@@",
"++++++++++++++++++++++++++++++#########$$$$$$$$$o$$$$$$$$$$$$#####+++++++++++++++++++++++++++@@@",
"++++++++++++++++++++++++++++++++++#########$$$ooo$$$$$$$$$$$$###++++++++++++++++++++++++++++++++",
"+++++++++++++++++++++++++++++++++++++++######ooo$$$$$$$$$$$$$###++++++++++++++++++++++++++++++++",
"+++++++++++++++++++++++++++++++++++++++######ooo$$$$$$$$$$$$$###++++++++++++++++++++++++++++++++",
"+++++++++++++++++++++++++ooo++++++++++++++###ooo###$$$$$$$$$###+++++++++++++++++++++++++++++++++",
"+++++++++++++++++++++++++ooo++++++++++++oooooooo#######$$$$$###+++++++++++++++++++++++++++++++++",
"+++++++++++++++++++++++++ooo++++++++++++oooooooo#######$$$$$###+++++++++++++++++++++++++++++++++",
"+++++++++++++++++++++++++oooooooo++++ooooooooOooo++#######$$###+++++++++++++++++++++++++++++++++",
"++++++++++++++++++++++++ooooooooooooooooOOOOOOooo+++++#######+++++++++++++++++++++++++++++++++++",
"++++++++++++++++++++++++ooooooooooooooooOOOOOOooo+++++#######+++++++++++++++++++++++++++++++++++",
"+++++++++++++++@@@++++++oooOOOOOOooooOOOOOOOOOooo+++++++++###+++++++++++++++++++++++++++++++++++",
"+++++++++++++++@@@++++++oooOOOOOOOOOOOOOOOOOOOOOooo+++++++++++++++++++++++++++++++++++++++++++++",
"+++++++++++++++@@@++++++oooOOOOOOOOOOOOOOOOOOOOOooo+++++++++++++++++++++++++++++++++++++++++++++",
"+++++++++++++++@@@++++++ooooOOOOOOOOOOOOOOOOOOOOooo+++++++++++++++++++++++++++++++++++++++++++++",
"+++++++++++++++@@@++++++ooooOOOOOOOOOOOOOOOOOOOOOooooo++++++ooo+++++++++++++++++++++++++++++++++",
"+++++++++++++++@@@++++++ooooOOOOOOOOOOOOOOOOOOOOOooooo++++++ooo+++++++++++++++++++++++++++++++++",
"++++++++++++@@@+++@@@++++oooOOOOOOOOOOOOOOOOOOOOOoooooooo+++ooo+++++++++++++++++++++++++++++++++",
"++++++++++++@@@+++@@@++++oooOOOOOOOOOOOOOOOOOOOOOOOOooooooooo+++++++++++++++++++++++++++++++++++",
"++++++++++++@@@+++@@@++++oooOOOOOOOOOOOOOOOOOOOOOOOOooooooooo+++++++++++++++++++++++++++++++++++",
"+++++++++@@@+++++++++@@@+oooooOOOOOOOOOOOOOOOOOOOOOOOOOOOoooo+++++++++++++++++++++++++++++++++++",
"+++++++++@@@+++++++++@@@+++ooooOOOOOOOOOOOOOOOOOOOOOOOOOOooo++++++++++++++++++++++++++++++++++++",
"+++++++++@@@+++++++++@@@+++ooooOOOOOOOOOOOOOOOOOOOOOOOOOOooo++++++++++++++++++++++++++++++++++++",
"+++@@@@@@+++++++++++++++@@@@oooOOOOOOOOOOOOOOOOOOOOOOOOooooo++++++++++++++++++++++++++++++++++++",
"+++@@@@@@+++++++++++++++@@@@@@ooooOOOOOOOOOOOOOOOOOOOOoooo@@++++++++++++++++++++++++++++++++++++",
"+++@@@@@@+++++++++++++++@@@@@@ooooOOOOOOOOOOOOOOOOOOOOoooo@@++++++++++++++++++++++++++++++++++++",
"@@@+++++++++++++++++++++++++++@ooooooooOOOOOOOOOOOOOooooo+++@@@+++++++++++++++++++++++++++++++++",
"@@@+++++++++++++++++++++++++++@@@+ooooooooOOOOOOooooooo+++++@@@+++++++++++++++++++++++++++++++++",
"@@@+++++++++++++++++++++++++++@@@+ooooooooOOOOOOooooooo+++++@@@+++++++++++++++++++++++++++++++++",
"+++++++++++++++++++++++++++++++++++++ooooooooooooooo++++++++++++++++++++++++++++++++++++++++++++",
"++++++++++++++++++++++++++++++++++++++++++oooooo++++++++++++++++++++++++++++++++++++++++++++++++",
"++++++++++++++++++++++++++++++++++++++++++oooooo++++++++++++++++++++++++++++++++++++++++++++++++",
"++++++++++++++++++++++++++++++++++++++++++++++++++++++++++++++++++++++++++++++++++++++++++++++++",
"++++++++++++++++++++++++++++++++++++++++++++++++++++++++++++++++++++++++++++++++++++++++++++++++",
"++++++++++++++++++++++++++++++++++++++++++++++++++++++++++++++++++++++++++++++++++++++++++++++++",
"++++++++++++++++++++++++++++++++++++++++++++++++++++++++++++++++++++++++++++++++++++++++++++++++",
"++++++++++++++++++++++++++++++++++++++++++++++++++++++++++++++++++++++++++++++++++++++++++++++++",
"++++++++++++++++++++++++++++++++++++++++++++++++++++++++++++++++++++++++++++++++++++++++++++++++",
"++++++++++++++++++++++++++++++++++++++++++++++++++++++++++++++++++++++++++++++++++++++++++++++++",
"++++++++++++++++++++++++++++++++++++++++++++++++++++++++++++++++++++++++++++++++++++++++++++++++",
"++++++++++++++++++++++++++++++++++++++++++++++++++++++++++++++++++++++++++++++++++++++++++++++++",
"++++++++++++++++++++++++++++++++++++++++++++++++++++++++++++++++++++++++++++++++++++++++++++++++",
"++++++++++++++++++++++++++++++++++++++++++++++++++++++++++++++++++++++++++++++++++++++++++++++++",
"++++++++++++++++++++++++++++++++++++++++++++++++++++++++++++++++++++++++++++++++++++++++++++++++",
"++++++++++++++++++++++++++++++++++++++++++++++++++++++++++++++++++++++++++++++++++++++++++++++++",
"++++++++++++++++++++++++++++++++++++++++++++++++++++++++++++++++++++++++++++++++++++++++++++++++",
"++++++++++++++++++++++++++++++++++++++++++++++++++++++++++++++++++++++++++++++++++++++++++++++++",
"++++++++++++++++++++++++++++++++++++++++++++++++++++++++++++++++++++++++++++++++++++++++++++++++",
"++++++++++++++++++++++++++++++++++++++++++++++++++++++++++++++++++++++++++++++++++++++++++++++++",
"++++++++++++++++++++++++++++++++++++++++++++++++++++++++++++++++++++++++++++++++++++++++++++++++"
};
