/* XPM */
static char *xpm_[] = {
/* columns rows colors chars-per-pixel */
"64 64 9 1 ",
"  c gray50",
". c #880015",
"X c #ED1C24",
"o c #804000",
"O c #B97A57",
"+ c #00A2E8",
"@ c #99D9EA",
"# c #C3C3C3",
"$ c white",
/* pixels */
"++++++++++++++++++++++++++++++++++++++++++++++++++++++++++++++++",
"++++++++++++++++++++++++++++++++++++++++++++++++++++++++++++++++",
"++++++++++++++++++++++++++++++++++++++++++++++++++++++++++++++++",
"++++++++++++++++++++++++++++++++++++++++++++++++++++++++++++++++",
"++++++++++++++++++++++++++++++++++++++++++++++++++++++++++++++++",
"++++++++++++++++++++++++++++++++++++++++++++++++++++++++++++++++",
"++++++++++++@@++++++++++++++++++++++++++++++++++++++++++++++++++",
"++++++++++++@@++++++++++++++++++++++++++++++++++++++++++++++++++",
"++++++++++++@@++++++++++++++++++++++++++++++++++++++++++++++++++",
"++++++++++++@@++++++++++++++++++++++++++++++++++++++++++++++++++",
"++++++++++@@++@@++++++++++++++++++++++++++++++++++++++++++++++++",
"++++++++++@@++@@++++++++++++++++++++++++++++++++++++++++++++++++",
"++++++++@@++++++@@++XX++++++++++++++++++++++++++++++++++++++++++",
"++++++++@@++++++@@++XX++++++++++++++++++++++++++++++++++++++++++",
"++++@@@@++++++++++##oo++++++++++++++++++++++++++++++++++++++++++",
"++++@@@@++++++++++##oo++++++++++++++++++++++++++++++++++++++++++",
"++@@++++++++++....##oo@@++++++++++++++++++++++++++++++++++++++++",
"++@@++++++++++....##oo@@++++++++++++++++++++++++++++++++++++++++",
"++++++++++++##....##oo++++$$++++++++++++++++++++++++++++++++++++",
"++++++++++++##....##oo++++$$++++++++++++++++++++++++++++++++++++",
"++++++++++####....++oo$$$$$$++++@@XX++++++++++++++++@@++++++++++",
"++++++++++####....++oo$$$$$$++++@@XX++++++++++++++++@@++++++++++",
"++++++++++##++++++$$$$$$$$$$$$++@@oo++++++$$++++++++@@++++++++++",
"++++++++++##++++++$$$$$$$$$$$$++@@oo++++++$$++++++++@@++++++++++",
"++++++++++++++$$$$$$$$$$$$$$$$@@++oo++$$$$$$++++++@@++@@++++++++",
"++++++++++++++$$$$$$$$$$$$$$$$@@++oo++$$$$$$++++++@@++@@++++++++",
"++++++++++$$$$$$$$$$$$$$$$$$$$  ++$$$$$$$$$$$$++@@++++++@@++++++",
"++++++++++$$$$$$$$$$$$$$$$$$$$  ++$$$$$$$$$$$$++@@++++++@@++++++",
"++++++####$$$$$$$$$$$$$$$$$$  $$$$$$$$$$$$$$$$@@++++++++++@@@@++",
"++++++####$$$$$$$$$$$$$$$$$$  $$$$$$$$$$$$$$$$@@++++++++++@@@@++",
"++++++++##$$$$$$$$$$$$$$$$####$$$$$$$$$$$$$$$$$$++++++++++++++@@",
"++++++++##$$$$$$$$$$$$$$$$####$$$$$$$$$$$$$$$$$$++++++++++++++@@",
"++++++++####$$$$$$$$$$$$$$  ##$$$$$$$$$$$$$$$$$$++++++++++oooo++",
"++++++++####$$$$$$$$$$$$$$  ##$$$$$$$$$$$$$$$$$$++++++++++oooo++",
"++++++++++##$$$$$$$$$$####  ####$$$$$$$$$$$$$$####++++oooo++++++",
"++++++++++##$$$$$$$$$$####  ####$$$$$$$$$$$$$$####++++oooo++++++",
"++++oo++++####$$$$####++++++++##$$$$$$$$######++++++oo++++++++++",
"++++oo++++####$$$$####++++++++##$$$$$$$$######++++++oo++++++++++",
"++++++oooooo######++oo++++++++####$$######++++++++oo++++++++++++",
"++++++oooooo######++oo++++++++####$$######++++++++oo++++++++++++",
"++++++ooOOOO##OOoo++oo++++++++@@######++++++oooooooo++++++++++++",
"++++++ooOOOO##OOoo++oo++++++++@@######++++++oooooooo++++++++++++",
"++++++++ooOOOOOOoooooo++++++@@++##oo++ooooooOOOOoo++++++++++++++",
"++++++++ooOOOOOOoooooo++++++@@++##oo++ooooooOOOOoo++++++++++++++",
"++++++@@++ooOOOOooooooooooooooooooooooOOOOOOOOoo++++++++++++++++",
"++++++@@++ooOOOOooooooooooooooooooooooOOOOOOOOoo++++++++++++++++",
"++@@@@++++++ooOOOOOOOOOOOOOOOOOOOOOOOOOOOOOOoo++++++++++++++++++",
"++@@@@++++++ooOOOOOOOOOOOOOOOOOOOOOOOOOOOOOOoo++++++++++++++++++",
"@@++++++++++++ooooOOOOOOOOOOOOOOOOOOOOOOoooo++++++++++++++++++++",
"@@++++++++++++ooooOOOOOOOOOOOOOOOOOOOOOOoooo++++++++++++++++++++",
"++++++++++++++++++ooooOOOOOOOOOOOOOOoooo++++++++++++++++++++++++",
"++++++++++++++++++ooooOOOOOOOOOOOOOOoooo++++++++++++++++++++++++",
"++++++++++++++++++++++oooooooooooooo++++++++++++++++++++++++++++",
"++++++++++++++++++++++oooooooooooooo++++++++++++++++++++++++++++",
"++++++++++++++++++++++++++++++++++++++++++++++++++++++++++++++++",
"++++++++++++++++++++++++++++++++++++++++++++++++++++++++++++++++",
"++++++++++++++++++++++++++++++++++++++++++++++++++++++++++++++++",
"++++++++++++++++++++++++++++++++++++++++++++++++++++++++++++++++",
"++++++++++++++++++++++++++++++++++++++++++++++++++++++++++++++++",
"++++++++++++++++++++++++++++++++++++++++++++++++++++++++++++++++",
"++++++++++++++++++++++++++++++++++++++++++++++++++++++++++++++++",
"++++++++++++++++++++++++++++++++++++++++++++++++++++++++++++++++",
"++++++++++++++++++++++++++++++++++++++++++++++++++++++++++++++++",
"++++++++++++++++++++++++++++++++++++++++++++++++++++++++++++++++"
};
