/* XPM */
static char *_917661a5cc74c34a62034e125fc54bc[] = {
/* columns rows colors chars-per-pixel */
"64 64 9 1 ",
"  c gray50",
". c #880015",
"X c #ED1C24",
"o c #804000",
"O c #B97A57",
"+ c #00A2E8",
"@ c #99D9EA",
"# c #C3C3C3",
"$ c white",
/* pixels */
"++++++++++++++++++++++++++++++++++++++++++++++++++++++++++++++++",
"++++++++++++++++++++++++++++++++++++++++++++++++++++++++++++++++",
"++++++++++++++++++++++++++++++++++++++++++++++++++++++++++++++++",
"++++++++++++++++++++++++++++++++++++++++++++++++++++++++++++++++",
"++++++++++++++++++++++++++++++++++++++++++++++++++++++++++++++++",
"++++++++++++++++++++++++++++++++++++++++++++++++++++++++++++++++",
"++++++++++++@@++++++++++++++++++++++++++++++++++++++++++++++++++",
"++++++++++++@@++++++++++++++++++++++++++++++++++++++++++++++++++",
"++++++++++++@@++++++++++++++++++++++++XX++++++++++++++++++++++++",
"++++++++++++@@++++++++++++++++++++++++XX++++++++++++++++++++++++",
"++++++++++@@++@@++++++++++++++++++++++oo##....++++++++++++++++++",
"++++++++++@@++@@++++++++++++++++++++++oo##....++++++++++++++++++",
"++++++++@@++++++@@++++++++++++++++++++oo##....####++++++++++++++",
"++++++++@@++++++@@++++++++++++++++++++oo##....####++++++++++++++",
"++++@@@@++++++++++@@@@++++++++++++++++oo##....##++##++++++++++++",
"++++@@@@++++++++++@@@@++++++++++++++++oo##....##++##++++++++++++",
"++@@++++++++++++++++++@@++++++++$$++++oo++++++++++++++++++++++++",
"++@@++++++++++++++++++@@++++++++$$++++oo++++++++++++++++++++++++",
"++++++++++++++++++++++++++++++++$$$$$$$$$$$$$$$$++++++++++++++++",
"++++++++++++++++++++++++++++++++$$$$$$$$$$$$$$$$++++++++++++++++",
"++++++++++++++++++++++++++XX++++$$$$$$$$$$$$$$$$$$$$##++++++++++",
"++++++++++++++++++++++++++XX++++$$$$$$$$$$$$$$$$$$$$##++++++++++",
"++++++++++++++++++++++++++oo++++$$$$$$$$$$$$$$$$$$$$##++++++++++",
"++++++++++++++++++++++++++oo++++$$$$$$$$$$$$$$$$$$$$##++++++++++",
"++++++++++++++++++$$++++++oo++@@  $$$$$$$$$$$$$$$$$$##@@++++++++",
"++++++++++++++++++$$++++++oo++@@  $$$$$$$$$$$$$$$$$$##@@++++++++",
"++++++++++++++++++$$$$$$$$$$$$$$$$  $$$$$$$$$$$$$$$$##++@@oo++++",
"++++++++++++++++++$$$$$$$$$$$$$$$$  $$$$$$$$$$$$$$$$##++@@oo++++",
"++++++++++++++++++$$$$$$$$$$$$$$$$##  $$$$$$$$$$$$$$##++++oo@@++",
"++++++++++++++++++$$$$$$$$$$$$$$$$##  $$$$$$$$$$$$$$##++++oo@@++",
"++++++++++++++++++$$$$$$$$$$$$$$$$##    ########$$##++oooooo++@@",
"++++++++++++++++++$$$$$$$$$$$$$$$$##    ########$$##++oooooo++@@",
"++++++++++++++++++$$$$$$$$$$$$$$$$##++++oo++++++####ooOOoo++++++",
"++++++++++++++++++$$$$$$$$$$$$$$$$##++++oo++++++####ooOOoo++++++",
"++++++++++++++++++$$$$$$$$$$$$$$$$##++++oo++++++ooOOOOOOoo++++++",
"++++++++++++++++++$$$$$$$$$$$$$$$$##++++oo++++++ooOOOOOOoo++++++",
"++++++++++++++++++##$$$$$$$$$$$$$$##++++oo++++ooooOOOOOOoo++++++",
"++++++++++++++++++##$$$$$$$$$$$$$$##++++oo++++ooooOOOOOOoo++++++",
"++++++++++@@++++++++################++++oo++++ooooOOOOoo++++++++",
"++++++++++@@++++++++################++++oo++++ooooOOOOoo++++++++",
"++++++++oooooo++++++++++++++++@@oo@@++++ooooooOOOOOOoo++++++++++",
"++++++++oooooo++++++++++++++++@@oo@@++++ooooooOOOOOOoo++++++++++",
"++++++++@@++@@ooooooooooooooooooooooooooOOOOOOOOOOOOoo++++++++++",
"++++++++@@++@@ooooooooooooooooooooooooooOOOOOOOOOOOOoo++++++++++",
"++++++@@++++++@@ooooOOOOOOOOOOOOOOOOOOOOOOOOOOOOoooo++++++++++++",
"++++++@@++++++@@ooooOOOOOOOOOOOOOOOOOOOOOOOOOOOOoooo++++++++++++",
"++@@@@++++++++++@@ooooooOOOOOOOOOOOOOOOOOOOOOOoo++++++++++++++++",
"++@@@@++++++++++@@ooooooOOOOOOOOOOOOOOOOOOOOOOoo++++++++++++++++",
"@@++++++++++++++++++@@++ooooooOOOOOOOOOOoooooooo++++++++++++++++",
"@@++++++++++++++++++@@++ooooooOOOOOOOOOOoooooooo++++++++++++++++",
"++++++++++++++++++++++++++++++oooooooooo++++++++++++++++++++++++",
"++++++++++++++++++++++++++++++oooooooooo++++++++++++++++++++++++",
"++++++++++++++++++++++++++++++++++++++++++++++++++++++++++++++++",
"++++++++++++++++++++++++++++++++++++++++++++++++++++++++++++++++",
"++++++++++++++++++++++++++++++++++++++++++++++++++++++++++++++++",
"++++++++++++++++++++++++++++++++++++++++++++++++++++++++++++++++",
"++++++++++++++++++++++++++++++++++++++++++++++++++++++++++++++++",
"++++++++++++++++++++++++++++++++++++++++++++++++++++++++++++++++",
"++++++++++++++++++++++++++++++++++++++++++++++++++++++++++++++++",
"++++++++++++++++++++++++++++++++++++++++++++++++++++++++++++++++",
"++++++++++++++++++++++++++++++++++++++++++++++++++++++++++++++++",
"++++++++++++++++++++++++++++++++++++++++++++++++++++++++++++++++",
"++++++++++++++++++++++++++++++++++++++++++++++++++++++++++++++++",
"++++++++++++++++++++++++++++++++++++++++++++++++++++++++++++++++"
};
