/* XPM */
static char *xpm_[] = {
/* columns rows colors chars-per-pixel */
"96 96 9 1 ",
"  c gray50",
". c #880015",
"X c #ED1C24",
"o c #804000",
"O c #B97A57",
"+ c #00A2E8",
"@ c #99D9EA",
"# c #C3C3C3",
"$ c white",
/* pixels */
"++++++++++++++++++++++++++++++++++++++++++++++++++++++++++++++++++++++++++++++++++++++++++++++++",
"++++++++++++++++++++++++++++++++++++++++++++++++++++++++++++++++++++++++++++++++++++++++++++++++",
"++++++++++++++++++++++++++++++++++++++++++++++++++++++++++++++++++++++++++++++++++++++++++++++++",
"++++++++++++++++++++++++++++++++++++++++++++++++++++++++++++++++++++++++++++++++++++++++++++++++",
"++++++++++++++++++++++++++++++++++++++++++++++++++++++++++++++++++++++++++++++++++++++++++++++++",
"++++++++++++++++++++++++++++++++++++++++++++++++++++++++++++++++++++++++++++++++++++++++++++++++",
"++++++++++++++++++++++++++++++++++++++++++++++++++++++++++++++++++++++++++++++++++++++++++++++++",
"++++++++++++++++++++++++++++++++++++++++++++++++++++++++++++++++++++++++++++++++++++++++++++++++",
"++++++++++++++++++++++++++++++++++++++++++++++++++++++++++++++++++++++++++++++++++++++++++++++++",
"++++++++++++++++++@@@+++++++++++++++++++++++++++++++++++++++++++++++++++++++++++++++++++++++++++",
"++++++++++++++++++@@@++++++++++++++++++XXX++++++++++++++++++++++++++++++++++++++++++++++++++++++",
"++++++++++++++++++@@@++++++++++++++++++XXX++++++++++++++++++++++++++++++++++++++++++++++++++++++",
"++++++++++++++++++@@@++++++++++++++++++XXX++++++++++++++++++++++++++++++++++++++++++++++++++++++",
"++++++++++++++++++@@@+++++++++......###ooo++++++++++++++++++++++++++++++++++++++++++++++++++++++",
"++++++++++++++++++@@@+++++++++......###ooo++++++++++++++++++++++++++++++++++++++++++++++++++++++",
"+++++++++++++++@@@+++@@@++++++......###ooo++++++++++++++++++++++++++++++++++++++++++++++++++++++",
"+++++++++++++++@@@+++@@@######......###ooo++++++++++++++++++++++++++++++++++++++++++++++++++++++",
"+++++++++++++++@@@+++@@@######......###ooo++++++++++++++++++++++++++++++++++++++++++++++++++++++",
"++++++++++++@@@+++++++++######......###ooo++++++++++++++++++++++++++++++++++++++++++++++++++++++",
"++++++++++++@@@++++++###@@@###......###ooo++++++++++++++++++++++++++++++++++++++++++++++++++++++",
"++++++++++++@@@++++++###@@@###......###ooo++++++++++++++++++++++++++++++++++++++++++++++++++++++",
"++++++@@@@@@+++++++++###+++###......###ooo++++++++++++++++++++++++++++++++++++++++++++++++++++++",
"++++++@@@@@@+++++++++++++++@@@@@@++++++ooo++++++$$$+++++++++++++++++++++++++++++++++++++++++++++",
"++++++@@@@@@+++++++++++++++@@@@@@++++++ooo++++++$$$+++++++++++++++++++++++++++++++++++++++++++++",
"+++@@@+++++++++++++++++++++++++++@@@+++ooo++++++$$$+++++++++++++++++++++++++++++++++++++++++++++",
"+++@@@+++++++++++++++++++++$$$$$$$$$$$$$$$$$$$$$$$$+++++++++++++++++++++++++++++++++++++++++++++",
"+++@@@+++++++++++++++++++++$$$$$$$$$$$$$$$$$$$$$$$$+++++++++++++++++++++++++++++++++++++++++++++",
"+++++++++++++++++++++++++++$$$$$$$$$$$$$$$$$$$$$$$$+++++++++++++++++++++++++++++++++++++++++++++",
"++++++++++++++++++###$$$$$$$$$$$$$$$$$$$$$$$$$$$$$$++++++XXX++++++++++++++++++++++++++++++++++++",
"++++++++++++++++++###$$$$$$$$$$$$$$$$$$$$$$$$$$$$$$++++++XXX++++++++++++++++++++++++++++++++++++",
"++++++++++++++++++###$$$$$$$$$$$$$$$$$$$$$$$$$$$$$$++++++XXX++++++++++++++++++@@@+++++++++++++++",
"++++++++++++++++++###$$$$$$$$$$$$$$$$$$$$$$$$$$$$$$++++++ooo++++++++++++++++++@@@+++++++++++++++",
"++++++++++++++++++###$$$$$$$$$$$$$$$$$$$$$$$$$$$$$$++++++ooo++++++++++++++++++@@@+++++++++++++++",
"++++++++++++++++++###$$$$$$$$$$$$$$$$$$$$$$$$$$$$$$++++++ooo++++++++++++++++++@@@+++++++++++++++",
"++++++++++++++++++###$$$$$$$$$$$$$$$$$$$$$$$$$$$   ++++++ooo+++++++++$$$++++++@@@+++++++++++++++",
"++++++++++++++++++###$$$$$$$$$$$$$$$$$$$$$$$$$$$   ++++++ooo+++++++++$$$++++++@@@+++++++++++++++",
"++++++++++++++++++###$$$$$$$$$$$$$$$$$$$$$$$$$$$   @@@+++ooo+++++++++$$$+++@@@+++@@@++++++++++++",
"+++++++++ooo++++++###$$$$$$$$$$$$$$$$$$$$$$$$   $$$$$$$$$$$$$$$$$$$$$$$$+++@@@+++@@@++++++++++++",
"+++++++++ooo++++++###$$$$$$$$$$$$$$$$$$$$$$$$   $$$$$$$$$$$$$$$$$$$$$$$$+++@@@+++@@@++++++++++++",
"+++++++++ooo++++++###$$$$$$$$$$$$$$$$$$$$$$$$   $$$$$$$$$$$$$$$$$$$$$$$$@@@+++++++++@@@+++++++++",
"+++++++++ooo++++++###$$$$$$$$$$$$$$$$$$$$$   ###$$$$$$$$$$$$$$$$$$$$$$$$@@@+++++++++@@@+++++++++",
"+++++++++ooo++++++###$$$$$$$$$$$$$$$$$$$$$   ###$$$$$$$$$$$$$$$$$$$$$$$$@@@+++++++++@@@+++++++++",
"+++++++++ooo++++++###$$$$$$$$$$$$$$$$$$$$$   ###$$$$$$$$$$$$$$$$$$$$$$$$+++++++++++++++@@@@@@+++",
"+++++++++ooooooooo+++###$$$############      ###$$$$$$$$$$$$$$$$$$$$$$$$+++++++++++++++@@@@@@+++",
"+++++++++ooooooooo+++###$$$############      ###$$$$$$$$$$$$$$$$$$$$$$$$+++++++++++++++@@@@@@+++",
"+++++++++ooooooooo+++###$$$############      ###$$$$$$$$$$$$$$$$$$$$$$$$+++++++++++++++++++++@@@",
"++++++++++++oooOOOooo######++++++@@@ooo++++++###$$$$$$$$$$$$$$$$$$$$$$$$+++++++++++++++++++++@@@",
"++++++++++++oooOOOooo######++++++@@@ooo++++++###$$$$$$$$$$$$$$$$$$$$$$$$+++++++++++++++++++++@@@",
"++++++++++++oooOOOooo######+++++++++ooo++++++###$$$$$$$$$$$$$$$$$$$$$$$$++++++++++++++++++++++++",
"++++++++++++oooOOOOOOOOOooo+++++++++ooo++++++###$$$$$$$$$$$$$$$$$$$$$$$$++++++++++++++++++++++++",
"++++++++++++oooOOOOOOOOOooo+++++++++ooo++++++###$$$$$$$$$$$$$$$$$$$$$$$$++++++++++++++++++++++++",
"++++++++++++oooOOOOOOOOOooo+++++++++ooo++++++###$$$$$$$$$$$$$$$$$$$$$$$$++++++++++++++++++++++++",
"++++++++++++oooOOOOOOOOOoooooo++++++ooo++++++###$$$$$$$$$$$$$$$$$$$$$###++++++++++++++++++++++++",
"++++++++++++oooOOOOOOOOOoooooo++++++ooo++++++###$$$$$$$$$$$$$$$$$$$$$###++++++++++++++++++++++++",
"++++++++++++oooOOOOOOOOOoooooo++++++ooo++++++###$$$$$$$$$$$$$$$$$$$$$###++++++++++++++++++++++++",
"+++++++++++++++oooOOOOOOoooooo++++++ooo++++++########################+++++++++++++++++++++++++++",
"+++++++++++++++oooOOOOOOoooooo++++++ooo++++++########################+++++++++++++++++++++++++++",
"+++++++++++++++oooOOOOOOoooooo++++++ooo++++++########################+++++++++++++++++++++++++++",
"+++++++++++++++@@@oooOOOOOOOOOooooooooo++++++@@@ooo+++++++++++++++++++++++++++ooooooooo+++++++++",
"+++++++++++++++@@@oooOOOOOOOOOooooooooo++++++@@@ooo+++++++++++++++++++++++++++ooooooooo+++++++++",
"+++++++++++++++@@@oooOOOOOOOOOooooooooo++++++@@@ooo+++++++++++++++++++++++++++ooooooooo+++++++++",
"+++++++++++++++@@@oooOOOOOOOOOOOOOOOOOOooooooooooooooooooooooooooooooooooooooo++++++++++++++++++",
"+++++++++++++++@@@oooOOOOOOOOOOOOOOOOOOooooooooooooooooooooooooooooooooooooooo++++++++++++++++++",
"++++++++++++@@@+++oooOOOOOOOOOOOOOOOOOOooooooooooooooooooooooooooooooooooooooo++++++++++++++++++",
"++++++++++++@@@+++@@@ooooooOOOOOOOOOOOOOOOOOOOOOOOOOOOOOOOOOOOOOOOOOOoooooo+++++++++++++++++++++",
"++++++++++++@@@+++@@@ooooooOOOOOOOOOOOOOOOOOOOOOOOOOOOOOOOOOOOOOOOOOOoooooo+++++++++++++++++++++",
"+++++++++@@@+++++++++ooooooOOOOOOOOOOOOOOOOOOOOOOOOOOOOOOOOOOOOOOOOOOoooooo+++++++++++++++++++++",
"+++++++++@@@+++++++++@@@+++oooOOOOOOOOOOOOOOOOOOOOOOOOOOOOOOOOOooooooooo++++++++++++++++++++++++",
"+++++++++@@@+++++++++@@@+++oooOOOOOOOOOOOOOOOOOOOOOOOOOOOOOOOOOooooooooo++++++++++++++++++++++++",
"+++@@@@@@+++++++++++++++@@@oooOOOOOOOOOOOOOOOOOOOOOOOOOOOOOOOOOooooooooo++++++++++++++++++++++++",
"+++@@@@@@+++++++++++++++@@@ooooooooooooOOOOOOOOOOOOOOOooooooooo+++++++++++++++++++++++++++++++++",
"+++@@@@@@+++++++++++++++@@@ooooooooooooOOOOOOOOOOOOOOOooooooooo+++++++++++++++++++++++++++++++++",
"@@@++++++++++++++++++++++++ooooooooooooOOOOOOOOOOOOOOOooooooooo+++++++++++++++++++++++++++++++++",
"@@@+++++++++++++++++++++++++++@@@++++++ooooooooooooooo++++++@@@+++++++++++++++++++++++++++++++++",
"@@@+++++++++++++++++++++++++++@@@++++++ooooooooooooooo++++++@@@+++++++++++++++++++++++++++++++++",
"+++++++++++++++++++++++++++++++++++++++ooooooooooooooo++++++++++++++++++++++++++++++++++++++++++",
"+++++++++++++++++++++++++++++++++++++++ooooooooooooooo++++++++++++++++++++++++++++++++++++++++++",
"++++++++++++++++++++++++++++++++++++++++++++++++++++++++++++++++++++++++++++++++++++++++++++++++",
"++++++++++++++++++++++++++++++++++++++++++++++++++++++++++++++++++++++++++++++++++++++++++++++++",
"++++++++++++++++++++++++++++++++++++++++++++++++++++++++++++++++++++++++++++++++++++++++++++++++",
"++++++++++++++++++++++++++++++++++++++++++++++++++++++++++++++++++++++++++++++++++++++++++++++++",
"++++++++++++++++++++++++++++++++++++++++++++++++++++++++++++++++++++++++++++++++++++++++++++++++",
"++++++++++++++++++++++++++++++++++++++++++++++++++++++++++++++++++++++++++++++++++++++++++++++++",
"++++++++++++++++++++++++++++++++++++++++++++++++++++++++++++++++++++++++++++++++++++++++++++++++",
"++++++++++++++++++++++++++++++++++++++++++++++++++++++++++++++++++++++++++++++++++++++++++++++++",
"++++++++++++++++++++++++++++++++++++++++++++++++++++++++++++++++++++++++++++++++++++++++++++++++",
"++++++++++++++++++++++++++++++++++++++++++++++++++++++++++++++++++++++++++++++++++++++++++++++++",
"++++++++++++++++++++++++++++++++++++++++++++++++++++++++++++++++++++++++++++++++++++++++++++++++",
"++++++++++++++++++++++++++++++++++++++++++++++++++++++++++++++++++++++++++++++++++++++++++++++++",
"++++++++++++++++++++++++++++++++++++++++++++++++++++++++++++++++++++++++++++++++++++++++++++++++",
"++++++++++++++++++++++++++++++++++++++++++++++++++++++++++++++++++++++++++++++++++++++++++++++++",
"++++++++++++++++++++++++++++++++++++++++++++++++++++++++++++++++++++++++++++++++++++++++++++++++",
"++++++++++++++++++++++++++++++++++++++++++++++++++++++++++++++++++++++++++++++++++++++++++++++++",
"++++++++++++++++++++++++++++++++++++++++++++++++++++++++++++++++++++++++++++++++++++++++++++++++",
"++++++++++++++++++++++++++++++++++++++++++++++++++++++++++++++++++++++++++++++++++++++++++++++++",
"++++++++++++++++++++++++++++++++++++++++++++++++++++++++++++++++++++++++++++++++++++++++++++++++"
};
