/* XPM */
static char *xpm_[] = {
/* columns rows colors chars-per-pixel */
"96 96 9 1 ",
"  c gray50",
". c #880015",
"X c #ED1C24",
"o c #804000",
"O c #B97A57",
"+ c #00A2E8",
"@ c #99D9EA",
"# c #C3C3C3",
"$ c white",
/* pixels */
"++++++++++++++++++++++++++++++++++++++++++++++++++++++++++++++++++++++++++++++++++++++++++++++++",
"++++++++++++++++++++++++++++++++++++++++++++++++++++++++++++++++++++++++++++++++++++++++++++++++",
"++++++++++++++++++++++++++++++++++++++++++++++++++++++++++++++++++++++++++++++++++++++++++++++++",
"++++++++++++++++++++++++++++++++++++++++++++++++++++++++++++++++++++++++++++++++++++++++++++++++",
"++++++++++++++++++++++++++++++++++++++++++++++++++++++++++++++++++++++++++++++++++++++++++++++++",
"++++++++++++++++++++++++++++++++++++++++++++++++++++++++++++++++++++++++++++++++++++++++++++++++",
"++++++++++++++++++++++++++++++++++++++++++++++++++++++++++++++++++++++++++++++++++++++++++++++++",
"++++++++++++++++++++++++++++++++++++++++++++++++++++++++++++++++++++++++++++++++++++++++++++++++",
"++++++++++++++++++++++++++++++++++++++++++++++++++++++++++++++++++++++++++++++++++++++++++++++++",
"++++++++++++++++++@@@+++++++++++++++++++++++++++++++++++++++++++++++++++++++++++++++++++++++++++",
"++++++++++++++++++@@@+++++++++++++++++++++++++++++++++++++++++++++++++++++++++++++++++++++++++++",
"++++++++++++++++++@@@+++++++++++++++++++++++++++++++++++++++++++++++++++++++++++++++++++++++++++",
"++++++++++++++++++@@@+++++++++++++++++++++++++++++++++++++++++++++++++++++++++++++++++++++++++++",
"++++++++++++++++++@@@+++++++++++++XXX+++++++++++++++++++++++++++++++++++++++++++++++++++++++++++",
"++++++++++++++++++@@@+++++++++++++XXX+++++++++++++++++++++++++++++++++++++++++++++++++++++++++++",
"+++++++++++++++@@@+++@@@++++++++++XXX+++++++++++++++++++++++++++++++++++++++++++++++++++++++++++",
"+++++++++++++++@@@+++@@@++++++++++ooo+++++++++++++++++++++++++++++++++++++++++++++++++++++++++++",
"+++++++++++++++@@@+++@@@++++++++++ooo+++++++++++++++++++++++++++++++++++++++++++++++++++++++++++",
"++++++++++++@@@+++++++++@@@+++++++ooooo+++++++++++++++++++++++++++++++++++++++++++++++++++++++++",
"++++++++++++@@@+++++++++@@@+++++++++ooo+++++++++++++++++++++++++++++++++++++++++++++++++++++++++",
"++++++++++++@@@+++++++++@@@+++++++++ooo+++++++++++++++++++++++++++++++++++++++++++++++++++++++++",
"++++++@@@@@@+++++++++++++++@@@@@@+++oooo+++++++++++$$$++++++++++++++++++++++++++++++++++++++++++",
"++++++@@@@@@+++++++++++++++@@@@@@++++ooo++++++$$$$$$$$++++++++++++++++++++++++++++++++++++++++++",
"++++++@@@@@@+++++++++++++++@@@@@@++++ooo++++++$$$$$$$$++++++++++++++++++++++++++++++++++++++++++",
"+++@@@+++++++++++++++++++++++++++@@@+ooo$$$$$$$$$$$$$$++++++++++++++++++++++++++++++++++++++++++",
"+++@@@+++++++++++++++++++++++++++@@@$ooooo$$$$$$$$$$$$ +++++++++++++++++++++++++++++++++++++++++",
"+++@@@+++++++++++++++++++++++++++@@@$ooooo$$$$$$$$$$$$ +++++++++++++++++++++++++++++++++++++++++",
"+++++++++++++++++++++++++++++++$$$$$$$$ooo$$$$$$$      +++++++++++++++++++++++++++++++++++++++++",
"+++++++++++++++++++++++++++#$$$$$$$$$$$oXXX$$         $$$$$$++++++++++++++++++++++++++++++++++++",
"+++++++++++++++++++++++++++#$$$$$$$$$$$oXXX$$         $$$$$$++++++++++++++++++++++++++++++++++++",
"+++++++++++++++++++++++++++###$$$$$$$$$$XXX      $$$$$$$$$$$++++++++++++++++++@@@+++++++++++++++",
"++++++++++++++++++++++++++++##$$$$$$$  #ooo   $$$$$$$$$$$$$$++++++++++++++++++@@@+++++++++++++++",
"++++++++++++++++++++++++++++##$$$$$$$  #ooo   $$$$$$$$$$$$$$++++++++++++++++++@@@+++++++++++++++",
"++++++++++++++++++++++++++++###$$    ###ooo$$$$$$$$$$$$$$$$$$+++++++++++++++++@@@+++++++++++++++",
"++++++++++++++++++++++++++++++       ###ooooo$$$$$$$$$$$$$$$$+++++++++++++++++@@@+++++++++++++++",
"++++++++++++++++++++++++++++++       ###ooooo$$$$$$$$$$$$$$$$+++++++++++++++++@@@+++++++++++++++",
"++++++++++++++++++++++++++++++   $$$...###ooo$$$$$$$$$$$$$$$$++++++++++++++@@@+++@@@++++++++++++",
"++++++++++++++++++++++++++++++$$$......###ooo$$$$$$$$$$$$$$$$$$++++++++++++@@@+++@@@++++++++++++",
"++++++++++++++++++++++++++++++$$$......###ooo$$$$$$$$$$$$$$$$$$++++++++++++@@@+++@@@++++++++++++",
"++++++++++++++++++++++++++++###$$......####ooo$$$$$$$$$$$$$$$$$+++++++++@@@+++++++++@@@+++++++++",
"++++++++++++++++++++++++++++## ###......$$$ooo$$$$$$$$$$$$$$$$$+++++++++@@@+++++++++@@@+++++++++",
"++++++++++++++++++++++++++++## ###......$$$ooo$$$$$$$$$$$$$$$$$+++++++++@@@+++++++++@@@+++++++++",
"++++++++++++++++++++++++++++  ####..$$$$$$$$$ooo$$$$$$$$$$$$$$$$++@@@@@@+++++++++++++++@@@@@@+++",
"++++++++++++++++++++++++++++++###$$$$$$$$$$$$ooo$$$$$$$$$$$$$$$$++@@@@@@+++++++++++++++@@@@@@+++",
"++++++++++++++++++++++++++++++###$$$$$$$$$$$$ooo$$$$$$$$$$$$$$$$++@@@@@@+++++++++++++++@@@@@@+++",
"++++++++++++++++++++++++++++++#  $$$$$$$$$$$$$ooo$$$$$$$$$$$$###@@+++++++++++++++++++++++++++@@@",
"++++++++++++++++++++++++++++++ ###$$$$$$$$$$$$ooo$$$$$$$$#########+++++++++++++++++++++++++++@@@",
"++++++++++++++++++++++++++++++ ###$$$$$$$$$$$$ooo$$$$$$$$#########+++++++++++++++++++++++++++@@@",
"+++++++++++++++++++++++++++++++###$$$$$$$$$$$$ooo$$$#########+++++++++++++++++++++++++++++++++++",
"+++++++++++++++++++++++++++++++###$$$$$$$$$$$$ooooo######+++++++++++++++++++++++++++++++++++++++",
"+++++++++++++++++++++++++++++++###$$$$$$$$$$$$ooooo######+++++++++++++++++++++++++++++++++++++++",
"+++++++++++++++++++++++++++++++++###$$$$$$$$$###ooo###+++++++++++++ooo++++++++++++++++++++++++++",
"+++++++++++++++++++++++++++++++++###$$$$########ooooooo++++++++++++ooo++++++++++++++++++++++++++",
"+++++++++++++++++++++++++++++++++###$$$$########ooooooo++++++++++++ooo++++++++++++++++++++++++++",
"+++++++++++++++++++++++++++++++++###$########+oooOOooooooo+++++ooooooo++++++++++++++++++++++++++",
"++++++++++++++++++++++++++++++++++########++++oooOOOOOOooooooooooooooooo++++++++++++++++++++++++",
"++++++++++++++++++++++++++++++++++########++++oooOOOOOOooooooooooooooooo++++++++++++++++++++++++",
"+++++++++++++++@@@++++++++++++++++###++++++++@oooOOOOOOOOOoooooOOOOOOooo++++++++++++++++++++++++",
"+++++++++++++++@@@+++++++++++++++++++++++++++oooOOOOOOOOOOOOOOOOOOOOOooo++++++++++++++++++++++++",
"+++++++++++++++@@@+++++++++++++++++++++++++++oooOOOOOOOOOOOOOOOOOOOOOooo++++++++++++++++++++++++",
"+++++++++++++++@@@+++++++++++++++++++++++++++oooOOOOOOOOOOOOOOOOOOOooooo++++++++++++++++++++++++",
"+++++++++++++++@@@+++++++++++++++ooo++++++ooooOOOOOOOOOOOOOOOOOOOOOooooo++++++++++++++++++++++++",
"+++++++++++++++@@@+++++++++++++++ooo++++++ooooOOOOOOOOOOOOOOOOOOOOOooooo++++++++++++++++++++++++",
"++++++++++++@@@+++@@@++++++++++++ooo+++oooooooOOOOOOOOOOOOOOOOOOOOOooo++++++++++++++++++++++++++",
"++++++++++++@@@+++@@@+++++++++++++oooooooooOOOOOOOOOOOOOOOOOOOOOOOOooo++++++++++++++++++++++++++",
"++++++++++++@@@+++@@@+++++++++++++oooooooooOOOOOOOOOOOOOOOOOOOOOOOOooo++++++++++++++++++++++++++",
"+++++++++@@@+++++++++@@@++++++++++oooooOOOOOOOOOOOOOOOOOOOOOOOOOOOoooo++++++++++++++++++++++++++",
"+++++++++@@@+++++++++@@@++++++++++++oooOOOOOOOOOOOOOOOOOOOOOOOOOooooo+++++++++++++++++++++++++++",
"+++++++++@@@+++++++++@@@++++++++++++oooOOOOOOOOOOOOOOOOOOOOOOOOOooooo+++++++++++++++++++++++++++",
"+++@@@@@@+++++++++++++++@@@@@@+++@@@ooooOOOOOOOOOOOOOOOOOOOOOOOOooo+++++++++++++++++++++++++++++",
"+++@@@@@@+++++++++++++++@@@@@@+++@@@@oooooOOOOOOOOOOOOOOOOOOOooooo++++++++++++++++++++++++++++++",
"+++@@@@@@+++++++++++++++@@@@@@+++@@@@oooooOOOOOOOOOOOOOOOOOOOooooo++++++++++++++++++++++++++++++",
"@@@+++++++++++++++++++++++++++@@@++++++ooooOOOOOOOOOOOOOOooooooo@@++++++++++++++++++++++++++++++",
"@@@+++++++++++++++++++++++++++@@@+++++++ooooooooOOOOOOooooooo@@+++++++++++++++++++++++++++++++++",
"@@@+++++++++++++++++++++++++++@@@+++++++ooooooooOOOOOOooooooo@@+++++++++++++++++++++++++++++++++",
"+++++++++++++++++++++++++++++++++++++++++++ooooooooooooooo++++++++++++++++++++++++++++++++++++++",
"++++++++++++++++++++++++++++++++++++++++++++++++oooooo++++++++++++++++++++++++++++++++++++++++++",
"++++++++++++++++++++++++++++++++++++++++++++++++oooooo++++++++++++++++++++++++++++++++++++++++++",
"++++++++++++++++++++++++++++++++++++++++++++++++++++++++++++++++++++++++++++++++++++++++++++++++",
"++++++++++++++++++++++++++++++++++++++++++++++++++++++++++++++++++++++++++++++++++++++++++++++++",
"++++++++++++++++++++++++++++++++++++++++++++++++++++++++++++++++++++++++++++++++++++++++++++++++",
"++++++++++++++++++++++++++++++++++++++++++++++++++++++++++++++++++++++++++++++++++++++++++++++++",
"++++++++++++++++++++++++++++++++++++++++++++++++++++++++++++++++++++++++++++++++++++++++++++++++",
"++++++++++++++++++++++++++++++++++++++++++++++++++++++++++++++++++++++++++++++++++++++++++++++++",
"++++++++++++++++++++++++++++++++++++++++++++++++++++++++++++++++++++++++++++++++++++++++++++++++",
"++++++++++++++++++++++++++++++++++++++++++++++++++++++++++++++++++++++++++++++++++++++++++++++++",
"++++++++++++++++++++++++++++++++++++++++++++++++++++++++++++++++++++++++++++++++++++++++++++++++",
"++++++++++++++++++++++++++++++++++++++++++++++++++++++++++++++++++++++++++++++++++++++++++++++++",
"++++++++++++++++++++++++++++++++++++++++++++++++++++++++++++++++++++++++++++++++++++++++++++++++",
"++++++++++++++++++++++++++++++++++++++++++++++++++++++++++++++++++++++++++++++++++++++++++++++++",
"++++++++++++++++++++++++++++++++++++++++++++++++++++++++++++++++++++++++++++++++++++++++++++++++",
"++++++++++++++++++++++++++++++++++++++++++++++++++++++++++++++++++++++++++++++++++++++++++++++++",
"++++++++++++++++++++++++++++++++++++++++++++++++++++++++++++++++++++++++++++++++++++++++++++++++",
"++++++++++++++++++++++++++++++++++++++++++++++++++++++++++++++++++++++++++++++++++++++++++++++++",
"++++++++++++++++++++++++++++++++++++++++++++++++++++++++++++++++++++++++++++++++++++++++++++++++",
"++++++++++++++++++++++++++++++++++++++++++++++++++++++++++++++++++++++++++++++++++++++++++++++++"
};
