/* XPM */
static char *xpm_[] = {
/* columns rows colors chars-per-pixel */
"96 96 9 1 ",
"  c gray50",
". c #880015",
"X c #ED1C24",
"o c #804000",
"O c #B97A57",
"+ c #00A2E8",
"@ c #99D9EA",
"# c #C3C3C3",
"$ c white",
/* pixels */
"++++++++++++++++++++++++++++++++++++++++++++++++++++++++++++++++++++++++++++++++++++++++++++++++",
"++++++++++++++++++++++++++++++++++++++++++++++++++++++++++++++++++++++++++++++++++++++++++++++++",
"++++++++++++++++++++++++++++++++++++++++++++++++++++++++++++++++++++++++++++++++++++++++++++++++",
"++++++++++++++++++++++++++++++++++++++++++++++++++++++++++++++++++++++++++++++++++++++++++++++++",
"++++++++++++++++++++++++++++++++++++++++++++++++++++++++++++++++++++++++++++++++++++++++++++++++",
"++++++++++++++++++++++++++++++++++++++++++++++++++++++++++++++++++++++++++++++++++++++++++++++++",
"++++++++++++++++++++++++++++++++++++++++++++++++++++++++++++++++++++++++++++++++++++++++++++++++",
"++++++++++++++++++++++++++++++++++++++++++++++++++++++++++++++++++++++++++++++++++++++++++++++++",
"++++++++++++++++++++++++++++++++++++++++++++++++++++++++++++++++++++++++++++++++++++++++++++++++",
"++++++++++++++++++@@@+++++++++++++++++++++++++++++++++++++++++++++++++++++++++++++++++++++++++++",
"++++++++++++++++++@@@+++++++++++++++++++++++++++++++++XXX+++++++++++++++++++++++++++++++++++++++",
"++++++++++++++++++@@@+++++++++++++++++++++++++++++++++XXX+++++++++++++++++++++++++++++++++++++++",
"++++++++++++++++++@@@+++++++++++++++++++++++++++++++++XXX+++++++++++++++++++++++++++++++++++++++",
"++++++++++++++++++@@@+++++++++++++++++++++++++++++++++ooo###......++++++++++++++++++++++++++++++",
"++++++++++++++++++@@@+++++++++++++++++++++++++++++++++ooo###......++++++++++++++++++++++++++++++",
"+++++++++++++++@@@+++@@@++++++++++++++++++++++++++++++ooo###......++++++++++++++++++++++++++++++",
"+++++++++++++++@@@+++@@@++++++++++++++++++++++++++++++ooo###......######++++++++++++++++++++++++",
"+++++++++++++++@@@+++@@@++++++++++++++++++++++++++++++ooo###......######++++++++++++++++++++++++",
"++++++++++++@@@+++++++++@@@+++++++++++++++++++++++++++ooo###......######++++++++++++++++++++++++",
"++++++++++++@@@+++++++++@@@+++++++++++++++++++++++++++ooo###......###+++###+++++++++++++++++++++",
"++++++++++++@@@+++++++++@@@+++++++++++++++++++++++++++ooo###......###+++###+++++++++++++++++++++",
"++++++@@@@@@+++++++++++++++@@@@@@+++++++++++++++++++++ooo###......###+++###+++++++++++++++++++++",
"++++++@@@@@@+++++++++++++++@@@@@@++++++++++++$$$++++++ooo+++++++++++++++++++++++++++++++++++++++",
"++++++@@@@@@+++++++++++++++@@@@@@++++++++++++$$$++++++ooo+++++++++++++++++++++++++++++++++++++++",
"+++@@@+++++++++++++++++++++++++++@@@+++++++++$$$++++++ooo+++++++++++++++++++++++++++++++++++++++",
"+++@@@+++++++++++++++++++++++++++@@@+++++++++$$$$$$$$$$$$$$$$$$$$$$$$+++++++++++++++++++++++++++",
"+++@@@+++++++++++++++++++++++++++@@@+++++++++$$$$$$$$$$$$$$$$$$$$$$$$+++++++++++++++++++++++++++",
"+++++++++++++++++++++++++++++++++++++++++++++$$$$$$$$$$$$$$$$$$$$$$$$+++++++++++++++++++++++++++",
"++++++++++++++++++++++++++++++++++++XXX++++++$$$$$$$$$$$$$$$$$$$$$$$$$$$$$$###++++++++++++++++++",
"++++++++++++++++++++++++++++++++++++XXX++++++$$$$$$$$$$$$$$$$$$$$$$$$$$$$$$###++++++++++++++++++",
"++++++++++++++++++++++++++++++++++++XXX++++++$$$$$$$$$$$$$$$$$$$$$$$$$$$$$$###@@@+++++++++++++++",
"++++++++++++++++++++++++++++++++++++ooo++++++$$$$$$$$$$$$$$$$$$$$$$$$$$$$$$###@@@+++++++++++++++",
"++++++++++++++++++++++++++++++++++++ooo++++++$$$$$$$$$$$$$$$$$$$$$$$$$$$$$$###@@@+++++++++++++++",
"++++++++++++++++++++++++++++++++++++ooo++++++$$$$$$$$$$$$$$$$$$$$$$$$$$$$$$###@@@+++++++++++++++",
"++++++++++++++++++++++++$$$+++++++++ooo++++++   $$$$$$$$$$$$$$$$$$$$$$$$$$$###@@@+++++++++++++++",
"++++++++++++++++++++++++$$$+++++++++ooo++++++   $$$$$$$$$$$$$$$$$$$$$$$$$$$###@@@+++++++++++++++",
"++++++++++++++++++++++++$$$+++++++++ooo++++++   $$$$$$$$$$$$$$$$$$$$$$$$$$$###+++@@@++++++++++++",
"++++++++++++++++++++++++$$$$$$$$$$$$$$$$$$$$$$$$   $$$$$$$$$$$$$$$$$$$$$$$$###+++@@@ooo+++++++++",
"++++++++++++++++++++++++$$$$$$$$$$$$$$$$$$$$$$$$   $$$$$$$$$$$$$$$$$$$$$$$$###+++@@@ooo+++++++++",
"++++++++++++++++++++++++$$$$$$$$$$$$$$$$$$$$$$$$   $$$$$$$$$$$$$$$$$$$$$$$$###++++++ooo+++++++++",
"++++++++++++++++++++++++$$$$$$$$$$$$$$$$$$$$$$$$###   $$$$$$$$$$$$$$$$$$$$$###++++++ooo+++++++++",
"++++++++++++++++++++++++$$$$$$$$$$$$$$$$$$$$$$$$###   $$$$$$$$$$$$$$$$$$$$$###++++++ooo+++++++++",
"++++++++++++++++++++++++$$$$$$$$$$$$$$$$$$$$$$$$###   $$$$$$$$$$$$$$$$$$$$$###++++++ooo@@@@@@+++",
"++++++++++++++++++++++++$$$$$$$$$$$$$$$$$$$$$$$$###      ############$$$###+++ooooooooo@@@@@@+++",
"++++++++++++++++++++++++$$$$$$$$$$$$$$$$$$$$$$$$###      ############$$$###+++ooooooooo@@@@@@+++",
"++++++++++++++++++++++++$$$$$$$$$$$$$$$$$$$$$$$$###      ############$$$###+++ooooooooo++++++@@@",
"++++++++++++++++++++++++$$$$$$$$$$$$$$$$$$$$$$$$###++++++ooo+++@@@+++######oooOOOooo+++++++++@@@",
"++++++++++++++++++++++++$$$$$$$$$$$$$$$$$$$$$$$$###++++++ooo+++@@@+++######oooOOOooo+++++++++@@@",
"++++++++++++++++++++++++$$$$$$$$$$$$$$$$$$$$$$$$###++++++ooo+++++++++######oooOOOooo++++++++++++",
"++++++++++++++++++++++++$$$$$$$$$$$$$$$$$$$$$$$$###++++++ooo+++++++++oooOOOOOOOOOooo++++++++++++",
"++++++++++++++++++++++++$$$$$$$$$$$$$$$$$$$$$$$$###++++++ooo+++++++++oooOOOOOOOOOooo++++++++++++",
"++++++++++++++++++++++++$$$$$$$$$$$$$$$$$$$$$$$$###++++++ooo+++++++++oooOOOOOOOOOooo++++++++++++",
"++++++++++++++++++++++++###$$$$$$$$$$$$$$$$$$$$$###++++++ooo++++++ooooooOOOOOOOOOooo++++++++++++",
"++++++++++++++++++++++++###$$$$$$$$$$$$$$$$$$$$$###++++++ooo++++++ooooooOOOOOOOOOooo++++++++++++",
"++++++++++++++++++++++++###$$$$$$$$$$$$$$$$$$$$$###++++++ooo++++++ooooooOOOOOOOOOooo++++++++++++",
"+++++++++++++++++++++++++++########################++++++ooo++++++ooooooOOOOOOooo+++++++++++++++",
"+++++++++++++++++++++++++++########################++++++ooo++++++ooooooOOOOOOooo+++++++++++++++",
"+++++++++++++++@@@+++++++++########################++++++ooo++++++ooooooOOOOOOooo+++++++++++++++",
"+++++++++ooooooooo+++++++++++++++++++++++++++ooo+++++++++oooooooooOOOOOOOOOooo++++++++++++++++++",
"+++++++++ooooooooo+++++++++++++++++++++++++++ooo+++++++++oooooooooOOOOOOOOOooo++++++++++++++++++",
"+++++++++ooooooooo+++++++++++++++++++++++++++ooo+++++++++oooooooooOOOOOOOOOooo++++++++++++++++++",
"+++++++++++++++@@@oooooooooooooooooooooooooooooooooooooooOOOOOOOOOOOOOOOOOOooo++++++++++++++++++",
"+++++++++++++++@@@oooooooooooooooooooooooooooooooooooooooOOOOOOOOOOOOOOOOOOooo++++++++++++++++++",
"++++++++++++@@@+++oooooooooooooooooooooooooooooooooooooooOOOOOOOOOOOOOOOOOOooo++++++++++++++++++",
"++++++++++++@@@+++@@@ooooooOOOOOOOOOOOOOOOOOOOOOOOOOOOOOOOOOOOOOOOOOOoooooo+++++++++++++++++++++",
"++++++++++++@@@+++@@@ooooooOOOOOOOOOOOOOOOOOOOOOOOOOOOOOOOOOOOOOOOOOOoooooo+++++++++++++++++++++",
"+++++++++@@@+++++++++ooooooOOOOOOOOOOOOOOOOOOOOOOOOOOOOOOOOOOOOOOOOOOoooooo+++++++++++++++++++++",
"+++++++++@@@+++++++++@@@oooooooooOOOOOOOOOOOOOOOOOOOOOOOOOOOOOOOOOooo+++++++++++++++++++++++++++",
"+++++++++@@@+++++++++@@@oooooooooOOOOOOOOOOOOOOOOOOOOOOOOOOOOOOOOOooo+++++++++++++++++++++++++++",
"+++@@@@@@+++++++++++++++oooooooooOOOOOOOOOOOOOOOOOOOOOOOOOOOOOOOOOooo+++++++++++++++++++++++++++",
"+++@@@@@@+++++++++++++++@@@@@@+++oooooooooOOOOOOOOOOOOOOOoooooooooooo+++++++++++++++++++++++++++",
"+++@@@@@@+++++++++++++++@@@@@@+++oooooooooOOOOOOOOOOOOOOOoooooooooooo+++++++++++++++++++++++++++",
"@@@+++++++++++++++++++++++++++@@@oooooooooOOOOOOOOOOOOOOOoooooooooooo+++++++++++++++++++++++++++",
"@@@+++++++++++++++++++++++++++@@@+++++++++ooooooooooooooo+++@@@+++++++++++++++++++++++++++++++++",
"@@@+++++++++++++++++++++++++++@@@+++++++++ooooooooooooooo+++@@@+++++++++++++++++++++++++++++++++",
"++++++++++++++++++++++++++++++++++++++++++ooooooooooooooo+++++++++++++++++++++++++++++++++++++++",
"++++++++++++++++++++++++++++++++++++++++++ooooooooooooooo+++++++++++++++++++++++++++++++++++++++",
"++++++++++++++++++++++++++++++++++++++++++++++++++++++++++++++++++++++++++++++++++++++++++++++++",
"++++++++++++++++++++++++++++++++++++++++++++++++++++++++++++++++++++++++++++++++++++++++++++++++",
"++++++++++++++++++++++++++++++++++++++++++++++++++++++++++++++++++++++++++++++++++++++++++++++++",
"++++++++++++++++++++++++++++++++++++++++++++++++++++++++++++++++++++++++++++++++++++++++++++++++",
"++++++++++++++++++++++++++++++++++++++++++++++++++++++++++++++++++++++++++++++++++++++++++++++++",
"++++++++++++++++++++++++++++++++++++++++++++++++++++++++++++++++++++++++++++++++++++++++++++++++",
"++++++++++++++++++++++++++++++++++++++++++++++++++++++++++++++++++++++++++++++++++++++++++++++++",
"++++++++++++++++++++++++++++++++++++++++++++++++++++++++++++++++++++++++++++++++++++++++++++++++",
"++++++++++++++++++++++++++++++++++++++++++++++++++++++++++++++++++++++++++++++++++++++++++++++++",
"++++++++++++++++++++++++++++++++++++++++++++++++++++++++++++++++++++++++++++++++++++++++++++++++",
"++++++++++++++++++++++++++++++++++++++++++++++++++++++++++++++++++++++++++++++++++++++++++++++++",
"++++++++++++++++++++++++++++++++++++++++++++++++++++++++++++++++++++++++++++++++++++++++++++++++",
"++++++++++++++++++++++++++++++++++++++++++++++++++++++++++++++++++++++++++++++++++++++++++++++++",
"++++++++++++++++++++++++++++++++++++++++++++++++++++++++++++++++++++++++++++++++++++++++++++++++",
"++++++++++++++++++++++++++++++++++++++++++++++++++++++++++++++++++++++++++++++++++++++++++++++++",
"++++++++++++++++++++++++++++++++++++++++++++++++++++++++++++++++++++++++++++++++++++++++++++++++",
"++++++++++++++++++++++++++++++++++++++++++++++++++++++++++++++++++++++++++++++++++++++++++++++++",
"++++++++++++++++++++++++++++++++++++++++++++++++++++++++++++++++++++++++++++++++++++++++++++++++",
"++++++++++++++++++++++++++++++++++++++++++++++++++++++++++++++++++++++++++++++++++++++++++++++++"
};
