/* XPM */
static char *xpm_[] = {
/* columns rows colors chars-per-pixel */
"64 64 7 1 ",
"  c gray50",
". c #880015",
"X c #ED1C24",
"o c #00A2E8",
"O c #99D9EA",
"+ c #C3C3C3",
"@ c white",
/* pixels */
"oooooooooooooooooooooooooooooooooooooooooooooooooooooooooooooooo",
"oooooooooooooooooooooooooooooooooooooooooooooooooooooooooooooooo",
"oooooooooooooooooooooooooooooooooooooooooooooooooooooooooooooooo",
"oooooooooooooooooooooooooooooooooooooooooooooooooooooooooooooooo",
"oooooooooooooooooooooooooooooooooooooooooooooooooooooooooooooooo",
"oooooooooooooooooooooooooooooooooooooooooooooooooooooooooooooooo",
"ooooooooooooOOoooooooooooooooooooooooooooooooooooooooooooooooooo",
"ooooooooooooOOoooooooooooooooooooooooooooooooooooooooooooooooooo",
"ooooooooooooOOoooooooooooooooooooooooooooooooooooooooooooooooooo",
"ooooooooooooOOoooooooooooooooooooooooooooooooooooooooooooooooooo",
"ooooooooooOOooOOoooooooooooooooooooooooooooooooooooooooooooooooo",
"ooooooooooOOooOOoooooooooooooooooooooooooooooooooooooooooooooooo",
"ooooooooOOooooooOOoooooooooooooooooooooooooooooooooooooooooooooo",
"ooooooooOOooooooOOoooooooooooooooooooooooooooooooooooooooooooooo",
"ooooOOOOooooooooooOOOOoooooooooooooooooooooooooooooooooooooooooo",
"ooooOOOOooooooooooOOOOoooooooooooooooooooooooooooooooooooooooooo",
"ooOOooooooooooooooooooOOoooo  @@@@oooooooooooooooooooooooooooooo",
"ooOOooooooooooooooooooOOoooo  @@@@oooooooooooooooooooooooooooooo",
"oooooooooooooooooooooooooooo  @@@@@@@@@@oooooooooooooooooooooooo",
"oooooooooooooooooooooooooooo  @@@@@@@@@@oooooooooooooooooooooooo",
"oooooooooooooooooooooooooooo  @@@@@@@@@@@@ooooooooooOOoooooooooo",
"oooooooooooooooooooooooooooo  @@@@@@@@@@@@ooooooooooOOoooooooooo",
"oooooooooooooooooooooooooooo  ooOOooooooooooooooooooOOoooooooooo",
"oooooooooooooooooooooooooooo  ooOOooooooooooooooooooOOoooooooooo",
"oooooooooooooooooooooooooo@@  ++ooOOooooooooooooooOOooOOoooooooo",
"oooooooooooooooooooooooooo@@  ++ooOOooooooooooooooOOooOOoooooooo",
"oooooooooooooooooooooo@@@@@@  @@++++OOooooooooooOOooooooOOoooooo",
"oooooooooooooooooooooo@@@@@@  @@++++OOooooooooooOOooooooOOoooooo",
"oooooooooooooooooooooo@@@@@@@@@@@@++ooOOOOooOOOOooooooooooOOOOoo",
"oooooooooooooooooooooo@@@@@@@@@@@@++ooOOOOooOOOOooooooooooOOOOoo",
"oooooooooooooooooooo@@@@@@@@@@@@@@@@++ooooOOooooooooooooooooooOO",
"oooooooooooooooooooo@@@@@@@@@@@@@@@@++ooooOOooooooooooooooooooOO",
"ooooooooooooooooooooXXXX@@@@@@@@@@XX..oooooooooooooooooooooooooo",
"ooooooooooooooooooooXXXX@@@@@@@@@@XX..oooooooooooooooooooooooooo",
"ooooooooooooooooooooXXXXXXXX@@XXXXXX..oooooooooooooooooooooooooo",
"ooooooooooooooooooooXXXXXXXX@@XXXXXX..oooooooooooooooooooooooooo",
"ooooooooooooooooooooooXXXXXXXXXX....oooooooooooooooooooooooooooo",
"ooooooooooooooooooooooXXXXXXXXXX....oooooooooooooooooooooooooooo",
"ooooooooooOOooooooooooooooooooOOoooooooooooooooooooooooooooooooo",
"ooooooooooOOooooooooooooooooooOOoooooooooooooooooooooooooooooooo",
"ooooooooooOOooooooooooooooooooOOoooooooooooooooooooooooooooooooo",
"ooooooooooOOooooooooooooooooooOOoooooooooooooooooooooooooooooooo",
"ooooooooOOooOOooooooooooooooOOooOOoooooooooooooooooooooooooooooo",
"ooooooooOOooOOooooooooooooooOOooOOoooooooooooooooooooooooooooooo",
"ooooooOOooooooOOooooooooooOOooooooOOoooooooooooooooooooooooooooo",
"ooooooOOooooooOOooooooooooOOooooooOOoooooooooooooooooooooooooooo",
"ooOOOOooooooooooOOOOooOOOOooooooooooOOOOoooooooooooooooooooooooo",
"ooOOOOooooooooooOOOOooOOOOooooooooooOOOOoooooooooooooooooooooooo",
"OOooooooooooooooooooOOooooooooooooooooooOOoooooooooooooooooooooo",
"OOooooooooooooooooooOOooooooooooooooooooOOoooooooooooooooooooooo",
"oooooooooooooooooooooooooooooooooooooooooooooooooooooooooooooooo",
"oooooooooooooooooooooooooooooooooooooooooooooooooooooooooooooooo",
"oooooooooooooooooooooooooooooooooooooooooooooooooooooooooooooooo",
"oooooooooooooooooooooooooooooooooooooooooooooooooooooooooooooooo",
"oooooooooooooooooooooooooooooooooooooooooooooooooooooooooooooooo",
"oooooooooooooooooooooooooooooooooooooooooooooooooooooooooooooooo",
"oooooooooooooooooooooooooooooooooooooooooooooooooooooooooooooooo",
"oooooooooooooooooooooooooooooooooooooooooooooooooooooooooooooooo",
"oooooooooooooooooooooooooooooooooooooooooooooooooooooooooooooooo",
"oooooooooooooooooooooooooooooooooooooooooooooooooooooooooooooooo",
"oooooooooooooooooooooooooooooooooooooooooooooooooooooooooooooooo",
"oooooooooooooooooooooooooooooooooooooooooooooooooooooooooooooooo",
"oooooooooooooooooooooooooooooooooooooooooooooooooooooooooooooooo",
"oooooooooooooooooooooooooooooooooooooooooooooooooooooooooooooooo"
};
