/* XPM */
static char *xpm_[] = {
/* columns rows colors chars-per-pixel */
"96 96 7 1 ",
"  c gray50",
". c #880015",
"X c #ED1C24",
"o c #00A2E8",
"O c #99D9EA",
"+ c #C3C3C3",
"@ c white",
/* pixels */
"oooooooooooooooooooooooooooooooooooooooooooooooooooooooooooooooooooooooooooooooooooooooooooooooo",
"oooooooooooooooooooooooooooooooooooooooooooooooooooooooooooooooooooooooooooooooooooooooooooooooo",
"oooooooooooooooooooooooooooooooooooooooooooooooooooooooooooooooooooooooooooooooooooooooooooooooo",
"oooooooooooooooooooooooooooooooooooooooooooooooooooooooooooooooooooooooooooooooooooooooooooooooo",
"oooooooooooooooooooooooooooooooooooooooooooooooooooooooooooooooooooooooooooooooooooooooooooooooo",
"oooooooooooooooooooooooooooooooooooooooooooooooooooooooooooooooooooooooooooooooooooooooooooooooo",
"oooooooooooooooooooooooooooooooooooooooooooooooooooooooooooooooooooooooooooooooooooooooooooooooo",
"oooooooooooooooooooooooooooooooooooooooooooooooooooooooooooooooooooooooooooooooooooooooooooooooo",
"oooooooooooooooooooooooooooooooooooooooooooooooooooooooooooooooooooooooooooooooooooooooooooooooo",
"ooooooooooooooooooOOOooooooooooooooooooooooooooooooooooooooooooooooooooooooooooooooooooooooooooo",
"ooooooooooooooooooOOOooooooooooooooooooooooooooooooooooooooooooooooooooooooooooooooooooooooooooo",
"ooooooooooooooooooOOOooooooooooooooooooooooooooooooooooooooooooooooooooooooooooooooooooooooooooo",
"ooooooooooooooooooOOOooooooooooooooooooooooooooooooooooooooooooooooooooooooooooooooooooooooooooo",
"ooooooooooooooooooOOOooooooooooooooooooooooooooooooooooooooooooooooooooooooooooooooooooooooooooo",
"ooooooooooooooooooOOOooooooooooooooooooooooooooooooooooooooooooooooooooooooooooooooooooooooooooo",
"oooooooooooooooOOOoooOOOoooooooooooooooooooooooooooooooooooooooooooooooooooooooooooooooooooooooo",
"oooooooooooooooOOOoooOOOoooooooooooooooooooooooooooooooooooooooooooooooooooooooooooooooooooooooo",
"oooooooooooooooOOOoooOOOoooooooooooooooooooooooooooooooooooooooooooooooooooooooooooooooooooooooo",
"ooooooooooooOOOoooooooooOOOooooooooooooooooooooooooooooooooooooooooooooooooooooooooooooooooooooo",
"ooooooooooooOOOoooooooooOOOooooooooooooooooooooooooooooooooooooooooooooooooooooooooooooooooooooo",
"ooooooooooooOOOoooooooooOOOooooooooooooooooooooooooooooooooooooooooooooooooooooooooooooooooooooo",
"ooooooOOOOOOoooooooooooooooOOOOOOooooooooooooooooooooooooooooooooooooooooooooooooooooooooooooooo",
"ooooooOOOOOOoooooooooooooooOOOOOOooooooooooooooooooooooooooooooooooooooooooooooooooooooooooooooo",
"ooooooOOOOOOoooooooooooooooOOOOOOooooooooooooooooooooooooooooooooooooooooooooooooooooooooooooooo",
"oooOOOoooooooooooooooooooooooooooOOOoooooooooooooooooooooooooooooooooooooooooooooooooooooooooooo",
"oooOOOoooooooooooooooooooooooooooOOOoooooooooo   @@@@@@ooooooooooooooooooooooooooooooooooooooooo",
"oooOOOoooooooooooooooooooooooooooOOOoooooooooo   @@@@@@ooooooooooooooooooooooooooooooooooooooooo",
"oooooooooooooooooooooooooooooooooooooooooooooo   @@@@@@ooooooooooooooooooooooooooooooooooooooooo",
"oooooooooooooooooooooooooooooooooooooooooooooo   @@@@@@@@@@@@@@@oooooooooooooooooooooooooooooooo",
"oooooooooooooooooooooooooooooooooooooooooooooo   @@@@@@@@@@@@@@@oooooooooooooooooooooooooooooooo",
"oooooooooooooooooooooooooooooooooooooooooooooo   @@@@@@@@@@@@@@@ooooooooooooooOOOooooooooooooooo",
"oooooooooooooooooooooooooooooooooooooooooooooo   @@@@@@@@@@@@@@@@@@@ooooooooooOOOooooooooooooooo",
"oooooooooooooooooooooooooooooooooooooooooooooo   @@@@@@@@@@@@@@@@@@@ooooooooooOOOooooooooooooooo",
"oooooooooooooooooooooooooooooooooooooooooooooo   @@@@@@@@@@@@@@@@@@@ooooooooooOOOooooooooooooooo",
"oooooooooooooooooooooooooooooooooooooooooooooo   OOoooooooooooooooooooooooooooOOOooooooooooooooo",
"oooooooooooooooooooooooooooooooooooooooooooooo   OOoooooooooooooooooooooooooooOOOooooooooooooooo",
"oooooooooooooooooooooooooooooooooooooooooooooO   ooOOOoooooooooooooooooooooOOOoooOOOoooooooooooo",
"ooooooooooooooooooooooooooooooooooooooooooo@@@   +++OOoooooooooooooooooooooOOOoooOOOoooooooooooo",
"ooooooooooooooooooooooooooooooooooooooooooo@@@   +++OOoooooooooooooooooooooOOOoooOOOoooooooooooo",
"ooooooooooooooooooooooooooooooooooooooooooO@@@   +++ooOOOoooooooooooooooOOOoooooooooOOOooooooooo",
"ooooooooooooooooooooooooooooooooooooo@@@@@@@@@   @@@++++++ooooooooooooooOOOoooooooooOOOooooooooo",
"ooooooooooooooooooooooooooooooooooooo@@@@@@@@@   @@@++++++ooooooooooooooOOOoooooooooOOOooooooooo",
"ooooooooooooooooooooooooooooooooooooO@@@@@@@@@   @@@++++++OOOOOoooOOOOOOoooooooooooooooOOOOOOooo",
"ooooooooooooooooooooooooooooooooooooO@@@@@@@@@@@@@@@@@@+++OOOOOoooOOOOOOoooooooooooooooOOOOOOooo",
"ooooooooooooooooooooooooooooooooooooO@@@@@@@@@@@@@@@@@@+++OOOOOoooOOOOOOoooooooooooooooOOOOOOooo",
"oooooooooooooooooooooooooooooooooOOOo@@@@@@@@@@@@@@@@@@+++oooooOOOoooooooooooooooooooooooooooOOO",
"oooooooooooooooooooooooooooooooooO@@@@@@@@@@@@@@@@@@@@@@@@+++ooOOOoooooooooooooooooooooooooooOOO",
"oooooooooooooooooooooooooooooooooO@@@@@@@@@@@@@@@@@@@@@@@@+++ooOOOoooooooooooooooooooooooooooOOO",
"oooooooooooooooooooooooooooooooooo@@@@@@@@@@@@@@@@@@@@@@@@+++ooooooooooooooooooooooooooooooooooo",
"ooooooooooooooooooooooooooooooooooXXXXXX@@@@@@@@@@@@@@@XXX...ooooooooooooooooooooooooooooooooooo",
"ooooooooooooooooooooooooooooooooooXXXXXX@@@@@@@@@@@@@@@XXX...ooooooooooooooooooooooooooooooooooo",
"ooooooooooooooooooooooooooooooooooXXXXXX@@@@@@@@@@@@@@@XXX...ooooooooooooooooooooooooooooooooooo",
"ooooooooooooooooooooooooooooooooooXXXXXXXXXXXX@@@XXXXXXXXX...ooooooooooooooooooooooooooooooooooo",
"ooooooooooooooooooooooooooooooooooXXXXXXXXXXXX@@@XXXXXXXXX...ooooooooooooooooooooooooooooooooooo",
"ooooooooooooooooooooooooooooooooooXXXXXXXXXXXX@@@XXXXXXXXX...ooooooooooooooooooooooooooooooooooo",
"oooooooooooooooooooooooooooooooooooooXXXXXXXXXXXXXXX......oooooooooooooooooooooooooooooooooooooo",
"oooooooooooooooooooooooooooooooooooooXXXXXXXXXXXXXXX......oooooooooooooooooooooooooooooooooooooo",
"oooooooooooooooOOOoooooooooooooooooooXXXXXXXXXXXXXXX......oooooooooooooooooooooooooooooooooooooo",
"oooooooooooooooOOOoooooooooooooooooooXXXXXXXXXXXXXXX......oooooooooooooooooooooooooooooooooooooo",
"oooooooooooooooOOOoooooooooooooooooooooooooooOOOoooooooooooooooooooooooooooooooooooooooooooooooo",
"oooooooooooooooOOOoooooooooooooooooooooooooooOOOoooooooooooooooooooooooooooooooooooooooooooooooo",
"oooooooooooooooOOOoooooooooooooooooooooooooooOOOoooooooooooooooooooooooooooooooooooooooooooooooo",
"oooooooooooooooOOOoooooooooooooooooooooooooooOOOoooooooooooooooooooooooooooooooooooooooooooooooo",
"ooooooooooooOOOoooOOOoooooooooooooooooooooOOOoooOOOooooooooooooooooooooooooooooooooooooooooooooo",
"ooooooooooooOOOoooOOOoooooooooooooooooooooOOOoooOOOooooooooooooooooooooooooooooooooooooooooooooo",
"ooooooooooooOOOoooOOOoooooooooooooooooooooOOOoooOOOooooooooooooooooooooooooooooooooooooooooooooo",
"oooooooooOOOoooooooooOOOoooooooooooooooOOOoooooooooOOOoooooooooooooooooooooooooooooooooooooooooo",
"oooooooooOOOoooooooooOOOoooooooooooooooOOOoooooooooOOOoooooooooooooooooooooooooooooooooooooooooo",
"oooooooooOOOoooooooooOOOoooooooooooooooOOOoooooooooOOOoooooooooooooooooooooooooooooooooooooooooo",
"oooOOOOOOoooooooooooooooOOOOOOoooOOOOOOoooooooooooooooOOOOOOoooooooooooooooooooooooooooooooooooo",
"oooOOOOOOoooooooooooooooOOOOOOoooOOOOOOoooooooooooooooOOOOOOoooooooooooooooooooooooooooooooooooo",
"oooOOOOOOoooooooooooooooOOOOOOoooOOOOOOoooooooooooooooOOOOOOoooooooooooooooooooooooooooooooooooo",
"OOOoooooooooooooooooooooooooooOOOoooooooooooooooooooooooooooOOOooooooooooooooooooooooooooooooooo",
"OOOoooooooooooooooooooooooooooOOOoooooooooooooooooooooooooooOOOooooooooooooooooooooooooooooooooo",
"OOOoooooooooooooooooooooooooooOOOoooooooooooooooooooooooooooOOOooooooooooooooooooooooooooooooooo",
"oooooooooooooooooooooooooooooooooooooooooooooooooooooooooooooooooooooooooooooooooooooooooooooooo",
"oooooooooooooooooooooooooooooooooooooooooooooooooooooooooooooooooooooooooooooooooooooooooooooooo",
"oooooooooooooooooooooooooooooooooooooooooooooooooooooooooooooooooooooooooooooooooooooooooooooooo",
"oooooooooooooooooooooooooooooooooooooooooooooooooooooooooooooooooooooooooooooooooooooooooooooooo",
"oooooooooooooooooooooooooooooooooooooooooooooooooooooooooooooooooooooooooooooooooooooooooooooooo",
"oooooooooooooooooooooooooooooooooooooooooooooooooooooooooooooooooooooooooooooooooooooooooooooooo",
"oooooooooooooooooooooooooooooooooooooooooooooooooooooooooooooooooooooooooooooooooooooooooooooooo",
"oooooooooooooooooooooooooooooooooooooooooooooooooooooooooooooooooooooooooooooooooooooooooooooooo",
"oooooooooooooooooooooooooooooooooooooooooooooooooooooooooooooooooooooooooooooooooooooooooooooooo",
"oooooooooooooooooooooooooooooooooooooooooooooooooooooooooooooooooooooooooooooooooooooooooooooooo",
"oooooooooooooooooooooooooooooooooooooooooooooooooooooooooooooooooooooooooooooooooooooooooooooooo",
"oooooooooooooooooooooooooooooooooooooooooooooooooooooooooooooooooooooooooooooooooooooooooooooooo",
"oooooooooooooooooooooooooooooooooooooooooooooooooooooooooooooooooooooooooooooooooooooooooooooooo",
"oooooooooooooooooooooooooooooooooooooooooooooooooooooooooooooooooooooooooooooooooooooooooooooooo",
"oooooooooooooooooooooooooooooooooooooooooooooooooooooooooooooooooooooooooooooooooooooooooooooooo",
"oooooooooooooooooooooooooooooooooooooooooooooooooooooooooooooooooooooooooooooooooooooooooooooooo",
"oooooooooooooooooooooooooooooooooooooooooooooooooooooooooooooooooooooooooooooooooooooooooooooooo",
"oooooooooooooooooooooooooooooooooooooooooooooooooooooooooooooooooooooooooooooooooooooooooooooooo",
"oooooooooooooooooooooooooooooooooooooooooooooooooooooooooooooooooooooooooooooooooooooooooooooooo",
"oooooooooooooooooooooooooooooooooooooooooooooooooooooooooooooooooooooooooooooooooooooooooooooooo",
"oooooooooooooooooooooooooooooooooooooooooooooooooooooooooooooooooooooooooooooooooooooooooooooooo"
};
