/* XPM */
static char *xpm_[] = {
/* columns rows colors chars-per-pixel */
"64 64 20 1 ",
"  c black",
". c gray15",
"X c #10264B",
"o c #14294E",
"O c #2C4060",
"+ c #304363",
"@ c gray26",
"# c #585858",
"$ c gray42",
"% c gray49",
"& c #8D8D8D",
"* c gray61",
"= c #AAAAAA",
"- c gray72",
"; c #C5C5C5",
": c gray82",
"> c #DDDDDD",
", c #E9E9E9",
"< c #F4F4F4",
"1 c white",
/* pixels */
"XXXXXXXXXXXXXXXXXXXXXXXXXXXXXXXXXXXXXXXXXXXXXXXXXXXXXXXXXXXXXXXX",
"XXXXXXXXXXXXXXXXXXXXXXXXXXXXXXXXXXXXXXXXXXXXXXXXXXXXXXXXXXXXXXXX",
"XXXXXXXXXXXXXXXXXXXXXXXXXXXXXXXXXXXXXXXXXXXXXXXXXXXXXXXXXXXXXXXX",
"XXXXXXXXXXXXXXXXXXXXXXXXXXXXXXXXXXXXXXXXXXXXXXXXXXXXXXXXXXXXXXXX",
"XXXXXXXXXXXXXXXXXXXXXXXXXXXXXXXXXXXXXXXXXXXXXXXXXXXXXXXXXXXXXXXX",
"XXXXXXXXXXXXXXXXXXXXXXXXXXXXXXXXXXXXXXXXXXXXXXXXXXXXXXXXXXXXXXXX",
"XXXXXXo++++++++++++++++++++++++++++++++++++++++++++++++++oXXXXXX",
"XXXXXXO11111111111111111111111111111111111111111111111111OXXXXXX",
"XXXXXXO11111111111111111111111111111111111111111111111111OXXXXXX",
"XXXXXXO11111111111111111111111111111111111111111111111111OXXXXXX",
"XXXXXXO11111111111111111111111111111111111111111111111111OXXXXXX",
"XXXXXXO11111111111111111111111111111111111111111111111111OXXXXXX",
"XXXXXXO11111111111111111111111111111111111111111111111111OXXXXXX",
"XXXXXXO1111111111111111111111==.     &=:11111&=1111111111OXXXXXX",
"XXXXXXO1111111111111111111;$             =>1; =1111111111OXXXXXX",
"XXXXXXO11111111111111111:#    &=11111=*       *1111111111OXXXXXX",
"XXXXXXO1111111111111111*    &<1111111111*     &1111111111OXXXXXX",
"XXXXXXO111111111111111$   .:1111111111111>@   %1111111111OXXXXXX",
"XXXXXXO11111111111111$    >111111111111111,@  $1111111111OXXXXXX",
"XXXXXXO1111111111111%    -11111111111111111>  @1111111111OXXXXXX",
"XXXXXXO111111111111=    $1111111111111111111= @1111111111OXXXXXX",
"XXXXXXO11111111111,.    >1111111111111111111<. 1111111111OXXXXXX",
"XXXXXXO11111111111&    $111111111111111111111= <111111111OXXXXXX",
"XXXXXXO1111111111,     ;111111111111111111111, ,111111111OXXXXXX",
"XXXXXXO1111111111*     <1111111111111111111111$>111111111OXXXXXX",
"XXXXXXO1111111111.    #1111111111111111111111111111111111OXXXXXX",
"XXXXXXO111111111:     *1111111111111111111111111111111111OXXXXXX",
"XXXXXXO111111111*     -1111111111111111111111111111111111OXXXXXX",
"XXXXXXO111111111%     :1111111111111111111111111111111111OXXXXXX",
"XXXXXXO111111111@     ,1111111111111111111111111111111111OXXXXXX",
"XXXXXXO111111111      <1111111111111111111111111111111111OXXXXXX",
"XXXXXXO11111111<      11111111111111111111111111111111111OXXXXXX",
"XXXXXXO11111111,      11111111111111111111111111111111111OXXXXXX",
"XXXXXXO11111111<      11111111111111111111111111111111111OXXXXXX",
"XXXXXXO111111111      11111111111111111111111111111111111OXXXXXX",
"XXXXXXO111111111@     ,1111111111111111111111111111111111OXXXXXX",
"XXXXXXO111111111$     >1111111111111111111111111111111111OXXXXXX",
"XXXXXXO111111111*     -1111111111111111111111111111111111OXXXXXX",
"XXXXXXO111111111;     *1111111111111111111111111111111111OXXXXXX",
"XXXXXXO1111111111.    #1111111111111111111111111111111111OXXXXXX",
"XXXXXXO1111111111*     >111111111111111111111111111111111OXXXXXX",
"XXXXXXO1111111111,     *111111111111111111111111111111111OXXXXXX",
"XXXXXXO11111111111&    .<111111111111111111111<$<11111111OXXXXXX",
"XXXXXXO11111111111<.    &111111111111111111111#;111111111OXXXXXX",
"XXXXXXO111111111111;     ;1111111111111111111%*1111111111OXXXXXX",
"XXXXXXO1111111111111=     :11111111111111111%#11111111111OXXXXXX",
"XXXXXXO11111111111111=     =11111111111111<$#<11111111111OXXXXXX",
"XXXXXXO111111111111111=     $:11111111111-.$<111111111111OXXXXXX",
"XXXXXXO1111111111111111>#     @=;11111==  =11111111111111OXXXXXX",
"XXXXXXO111111111111111111;#             *,111111111111111OXXXXXX",
"XXXXXXO11111111111111111111<==.     #=-111111111111111111OXXXXXX",
"XXXXXXO11111111111111111111111111111111111111111111111111OXXXXXX",
"XXXXXXO11111111111111111111111111111111111111111111111111OXXXXXX",
"XXXXXXO11111111111111111111111111111111111111111111111111OXXXXXX",
"XXXXXXO11111111111111111111111111111111111111111111111111OXXXXXX",
"XXXXXXO11111111111111111111111111111111111111111111111111OXXXXXX",
"XXXXXXO11111111111111111111111111111111111111111111111111OXXXXXX",
"XXXXXXo++++++++++++++++++++++++++++++++++++++++++++++++++oXXXXXX",
"XXXXXXXXXXXXXXXXXXXXXXXXXXXXXXXXXXXXXXXXXXXXXXXXXXXXXXXXXXXXXXXX",
"XXXXXXXXXXXXXXXXXXXXXXXXXXXXXXXXXXXXXXXXXXXXXXXXXXXXXXXXXXXXXXXX",
"XXXXXXXXXXXXXXXXXXXXXXXXXXXXXXXXXXXXXXXXXXXXXXXXXXXXXXXXXXXXXXXX",
"XXXXXXXXXXXXXXXXXXXXXXXXXXXXXXXXXXXXXXXXXXXXXXXXXXXXXXXXXXXXXXXX",
"XXXXXXXXXXXXXXXXXXXXXXXXXXXXXXXXXXXXXXXXXXXXXXXXXXXXXXXXXXXXXXXX",
"XXXXXXXXXXXXXXXXXXXXXXXXXXXXXXXXXXXXXXXXXXXXXXXXXXXXXXXXXXXXXXXX"
};
