/* XPM */
static char *xpm_[] = {
/* columns rows colors chars-per-pixel */
"64 64 5 1 ",
"  c #5B5B5B",
". c gray50",
"X c #00A2E8",
"o c #99D9EA",
"O c #C3C3C3",
/* pixels */
"XXXXXXXXXXXXXXXXXXXXXXXXXXXXXXXXXXXXXXXXXXXXXXXXXXXXXXXXXXXXXXXX",
"XXXXXXXXXXXXXXXXXXXXXXXXXXXXXXXXXXXXXXXXXXXXXXXXXXXXXXXXXXXXXXXX",
"XXXXXXXXXXXXXXXXXXXXXXXXXXXXXXXXXXXXXXXXXXXXXXXXXXXXXXXXXXXXXXXX",
"XXXXXXXXXXXXXXXXXXXXXXXXXXXXXXXXXXXXXXXXXXXXXXXXXXXXXXXXXXXXXXXX",
"XXXXXXXXXXXXXXXXXXXXXXXXXXXXXXXXXXXXXXXXXXXXXXXXXXXXXXXXXXXXXXXX",
"XXXXXXXXXXXXXXXXXXXXXXXXXXXXXXXXXXXXXXXXXXXXXXXXXXXXXXXXXXXXXXXX",
"XXXXXXXXXXXXooXXXXXXXXXXXXXXXXXXXXXXXXXXXXXXXXXXXXXXXXXXXXXXXXXX",
"XXXXXXXXXXXXooXXXXXXXXXXXXXXXXXXXXXXXXXXXXXXXXXXXXXXXXXXXXXXXXXX",
"XXXXXXXXXXXXooXXXXXXXXXXXXXXXXXXXXXXXXXXXXXXXXXXXXXXXXXXXXXXXXXX",
"XXXXXXXXXXXXooXXXXXXXXXXXXXXXXXXXXXXXXXXXXXXXXXXXXXXXXXXXXXXXXXX",
"XXXXXXXXXXooXXooXXXXXXXXXX........XXXXXXXXXXXXXXXXXXXXXXXXXXXXXX",
"XXXXXXXXXXooXXooXXXXXXXXXX........XXXXXXXXXXXXXXXXXXXXXXXXXXXXXX",
"XXXXXXXXooXXXXXXooXXXX........OO....XXXXXXXXXXXXXXXXXXXXXXXXXXXX",
"XXXXXXXXooXXXXXXooXXXX........OO....XXXXXXXXXXXXXXXXXXXXXXXXXXXX",
"XXXXooooXXXXXXXXXXoo......OOOOOOOO....XXXXXXXXXXXXXXXXXXXXXXXXXX",
"XXXXooooXXXXXXXXXXoo......OOOOOOOO....XXXXXXXXXXXXXXXXXXXXXXXXXX",
"XXooXXXXXXXXXXXXXXXX..OOOOOOOOOOOOOO....XXXXXXXXXXXXXXXXXXXXXXXX",
"XXooXXXXXXXXXXXXXXXX..OOOOOOOOOOOOOO....XXXXXXXXXXXXXXXXXXXXXXXX",
"XXXXXXXXXXXXXXXX......OOOOOOOOOOOOOO    XXXXXXXXXXXXXXXXXXXXXXXX",
"XXXXXXXXXXXXXXXX......OOOOOOOOOOOOOO    XXXXXXXXXXXXXXXXXXXXXXXX",
"XXXXXXXX    ........OOOOOOOOOO..      OOXXXXXXXXXXXXooXXXXXXXXXX",
"XXXXXXXX    ........OOOOOOOOOO..      OOXXXXXXXXXXXXooXXXXXXXXXX",
"XXXXXX          OOOOOOOOOO......  OOOOOOXXXXXXXXXXXXooXXXXXXXXXX",
"XXXXXX          OOOOOOOOOO......  OOOOOOXXXXXXXXXXXXooXXXXXXXXXX",
"XXXXXX  OO....    OOOOOO....    OOOOOOOOOOXXXXXXXXooXXooXXXXXXXX",
"XXXXXX  OO....    OOOOOO....    OOOOOOOOOOXXXXXXXXooXXooXXXXXXXX",
"XXXXXXOOOO........  OO....    OOOOOOOOOOOOXXXXXXooXXXXXXooXXXXXX",
"XXXXXXOOOO........  OO....    OOOOOOOOOOOOXXXXXXooXXXXXXooXXXXXX",
"XXXXXXOOOO....OO..  ....    ....OOOOOOOOOO  ooooXXXXXXXXXXooooXX",
"XXXXXXOOOO....OO..  ....    ....OOOOOOOOOO  ooooXXXXXXXXXXooooXX",
"XXXXOOOOOOOOOOOOOO      ..........OOOOOOOO      XXXXXXXXXXXXXXoo",
"XXXXOOOOOOOOOOOOOO      ..........OOOOOOOO      XXXXXXXXXXXXXXoo",
"XXXXOOOOOOOOOOOOOO..  ..OOOOOO....OOOOOOOO        XXXXXXXXXXXXXX",
"XXXXOOOOOOOOOOOOOO..  ..OOOOOO....OOOOOOOO        XXXXXXXXXXXXXX",
"XXXXOOOOOOOOOOOOOO..  ..OOOOOO..  OOOOOO......      XXXXXXXXXXXX",
"XXXXOOOOOOOOOOOOOO..  ..OOOOOO..  OOOOOO......      XXXXXXXXXXXX",
"XXXXOOOOOOOOOOOO..  ..OOOOOOOOOO..  OOOO........    XXXXXXXXXXXX",
"XXXXOOOOOOOOOOOO..  ..OOOOOOOOOO..  OOOO........    XXXXXXXXXXXX",
"XX..OOOOOOOOOOOO..  ..OOOOOOOOOOOO..  ........      XXXXXXXXXXXX",
"XX..OOOOOOOOOOOO..  ..OOOOOOOOOOOO..  ........      XXXXXXXXXXXX",
"XX..OOOOOOOOOOOO..  OOOOOOOOOOOOOO............      XXXXXXXXXXXX",
"XX..OOOOOOOOOOOO..  OOOOOOOOOOOOOO............      XXXXXXXXXXXX",
"....OOOOOOOOOO..  OOOOOOOOOOOOOOOO..........          XXXXXXXXXX",
"....OOOOOOOOOO..  OOOOOOOOOOOOOOOO..........          XXXXXXXXXX",
"......OOOOOO....  OOOOOOOOOOOOOOOO..    ..            XXXXXXXXXX",
"......OOOOOO....  OOOOOOOOOOOOOOOO..    ..            XXXXXXXXXX",
"XX  ....OO......  OOOOOOOOOOOOOOOO......                XXXXXXXX",
"XX  ....OO......  OOOOOOOOOOOOOOOO......                XXXXXXXX",
"ooXX              ......OOOOOOOO......              XXXXXXXXXXXX",
"ooXX              ......OOOOOOOO......              XXXXXXXXXXXX",
"XXXXXX    XXXXXXXX      ............            XXXXXXXXXXXXXXXX",
"XXXXXX    XXXXXXXX      ............            XXXXXXXXXXXXXXXX",
"XXXXXXXXXXXXXXXXXXXXXXXX    ..              XXXXXXXXXXXXXXXXXXXX",
"XXXXXXXXXXXXXXXXXXXXXXXX    ..              XXXXXXXXXXXXXXXXXXXX",
"XXXXXXXXXXXXXXXXXXXXXXXXXXXX            XXXXXXXXXXXXXXXXXXXXXXXX",
"XXXXXXXXXXXXXXXXXXXXXXXXXXXX            XXXXXXXXXXXXXXXXXXXXXXXX",
"XXXXXXXXXXXXXXXXXXXXXXXXXXXXXXXX    XXXXXXXXXXXXXXXXXXXXXXXXXXXX",
"XXXXXXXXXXXXXXXXXXXXXXXXXXXXXXXX    XXXXXXXXXXXXXXXXXXXXXXXXXXXX",
"XXXXXXXXXXXXXXXXXXXXXXXXXXXXXXXXXXXXXXXXXXXXXXXXXXXXXXXXXXXXXXXX",
"XXXXXXXXXXXXXXXXXXXXXXXXXXXXXXXXXXXXXXXXXXXXXXXXXXXXXXXXXXXXXXXX",
"XXXXXXXXXXXXXXXXXXXXXXXXXXXXXXXXXXXXXXXXXXXXXXXXXXXXXXXXXXXXXXXX",
"XXXXXXXXXXXXXXXXXXXXXXXXXXXXXXXXXXXXXXXXXXXXXXXXXXXXXXXXXXXXXXXX",
"XXXXXXXXXXXXXXXXXXXXXXXXXXXXXXXXXXXXXXXXXXXXXXXXXXXXXXXXXXXXXXXX",
"XXXXXXXXXXXXXXXXXXXXXXXXXXXXXXXXXXXXXXXXXXXXXXXXXXXXXXXXXXXXXXXX"
};
