/* XPM */
static char *xpm_[] = {
/* columns rows colors chars-per-pixel */
"96 96 5 1 ",
"  c #5B5B5B",
". c gray50",
"X c #00A2E8",
"o c #99D9EA",
"O c #C3C3C3",
/* pixels */
"XXXXXXXXXXXXXXXXXXXXXXXXXXXXXXXXXXXXXXXXXXXXXXXXXXXXXXXXXXXXXXXXXXXXXXXXXXXXXXXXXXXXXXXXXXXXXXXX",
"XXXXXXXXXXXXXXXXXXXXXXXXXXXXXXXXXXXXXXXXXXXXXXXXXXXXXXXXXXXXXXXXXXXXXXXXXXXXXXXXXXXXXXXXXXXXXXXX",
"XXXXXXXXXXXXXXXXXXXXXXXXXXXXXXXXXXXXXXXXXXXXXXXXXXXXXXXXXXXXXXXXXXXXXXXXXXXXXXXXXXXXXXXXXXXXXXXX",
"XXXXXXXXXXXXXXXXXXXXXXXXXXXXXXXXXXXXXXXXXXXXXXXXXXXXXXXXXXXXXXXXXXXXXXXXXXXXXXXXXXXXXXXXXXXXXXXX",
"XXXXXXXXXXXXXXXXXXXXXXXXXXXXXXXXXXXXXXXXXXXXXXXXXXXXXXXXXXXXXXXXXXXXXXXXXXXXXXXXXXXXXXXXXXXXXXXX",
"XXXXXXXXXXXXXXXXXXXXXXXXXXXXXXXXXXXXXXXXXXXXXXXXXXXXXXXXXXXXXXXXXXXXXXXXXXXXXXXXXXXXXXXXXXXXXXXX",
"XXXXXXXXXXXXXXXXXXXXXXXXXXXXXXXXXXXXXXXXXXXXXXXXXXXXXXXXXXXXXXXXXXXXXXXXXXXXXXXXXXXXXXXXXXXXXXXX",
"XXXXXXXXXXXXXXXXXXXXXXXXXXXXXXXXXXXXXXXXXXXXXXXXXXXXXXXXXXXXXXXXXXXXXXXXXXXXXXXXXXXXXXXXXXXXXXXX",
"XXXXXXXXXXXXXXXXXXXXXXXXXXXXXXXXXXXXXXXXXXXXXXXXXXXXXXXXXXXXXXXXXXXXXXXXXXXXXXXXXXXXXXXXXXXXXXXX",
"XXXXXXXXXXXXXXXXXXoooXXXXXXXXXXXXXXXXXXXXXXXXXXXXXXXXXXXXXXXXXXXXXXXXXXXXXXXXXXXXXXXXXXXXXXXXXXX",
"XXXXXXXXXXXXXXXXXXoooXXXXXXXXXXXXXXXXXXXXXXXXXXXXXXXXXXXXXXXXXXXXXXXXXXXXXXXXXXXXXXXXXXXXXXXXXXX",
"XXXXXXXXXXXXXXXXXXoooXXXXXXXXXXXXXXXXXXXXXXXXXXXXXXXXXXXXXXXXXXXXXXXXXXXXXXXXXXXXXXXXXXXXXXXXXXX",
"XXXXXXXXXXXXXXXXXXoooXXXXXXXXXXXXXXXXXXXXXXXX............XXXXXXXXXXXXXXXXXXXXXXXXXXXXXXXXXXXXXXX",
"XXXXXXXXXXXXXXXXXXoooXXXXXXXXXXXXXXXXXXXXXXXX............XXXXXXXXXXXXXXXXXXXXXXXXXXXXXXXXXXXXXXX",
"XXXXXXXXXXXXXXXXXXoooXXXXXXXXXXXXXXXXXXXXXXXX............XXXXXXXXXXXXXXXXXXXXXXXXXXXXXXXXXXXXXXX",
"XXXXXXXXXXXXXXXoooXXXoooXXXXXXXXXXXXXXX............OOO......XXXXXXXXXXXXXXXXXXXXXXXXXXXXXXXXXXXX",
"XXXXXXXXXXXXXXXoooXXXoooXXXXXXXXXXXXXXX............OOO......XXXXXXXXXXXXXXXXXXXXXXXXXXXXXXXXXXXX",
"XXXXXXXXXXXXXXXoooXXXoooXXXXXXXXXXXXXXX............OOO......XXXXXXXXXXXXXXXXXXXXXXXXXXXXXXXXXXXX",
"XXXXXXXXXXXXoooXXXXXXXXXoooXXXXXXXXX.........OOOOOOOOOOOO......XXXXXXXXXXXXXXXXXXXXXXXXXXXXXXXXX",
"XXXXXXXXXXXXoooXXXXXXXXXoooXXXXXXXXX.........OOOOOOOOOOOO......XXXXXXXXXXXXXXXXXXXXXXXXXXXXXXXXX",
"XXXXXXXXXXXXoooXXXXXXXXXoooXXXXXXXXX.........OOOOOOOOOOOO......XXXXXXXXXXXXXXXXXXXXXXXXXXXXXXXXX",
"XXXXXXooooooXXXXXXXXXXXXXXXooooooXXX...OOOOOOOOOOOOOOOOOOOOO......XXXXXXXXXXXXXXXXXXXXXXXXXXXXXX",
"XXXXXXooooooXXXXXXXXXXXXXXXooooooXXX...OOOOOOOOOOOOOOOOOOOOO......XXXXXXXXXXXXXXXXXXXXXXXXXXXXXX",
"XXXXXXooooooXXXXXXXXXXXXXXXooooooXXX...OOOOOOOOOOOOOOOOOOOOO......XXXXXXXXXXXXXXXXXXXXXXXXXXXXXX",
"XXXoooXXXXXXXXXXXXXXXXXXXXXXXX.........OOOOOOOOOOOOOOOOOOOOO      XXXXXXXXXXXXXXXXXXXXXXXXXXXXXX",
"XXXoooXXXXXXXXXXXXXXXXXXXXXXXX.........OOOOOOOOOOOOOOOOOOOOO      XXXXXXXXXXXXXXXXXXXXXXXXXXXXXX",
"XXXoooXXXXXXXXXXXXXXXXXXXXXXXX.........OOOOOOOOOOOOOOOOOOOOO      XXXXXXXXXXXXXXXXXXXXXXXXXXXXXX",
"XXXXXXXXXXXXXXXXXX      ............OOOOOOOOOOOOOOO...         OOOXXXXXXXXXXXXXXXXXXXXXXXXXXXXXX",
"XXXXXXXXXXXXXXXXXX      ............OOOOOOOOOOOOOOO...         OOOXXXXXXXXXXXXXXXXXXXXXXXXXXXXXX",
"XXXXXXXXXXXXXXXXXX      ............OOOOOOOOOOOOOOO...         OOOXXXXXXXXXXXXXXXXXXXXXXXXXXXXXX",
"XXXXXXXXXXXXXXX               OOOOOOOOOOOOOOO.........   OOOOOOOOOXXXXXXXXXXXXoooXXXXXXXXXXXXXXX",
"XXXXXXXXXXXXXXX               OOOOOOOOOOOOOOO.........   OOOOOOOOOXXXXXXXXXXXXoooXXXXXXXXXXXXXXX",
"XXXXXXXXXXXXXXX               OOOOOOOOOOOOOOO.........   OOOOOOOOOXXXXXXXXXXXXoooXXXXXXXXXXXXXXX",
"XXXXXXXXXXXXXXX   OOO......      OOOOOOOOO......      OOOOOOOOOOOOOOOXXXXXXXXXoooXXXXXXXXXXXXXXX",
"XXXXXXXXXXXXXXX   OOO......      OOOOOOOOO......      OOOOOOOOOOOOOOOXXXXXXXXXoooXXXXXXXXXXXXXXX",
"XXXXXXXXXXXXXXX   OOO......      OOOOOOOOO......      OOOOOOOOOOOOOOOXXXXXXXXXoooXXXXXXXXXXXXXXX",
"XXXXXXXXXXXXXXXOOOOOO............   OOO......      OOOOOOOOOOOOOOOOOOXXXXXXoooXXXoooXXXXXXXXXXXX",
"XXXXXXXXXXXXXXXOOOOOO............   OOO......      OOOOOOOOOOOOOOOOOOXXXXXXoooXXXoooXXXXXXXXXXXX",
"XXXXXXXXXXXXXXXOOOOOO............   OOO......      OOOOOOOOOOOOOOOOOOXXXXXXoooXXXoooXXXXXXXXXXXX",
"XXXXXXXXXXXXXXXOOOOOO......OOO...   ......      ......OOOOOOOOOOOOOOO   oooXXXXXXXXXoooXXXXXXXXX",
"XXXXXXXXXXXXXXXOOOOOO......OOO...   ......      ......OOOOOOOOOOOOOOO   oooXXXXXXXXXoooXXXXXXXXX",
"XXXXXXXXXXXXXXXOOOOOO......OOO...   ......      ......OOOOOOOOOOOOOOO   oooXXXXXXXXXoooXXXXXXXXX",
"XXXXXXXXXXXXOOOOOOOOOOOOOOOOOOOOO         ...............OOOOOOOOOOOO         XXXXXXXXXooooooXXX",
"XXXXXXXXXXXXOOOOOOOOOOOOOOOOOOOOO         ...............OOOOOOOOOOOO         XXXXXXXXXooooooXXX",
"XXXXXXXXXXXXOOOOOOOOOOOOOOOOOOOOO         ...............OOOOOOOOOOOO         XXXXXXXXXooooooXXX",
"XXXXXXXXXXXXOOOOOOOOOOOOOOOOOOOOO...   ...OOOOOOOOO......OOOOOOOOOOOO            XXXXXXXXXXXXooo",
"XXXXXXXXXXXXOOOOOOOOOOOOOOOOOOOOO...   ...OOOOOOOOO......OOOOOOOOOOOO            XXXXXXXXXXXXooo",
"XXXXXXXXXXXXOOOOOOOOOOOOOOOOOOOOO...   ...OOOOOOOOO......OOOOOOOOOOOO            XXXXXXXXXXXXooo",
"XXXXXXXXXXXXOOOOOOOOOOOOOOOOOOOOO...   ...OOOOOOOOO...   OOOOOOOOO.........         XXXXXXXXXXXX",
"XXXXXXXXXXXXOOOOOOOOOOOOOOOOOOOOO...   ...OOOOOOOOO...   OOOOOOOOO.........         XXXXXXXXXXXX",
"XXXXXXXXXXXXOOOOOOOOOOOOOOOOOOOOO...   ...OOOOOOOOO...   OOOOOOOOO.........         XXXXXXXXXXXX",
"XXXXXXXXXXXXOOOOOOOOOOOOOOOOOO...   ...OOOOOOOOOOOOOOO...   OOOOOO............      XXXXXXXXXXXX",
"XXXXXXXXXXXXOOOOOOOOOOOOOOOOOO...   ...OOOOOOOOOOOOOOO...   OOOOOO............      XXXXXXXXXXXX",
"XXXXXXXXXXXXOOOOOOOOOOOOOOOOOO...   ...OOOOOOOOOOOOOOO...   OOOOOO............      XXXXXXXXXXXX",
"XXXXXXXXX...OOOOOOOOOOOOOOOOOO...   ...OOOOOOOOOOOOOOOOOO...   ............         XXXXXXXXXXXX",
"XXXXXXXXX...OOOOOOOOOOOOOOOOOO...   ...OOOOOOOOOOOOOOOOOO...   ............         XXXXXXXXXXXX",
"XXXXXXXXX...OOOOOOOOOOOOOOOOOO...   ...OOOOOOOOOOOOOOOOOO...   ............         XXXXXXXXXXXX",
"XXXXXXXXX...OOOOOOOOOOOOOOOOOO...   OOOOOOOOOOOOOOOOOOOOO..................         XXXXXXXXXXXX",
"XXXXXXXXX...OOOOOOOOOOOOOOOOOO...   OOOOOOOOOOOOOOOOOOOOO..................         XXXXXXXXXXXX",
"XXXXXXXXX...OOOOOOOOOOOOOOOOOO...   OOOOOOOOOOOOOOOOOOOOO..................         XXXXXXXXXXXX",
"XXXXXX......OOOOOOOOOOOOOOO...   OOOOOOOOOOOOOOOOOOOOOOOO...............               XXXXXXXXX",
"XXXXXX......OOOOOOOOOOOOOOO...   OOOOOOOOOOOOOOOOOOOOOOOO...............               XXXXXXXXX",
"XXXXXX......OOOOOOOOOOOOOOO...   OOOOOOOOOOOOOOOOOOOOOOOO...............               XXXXXXXXX",
"XXXXXX.........OOOOOOOOO......   OOOOOOOOOOOOOOOOOOOOOOOO...      ...                  XXXXXXXXX",
"XXXXXX.........OOOOOOOOO......   OOOOOOOOOOOOOOOOOOOOOOOO...      ...                  XXXXXXXXX",
"XXXXXX.........OOOOOOOOO......   OOOOOOOOOOOOOOOOOOOOOOOO...      ...                  XXXXXXXXX",
"XXXXXXXXX   ......OOO.........   OOOOOOOOOOOOOOOOOOOOOOOO.........                        XXXXXX",
"XXXXXXXXX   ......OOO.........   OOOOOOOOOOOOOOOOOOOOOOOO.........                        XXXXXX",
"XXXXXXXXX   ......OOO.........   OOOOOOOOOOOOOOOOOOOOOOOO.........                        XXXXXX",
"XXXooooooXXX                     .........OOOOOOOOOOOO.........                     XXXXXXXXXXXX",
"XXXooooooXXX                     .........OOOOOOOOOOOO.........                     XXXXXXXXXXXX",
"XXXooooooXXX                     .........OOOOOOOOOOOO.........                     XXXXXXXXXXXX",
"oooXXXXXXXXXXXX      XXXXXXXXXooo         ..................                  XXXXXXXXXXXXXXXXXX",
"oooXXXXXXXXXXXX      XXXXXXXXXooo         ..................                  XXXXXXXXXXXXXXXXXX",
"oooXXXXXXXXXXXX      XXXXXXXXXooo         ..................                  XXXXXXXXXXXXXXXXXX",
"XXXXXXXXXXXXXXXXXXXXXXXXXXXXXXXXXXXXXXXXXX      ...                     XXXXXXXXXXXXXXXXXXXXXXXX",
"XXXXXXXXXXXXXXXXXXXXXXXXXXXXXXXXXXXXXXXXXX      ...                     XXXXXXXXXXXXXXXXXXXXXXXX",
"XXXXXXXXXXXXXXXXXXXXXXXXXXXXXXXXXXXXXXXXXX      ...                     XXXXXXXXXXXXXXXXXXXXXXXX",
"XXXXXXXXXXXXXXXXXXXXXXXXXXXXXXXXXXXXXXXXXXXXXXXX                  XXXXXXXXXXXXXXXXXXXXXXXXXXXXXX",
"XXXXXXXXXXXXXXXXXXXXXXXXXXXXXXXXXXXXXXXXXXXXXXXX                  XXXXXXXXXXXXXXXXXXXXXXXXXXXXXX",
"XXXXXXXXXXXXXXXXXXXXXXXXXXXXXXXXXXXXXXXXXXXXXXXX                  XXXXXXXXXXXXXXXXXXXXXXXXXXXXXX",
"XXXXXXXXXXXXXXXXXXXXXXXXXXXXXXXXXXXXXXXXXXXXXXXXXXXXXX      XXXXXXXXXXXXXXXXXXXXXXXXXXXXXXXXXXXX",
"XXXXXXXXXXXXXXXXXXXXXXXXXXXXXXXXXXXXXXXXXXXXXXXXXXXXXX      XXXXXXXXXXXXXXXXXXXXXXXXXXXXXXXXXXXX",
"XXXXXXXXXXXXXXXXXXXXXXXXXXXXXXXXXXXXXXXXXXXXXXXXXXXXXX      XXXXXXXXXXXXXXXXXXXXXXXXXXXXXXXXXXXX",
"XXXXXXXXXXXXXXXXXXXXXXXXXXXXXXXXXXXXXXXXXXXXXXXXXXXXXXXXXXXXXXXXXXXXXXXXXXXXXXXXXXXXXXXXXXXXXXXX",
"XXXXXXXXXXXXXXXXXXXXXXXXXXXXXXXXXXXXXXXXXXXXXXXXXXXXXXXXXXXXXXXXXXXXXXXXXXXXXXXXXXXXXXXXXXXXXXXX",
"XXXXXXXXXXXXXXXXXXXXXXXXXXXXXXXXXXXXXXXXXXXXXXXXXXXXXXXXXXXXXXXXXXXXXXXXXXXXXXXXXXXXXXXXXXXXXXXX",
"XXXXXXXXXXXXXXXXXXXXXXXXXXXXXXXXXXXXXXXXXXXXXXXXXXXXXXXXXXXXXXXXXXXXXXXXXXXXXXXXXXXXXXXXXXXXXXXX",
"XXXXXXXXXXXXXXXXXXXXXXXXXXXXXXXXXXXXXXXXXXXXXXXXXXXXXXXXXXXXXXXXXXXXXXXXXXXXXXXXXXXXXXXXXXXXXXXX",
"XXXXXXXXXXXXXXXXXXXXXXXXXXXXXXXXXXXXXXXXXXXXXXXXXXXXXXXXXXXXXXXXXXXXXXXXXXXXXXXXXXXXXXXXXXXXXXXX",
"XXXXXXXXXXXXXXXXXXXXXXXXXXXXXXXXXXXXXXXXXXXXXXXXXXXXXXXXXXXXXXXXXXXXXXXXXXXXXXXXXXXXXXXXXXXXXXXX",
"XXXXXXXXXXXXXXXXXXXXXXXXXXXXXXXXXXXXXXXXXXXXXXXXXXXXXXXXXXXXXXXXXXXXXXXXXXXXXXXXXXXXXXXXXXXXXXXX",
"XXXXXXXXXXXXXXXXXXXXXXXXXXXXXXXXXXXXXXXXXXXXXXXXXXXXXXXXXXXXXXXXXXXXXXXXXXXXXXXXXXXXXXXXXXXXXXXX",
"XXXXXXXXXXXXXXXXXXXXXXXXXXXXXXXXXXXXXXXXXXXXXXXXXXXXXXXXXXXXXXXXXXXXXXXXXXXXXXXXXXXXXXXXXXXXXXXX",
"XXXXXXXXXXXXXXXXXXXXXXXXXXXXXXXXXXXXXXXXXXXXXXXXXXXXXXXXXXXXXXXXXXXXXXXXXXXXXXXXXXXXXXXXXXXXXXXX",
"XXXXXXXXXXXXXXXXXXXXXXXXXXXXXXXXXXXXXXXXXXXXXXXXXXXXXXXXXXXXXXXXXXXXXXXXXXXXXXXXXXXXXXXXXXXXXXXX"
};
