/* XPM */
static char *xpm_[] = {
/* columns rows colors chars-per-pixel */
"96 96 14 1 ",
"  c gray50",
". c #880015",
"X c #ED1C24",
"o c #804000",
"O c #B97A57",
"+ c #9BC716",
"@ c #BFE91B",
"# c #B4F876",
"$ c #E0CB67",
"% c #00A2E8",
"& c #EFE4B0",
"* c #99D9EA",
"= c #C3C3C3",
"- c white",
/* pixels */
"%%%%%%%%%%%%%%%%%%%%%%%%%%%%%%%%%%%%%%%%%%%%%%%%%%%%%%%%%%%%%%%%%%%%%%%%%%%%%%%%%%%%%%%%%%%%%%%%",
"%%%%%%%%%%%%%%%%%%%%%%%%%%%%%%%%%%%%%%%%%%%%%%%%%%%%%%%%%%%%%%%%%%%%%%%%%%%%%%%%%%%%%%%%%%%%%%%%",
"%%%%%%%%%%%%%%%%%%%%%%%%%%%%%%%%%%%%%%%%%%%%%%%%%%%%%%%%%%%%%%%%%%%%%%%%%%%%%%%%%%%%%%%%%%%%%%%%",
"%%%%%%%%%%%%%%%%%%%%%%%%%%%%%%%%%%%%%%%%%%%%%%%%%%%%%%%%%%%%%%%%%%%%%%%%%%%###%%%%%%%%%%%%%%%%%%",
"%%%%%%%%%%%%%%%%%%%%%%%%%%%%%%%%%%%%%%%%%%%%%%%%%%%%%%%%%%%%%%%%%%%%%%%%%%%###%%%%%%%%%%%%%%%%%%",
"%%%%%%%%%%%%%%%%%%%%%%%%%%%%%%%%%%%%%%%%%%%%%%%%%%%%%%%%%%%%%%%%%%%%%%%%%%%###%%%%%%%%%%%%%%%%%%",
"%%%%%%%%%%%%%%%%%%%%%%%%%%%%%%%%%%%%%%%%%%%%%%%%%%%%%%%%%%%%#########%%%###%%%%%%%%%%%%%%%%%%%%%",
"%%%%%%%%%%%%%%%%%%%%%%%%%%%%%%%%%%%%%%%%%%%%%%%%%%%%%%%%%%%%#########%%%###%%%%%%%%%%%%%%%%%%%%%",
"%%%%%%%%%%%%%%%%%%%%%%%%%%%%%%%%%%%%%%%%%%%%%%%%%%%%%%%%%%%%#########%%%###%%%%%%%%%%%%%%%%%%%%%",
"%%%%%%%%%%%%###%%%***%%%%%%%%%%%%###%%%######%%%%%%%%%%%%%%%%%%%%%###############%%%%%%%%%%%%%%%",
"%%%%%%%%%%%%###%%%***%%%%%%%%%%%%###%%%######%%%%%%%%%%%%%%%%%%%%%###############%%%%%%%%%%%%%%%",
"%%%%%%%%%%%%###%%%***%%%%%%%%%%%%###%%%######%%%%%%%%%%%%%%%%%%%%%###############%%%%%%%%%%%%%%%",
"%%%%%%%%%%%%%%%###***#########%%%#########%%%%%%%%%%%%%%%%%%%%%%%%############%%%###%%%%%%%%%%%%",
"%%%%%%%%%%%%%%%###***#########%%%#########%%%%%%%%%%%%%%%%%%%%%%%%############%%%###%%%%%%%%%%%%",
"%%%%%%%%%%%%%%%###***#########%%%#########%%%%%%%%%%%%%%%%%%%%%%%%############%%%###%%%%%%%%%%%%",
"%%%%%%%%%%%%############%%%%%%###%%%#########%%%%%%%%%%%%%%%%%%######OOO%%%######%%%%%%%%%%%%%%%",
"%%%%%%%%%%%%############%%%%%%###%%%#########%%%%%%%%%%%%%%%%%%######OOO%%%######%%%%%%%%%%%%%%%",
"%%%%%%%%%%%%############%%%%%%###%%%#########%%%%%%%%%%%%%%%%%%######OOO%%%######%%%%%%%%%%%%%%%",
"%%%%%%%%%##################%%%%%%###OOO%%%%%%###%%%%%%%%%%%%%%%###%%%OOO%%%%%%###%%%%%%%%%%%%%%%",
"%%%%%%%%%##################%%%%%%###OOO%%%%%%###%%%%%%%%%%%%%%%###%%%OOO%%%%%%###%%%%%%%%%%%%%%%",
"%%%%%%%%%##################%%%%%%###OOO%%%%%%###%%%%%%%%%%%%%%%###%%%OOO%%%%%%###%%%%%%%%%%%%%%%",
"%%%%%%###***%%%###OOO%%%###******###OOOOOO%%%%%%%%%%%%%%%%%%%%%###%%%OOO%%%%%%###%%%%%%%%%%%%%%%",
"%%%%%%###***%%%###OOO%%%###******###OOOOOO%%%%%%%%%%%%%%%%%%%%%###%%%OOO%%%%%%###%%%%%%%%%%%%%%%",
"%%%%%%###***%%%###OOO%%%###******###OOOOOO%%%%%%%%%%%%%%%%%%%%%###%%%OOO%%%%%%###%%%%%%%%%%%%%%%",
"%%%***%%%%%%######OOO%%%%%%%%%%%%***%%%OOO++++++++++++%%%%%%%%%%%%%%%OOO%%%%%%%%%%%%%%%%%%%%%%%%",
"%%%***%%%%%%######OOO%%%%%%%%%%%%***%%%OOO++++++++++++%%%%%%%%%%%%%%%OOO%%%%%%%%%%%%%%%%%%%%%%%%",
"%%%***%%%%%%######OOO%%%%%%%%%%%%***%%%OOO++++++++++++%%%%%%%%%%%%%%%OOO%%%%%%%%%%%%%%%%%%%%%%%%",
"%%%%%%%%%%%%###%%%OOOOOO@@@@@@+++++++++OOOOOO@@@@@@+++++++++++++++OOOOOO%%%%%%%%%%%%%%%%%%%%%%%%",
"%%%%%%%%%%%%###%%%OOOOOO@@@@@@+++++++++OOOOOO@@@@@@++++++++++++++++OOOOO%%%%%%%%%%%%%%%%%%%%%%%%",
"%%%%%%%%%%%%###%%%OOOOOO@@@@@@+++++++++OOOOOO@@@@@@++++++++++++++++OOOOO%%%%%%%%%%%%%%%%%%%%%%%%",
"%%%%%%%%%%%%%%%%%%@@@OOO@@@@@@@@@@@@@@@@@@OOO@@@@@@@@@@@@@@@++++XXXOO+++++++++***%%%%%%%%%%%%%%%",
"%%%%%%%%%%%%%%%%%%@@@OOO@@@@@@@@@@@@@@@@@@OOO@@@@@@@@@@@@@@@++++XXX+++++++++++***%%%%%%%%%%%%%%%",
"%%%%%%%%%%%%%%%%%%@@@OOO@@@@@@@@@@@@@@@@@@OOO@@@@@@@@@@@@@@@++++XXX+++++++++++***%%%%%%%%%%%%%%%",
"%%%%%%%%%%%%@@@@@@@@@OOOOOO@@@@@@@@@@@@@@@@@@@@@@@@@@@@@@@@@@@@+ooo===+++++++++++%%%%%%%%%%%%%%%",
"%%%%%%%%%%%%@@@@@@@@@OOOOOO@@@@@@@@@@@@@@@@@@@@@@@@@@@@@@@@@@@@+ooo===+++++++++++%%%%%%%%%%%%%%%",
"%%%%%%%%%%%%@@@@@@@@@OOOOOO@@@@@@@@@@@@@@@@@@@@@@@@@@@@@@@@@@@@+ooo===+++++++++++%%%%%%%%%%%%%%%",
"%%%%%%%%%&&&@@@@@@@@@@@@OOO@@@@@@@@@@@@@@@@@@@@@@@@@@@@@@@@@@@@+ooo===......++$$$$$$%%%%%%%%%%%%",
"%%%%%%%%%&&&@@@@@@@@@@@@OOO@@@@@@@@@@@@@@@@@@@@@@@@@@@@@@@@@@@@+ooo===......++$$$$$$%%%%%%%%%%%%",
"%%%%%%%%%&&&@@@@@@@@@@@@OOO@@@@@@@@@@@@@@@@@@@@@@@@@@@@@@@@@@@@+ooo===......++$$$$$$%%%%%%%%%%%%",
"%%%%%%&&&&&&@@@@@@@@@@@@OOO@@@@@@@@@@@@@@@@@@@@@@@@@@@+---++@@@+ooo===......===$$$$$$$$$$$%%%%%%",
"%%%%%%&&&&&&@@@@@@@@@@@@OOO@@@@@@@@@@@@@@@@@@@@@@@@@@@+---++@@@+ooo===......===$$$$$$$$$$$%%%%%%",
"%%%%%%&&&&&&@@@@@@@@@@@@OOO@@@@@@@@@@@@@@@@@@@@@@@@@@@+---++@@@+ooo===......===$$$$$$$$$$$%%%%%%",
"%%%&&&&&&&&&&&&&&&@@@@@@@@@@@@@@@@@@@@@@@@+XXX@@@@@@@@+---------ooo++&......======$$$$$$$$***%%%",
"%%%&&&&&&&&&&&&&&&@@@@@@@@@@@@@@@@@@@@@@@@+XXX@@@@@@@@+---------ooo++&......======$$$$$$$$***%%%",
"%%%&&&&&&&&&&&&&&&@@@@@@@@@@@@@@@@@@@@@@@@+XXX@@@@@@@@+---------ooo++&......======$$$$$$$$***%%%",
"%%%&&&&&&&&&&&&&&&&&&&&&&&&&&&$---$$&&&&&&$ooo&&&&&$------------------$$&&&&&&&===$$&&&$$$$$$***",
"%%%&&&&&&&&&&&&&&&&&&&&&&&&&&&$---$$&&&&&&$ooo&&&&&$------------------$$&&&&&&&===$$&&&$$$$$$***",
"%%%&&&&&&&&&&&&&&&&&&&&&&&&&&&$---$$&&&&&&$ooo&&&&&$------------------$$&&&&&&&===$$&&&$$$$$$***",
"&&&&&&&&&&&&&&&&&&&&&&&&&&&&&&$---------$$$ooo&&&&&$------------------------$$&&&&&&&&&$$$$$$$$$",
"&&&&&&&&&&&&&&&&&&&&&&&&&&&&&&$---------$$$ooo&&&&&$------------------------$$&&&&&&&&&$$$$$$$$$",
"&&&&&&&&&&&&&&&&&&&&&&&&&&&&&&$---------$$$ooo&&&&&$------------------------$$&&&&&&&&&$$$$$$$$$",
"&&&&&&&&&&&&&&&&&&&&&&&&&&&$------------------$$&   ------------------------------$$&&&&&&$$$$$$",
"&&&&&&&&&&&&&&&&&&&&&&&&&&&$------------------$$&   ------------------------------$$&&&&&&$$$$$$",
"&&&&&&&&&&&&&&&&&&&&&&&&&&&$------------------$$&   ------------------------------$$&&&&&&$$$$$$",
"&&&&&&&&&&&&&&&&&&&&&&&&&&&$------------------------   ---------------------------======$$$$$%%%",
"&&&&&&&&&&&&&&&&&&&&&&&&&&&$------------------------   ---------------------------======$$$$$%%%",
"&&&&&&&&&&&&&&&&&&&&&&&&&&&$------------------------   ---------------------------======$$$$$%%%",
"%%%%%%&&&&&&&&&&&&&&&&&&$---------------------------======------------------------===$$%%%%%%%%%",
"%%%%%%&&&&&&&&&&&&&&&&&&$---------------------------======------------------------===$$%%%%%%%%%",
"%%%%%%&&&&&&&&&&&&&&&&&&$---------------------------======------------------------===$$%%%%%%%%%",
"%%%%oooooo%%&&&&&&&&&&&&$---------------------------===   ---------------------======%%%%%%%%%%%",
"%%%%oooooo%%&&&&&&&&&&&&$---------------------------===   ---------------------======%%%%%%%%%%%",
"%%%%oooooo%%&&&&&&&&&&&&$---------------------------===   ---------------------======%%%%%%%%%%%",
"%%%%%%%%%%oooooo&&&&&&======---------------------======   ======---------------===%%%%%%%%%%%%%%",
"%%%%%%%%%%oooooo&&&&&&======---------------------======   ======---------------===%%%%%%%%%%%%%%",
"%%%%%%%%%%oooooo&&&&&&======---------------------======   ======---------------===%%%%%%%%%%%%%%",
"%%%%%%%%%***%%%%ooo%%***%%%%=========------------===&&&&&&&&%%%%======------======%%%%%%oooo%%%%",
"%%%%%%%%%***%%%%ooo%%***%%%%=========------------===&&&&&&&&%%%%======------======%%%%%%oooo%%%%",
"%%%%%%%%%***%%%%ooo%%***%%%%=========------------===&&&&&&&&%%%%======------======%%%%%%oooo%%%%",
"%%%******%%%%%%%%%%ooo%%******%%%*=========---======%%******%%%%ooo%%%=========ooooooooo%%%%%%%%",
"%%%******%%%%%%%%%%ooo%%******%%%*=========---======%%******%%%%ooo%%%=========ooooooooo%%%%%%%%",
"%%%******%%%%%%%%%%ooo%%******%%%*=========---======%%******%%%%ooo%%%=========ooooooooo%%%%%%%%",
"***%%%%%%%%%%%%%%%%oooooooooooo**%%%%%%%=========%%%%%%%%%%%***%ooo%%%oooOOO===OOOOOOooo%%%%%%%%",
"***%%%%%%%%%%%%%%%%oooooooooooo**%%%%%%%=========%%%%%%%%%%%***%ooo%%%oooOOO===OOOOOOooo%%%%%%%%",
"***%%%%%%%%%%%%%%%%oooooooooooo**%%%%%%%=========%%%%%%%%%%%***%ooo%%%oooOOO===OOOOOOooo%%%%%%%%",
"%%%%%%%%%%%%%%%%%%%%%%oooOOOOOOooooooooo%%%ooo===%%%%%%%%%%%%%%%oooooooooOOOOOOOOOooo%%%%%%%%%%%",
"%%%%%%%%%%%%%%%%%%%%%%oooOOOOOOooooooooo%%%ooo===%%%%%%%%%%%%%%%oooooooooOOOOOOOOOooo%%%%%%%%%%%",
"%%%%%%%%%%%%%%%%%%%%%%oooOOOOOOooooooooo%%%ooo===%%%%%%%%%%%%%%%oooooooooOOOOOOOOOooo%%%%%%%%%%%",
"%%%%%%%%%%%%%%%%%%%%%%%%%oooOOOOOOOOOOOOoooooooooooooooooooooooooooooooooOOOOOOooo%%%%%%%%%%%%%%",
"%%%%%%%%%%%%%%%%%%%%%%%%%oooOOOOOOOOOOOOoooooooooooooooooooooooooooooooooOOOOOOooo%%%%%%%%%%%%%%",
"%%%%%%%%%%%%%%%%%%%%%%%%%oooOOOOOOOOOOOOoooooooooooooooooooooooooooooooooOOOOOOooo%%%%%%%%%%%%%%",
"%%%%%%%%%%%%%%%%%%%%%%%%%%%%oooOOOOOOOOOOOOOOOOOOOOOOOOOOOOOOOOOOOOOOOOOOOOOooo%%%%%%%%%%%%%%%%%",
"%%%%%%%%%%%%%%%%%%%%%%%%%%%%oooOOOOOOOOOOOOOOOOOOOOOOOOOOOOOOOOOOOOOOOOOOOOOooo%%%%%%%%%%%%%%%%%",
"%%%%%%%%%%%%%%%%%%%%%%%%%%%%oooOOOOOOOOOOOOOOOOOOOOOOOOOOOOOOOOOOOOOOOOOOOOOooo%%%%%%%%%%%%%%%%%",
"%%%%%%%%%%%%%%%%%%%%%%%%%%%%%%%ooooooOOOOOOOOOOOOOOOOOOOOOOOOOOOOOOOOOoooooo%%%%%%%%%%%%%%%%%%%%",
"%%%%%%%%%%%%%%%%%%%%%%%%%%%%%%%ooooooOOOOOOOOOOOOOOOOOOOOOOOOOOOOOOOOOoooooo%%%%%%%%%%%%%%%%%%%%",
"%%%%%%%%%%%%%%%%%%%%%%%%%%%%%%%ooooooOOOOOOOOOOOOOOOOOOOOOOOOOOOOOOOOOoooooo%%%%%%%%%%%%%%%%%%%%",
"%%%%%%%%%%%%%%%%%%%%%%%%%%%%%%%%%%%%%ooooooOOOOOOOOOOOOOOOOOOOOOoooooo%%%%%%%%%%%%%%%%%%%%%%%%%%",
"%%%%%%%%%%%%%%%%%%%%%%%%%%%%%%%%%%%%%ooooooOOOOOOOOOOOOOOOOOOOOOoooooo%%%%%%%%%%%%%%%%%%%%%%%%%%",
"%%%%%%%%%%%%%%%%%%%%%%%%%%%%%%%%%%%%%ooooooOOOOOOOOOOOOOOOOOOOOOoooooo%%%%%%%%%%%%%%%%%%%%%%%%%%",
"%%%%%%%%%%%%%%%%%%%%%%%%%%%%%%%%%%%%%%%%%%%ooooooooooooooooooooo%%%%%%%%%%%%%%%%%%%%%%%%%%%%%%%%",
"%%%%%%%%%%%%%%%%%%%%%%%%%%%%%%%%%%%%%%%%%%%ooooooooooooooooooooo%%%%%%%%%%%%%%%%%%%%%%%%%%%%%%%%",
"%%%%%%%%%%%%%%%%%%%%%%%%%%%%%%%%%%%%%%%%%%%ooooooooooooooooooooo%%%%%%%%%%%%%%%%%%%%%%%%%%%%%%%%",
"%%%%%%%%%%%%%%%%%%%%%%%%%%%%%%%%%%%%%%%%%%%%%%%%%%%%%%%%%%%%%%%%%%%%%%%%%%%%%%%%%%%%%%%%%%%%%%%%",
"%%%%%%%%%%%%%%%%%%%%%%%%%%%%%%%%%%%%%%%%%%%%%%%%%%%%%%%%%%%%%%%%%%%%%%%%%%%%%%%%%%%%%%%%%%%%%%%%",
"%%%%%%%%%%%%%%%%%%%%%%%%%%%%%%%%%%%%%%%%%%%%%%%%%%%%%%%%%%%%%%%%%%%%%%%%%%%%%%%%%%%%%%%%%%%%%%%%"
};
