/* XPM */
static char *xpm_[] = {
/* columns rows colors chars-per-pixel */
"96 96 8 1 ",
"  c #B97A57",
". c #9BC716",
"X c #BFE91B",
"o c #B4F876",
"O c #E0CB67",
"+ c #00A2E8",
"@ c #EFE4B0",
"# c #99D9EA",
/* pixels */
"++++++++++++++++++++++++++++++++++++++++++++++++++++++++++++++++++++++++++++++++++++++++++++++++",
"++++++++++++++++++++++++++++++++++++++++++++++++++++++++++++++++++++++++++++++++++++++++++++++++",
"++++++++++++++++++++++++++++++++++++++++++++++++++++++++++++++++++++++++++++++++++++++++++++++++",
"+++++++++++++++++++++++++++++++++++++++++++++++++++++++++++++++++++++++++++ooo++++++++++++++++++",
"+++++++++++++++++++++++++++++++++++++++++++++++++++++++++++++++++++++++++++ooo++++++++++++++++++",
"+++++++++++++++++++++++++++++++++++++++++++++++++++++++++++++++++++++++++++ooo++++++++++++++++++",
"++++++++++++++++++++++++++++++++++++++++++++++++++++++++++++ooooooooo+++ooo+++++++++++++++++++++",
"++++++++++++++++++++++++++++++++++++++++++++++++++++++++++++ooooooooo+++ooo+++++++++++++++++++++",
"++++++++++++++++++++++++++++++++++++++++++++++++++++++++++++ooooooooo+++ooo+++++++++++++++++++++",
"++++++++++++ooo+++###++++++++++++ooo+++oooooo+++++++++++++++++++++ooooooooooooooo+++++++++++++++",
"++++++++++++ooo+++###++++++++++++ooo+++oooooo+++++++++++++++++++++ooooooooooooooo+++++++++++++++",
"++++++++++++ooo+++###++++++++++++ooo+++oooooo+++++++++++++++++++++ooooooooooooooo+++++++++++++++",
"+++++++++++++++ooo###ooooooooo+++ooooooooo++++++++++++++++++++++++oooooooooooo+++ooo++++++++++++",
"+++++++++++++++ooo###ooooooooo+++ooooooooo++++++++++++++++++++++++oooooooooooo+++ooo++++++++++++",
"+++++++++++++++ooo###ooooooooo+++ooooooooo++++++++++++++++++++++++oooooooooooo+++ooo++++++++++++",
"++++++++++++oooooooooooo++++++ooo+++ooooooooo++++++++++++++++++oooooo   +++oooooo+++++++++++++++",
"++++++++++++oooooooooooo++++++ooo+++ooooooooo++++++++++++++++++oooooo   +++oooooo+++++++++++++++",
"++++++++++++oooooooooooo++++++ooo+++ooooooooo++++++++++++++++++oooooo   +++oooooo+++++++++++++++",
"+++++++++oooooooooooooooooo++++++ooo   ++++++ooo+++++++++++++++ooo+++   ++++++ooo+++++++++++++++",
"+++++++++oooooooooooooooooo++++++ooo   ++++++ooo+++++++++++++++ooo+++   ++++++ooo+++++++++++++++",
"+++++++++oooooooooooooooooo++++++ooo   ++++++ooo+++++++++++++++ooo+++   ++++++ooo+++++++++++++++",
"++++++ooo###+++ooo   +++ooo######ooo      +++++++++++++++++++++ooo+++   ++++++ooo+++++++++++++++",
"++++++ooo###+++ooo   +++ooo######ooo      +++++++++++++++++++++ooo+++   ++++++ooo+++++++++++++++",
"++++++ooo###+++ooo   +++ooo######ooo      +++++++++++++++++++++ooo+++   ++++++ooo+++++++++++++++",
"+++###++++++oooooo   ++++++++++++###+++   ............+++++++++++++++   ++++++++++++++++++++++++",
"+++###++++++oooooo   ++++++++++++###+++   ............+++++++++++++++   ++++++++++++++++++++++++",
"+++###++++++oooooo   ++++++++++++###+++   ............+++++++++++++++   ++++++++++++++++++++++++",
"++++++++++++ooo+++      XXXXXX.........      XXXXXX............+++      ++++++++++++++++++++++++",
"++++++++++++ooo+++      XXXXXX.........      XXXXXX............+++      ++++++++++++++++++++++++",
"++++++++++++ooo+++      XXXXXX.........      XXXXXX............+++      ++++++++++++++++++++++++",
"++++++++++++++++++XXX   XXXXXXXXXXXXXXXXXX   XXXXXXXXXXXXXXX...      .........###+++++++++++++++",
"++++++++++++++++++XXX   XXXXXXXXXXXXXXXXXX   XXXXXXXXXXXXXXX...      .........###+++++++++++++++",
"++++++++++++++++++XXX   XXXXXXXXXXXXXXXXXX   XXXXXXXXXXXXXXX...      .........###+++++++++++++++",
"++++++++++++XXXXXXXXX      XXXXXXXXXXXXXXXXXXXXXXXXXXXXXXXXXXXX   XXXXXX.........+++++++++++++++",
"++++++++++++XXXXXXXXX      XXXXXXXXXXXXXXXXXXXXXXXXXXXXXXXXXXXX   XXXXXX.........+++++++++++++++",
"++++++++++++XXXXXXXXX      XXXXXXXXXXXXXXXXXXXXXXXXXXXXXXXXXXXX   XXXXXX.........+++++++++++++++",
"+++++++++@@@XXXXXXXXXXXX   XXXXXXXXXXXXXXXXXXXXXXXXXXXXXXXXXXXXXXXXXXXXXXXXXXXOOOOOO++++++++++++",
"+++++++++@@@XXXXXXXXXXXX   XXXXXXXXXXXXXXXXXXXXXXXXXXXXXXXXXXXXXXXXXXXXXXXXXXXOOOOOO++++++++++++",
"+++++++++@@@XXXXXXXXXXXX   XXXXXXXXXXXXXXXXXXXXXXXXXXXXXXXXXXXXXXXXXXXXXXXXXXXOOOOOO++++++++++++",
"++++++@@@@@@XXXXXXXXXXXX   XXXXXXXXXXXXXXXXXXXXXXXXXXXXXXXXXXXXXXXXXX@@@@@@@@@@@@OOOOOOOOO++++++",
"++++++@@@@@@XXXXXXXXXXXX   XXXXXXXXXXXXXXXXXXXXXXXXXXXXXXXXXXXXXXXXXX@@@@@@@@@@@@OOOOOOOOO++++++",
"++++++@@@@@@XXXXXXXXXXXX   XXXXXXXXXXXXXXXXXXXXXXXXXXXXXXXXXXXXXXXXXX@@@@@@@@@@@@OOOOOOOOO++++++",
"+++@@@@@@@@@@@@@@@XXXXXXXXXXXXXXXXXXXXXXXXXXXXXXXXXXXX@@@@@@@@@@@@@@@@@@@@@@@@@@@@@@OOOOOO###+++",
"+++@@@@@@@@@@@@@@@XXXXXXXXXXXXXXXXXXXXXXXXXXXXXXXXXXXX@@@@@@@@@@@@@@@@@@@@@@@@@@@@@@OOOOOO###+++",
"+++@@@@@@@@@@@@@@@XXXXXXXXXXXXXXXXXXXXXXXXXXXXXXXXXXXX@@@@@@@@@@@@@@@@@@@@@@@@@@@@@@OOOOOO###+++",
"+++@@@@@@@@@@@@@@@@@@@@@@@@@@@@@@@@@@@@@@@@@@@@@@@@@@@@@@@@@@@@@@@@@@@@@@@@@@@@@@@@@@@@OOOOOO###",
"+++@@@@@@@@@@@@@@@@@@@@@@@@@@@@@@@@@@@@@@@@@@@@@@@@@@@@@@@@@@@@@@@@@@@@@@@@@@@@@@@@@@@@OOOOOO###",
"+++@@@@@@@@@@@@@@@@@@@@@@@@@@@@@@@@@@@@@@@@@@@@@@@@@@@@@@@@@@@@@@@@@@@@@@@@@@@@@@@@@@@@OOOOOO###",
"@@@@@@@@@@@@@@@@@@@@@@@@@@@@@@@@@@@@@@@@@@@@@@@@@@@@@@@@@@@@@@@@@@@@@@@@@@@@@@@@@@@@@@@OOOOOOOOO",
"@@@@@@@@@@@@@@@@@@@@@@@@@@@@@@@@@@@@@@@@@@@@@@@@@@@@@@@@@@@@@@@@@@@@@@@@@@@@@@@@@@@@@@@OOOOOOOOO",
"@@@@@@@@@@@@@@@@@@@@@@@@@@@@@@@@@@@@@@@@@@@@@@@@@@@@@@@@@@@@@@@@@@@@@@@@@@@@@@@@@@@@@@@OOOOOOOOO",
"@@@@@@@@@@@@@@@@@@@@@@@@@@@@@@@@@@@@@@@@@@@@@@@@@@@@@@@@@@@@@@@@@@@@@@@@@@@@@@@@@@@@@@@@@@OOOOOO",
"@@@@@@@@@@@@@@@@@@@@@@@@@@@@@@@@@@@@@@@@@@@@@@@@@@@@@@@@@@@@@@@@@@@@@@@@@@@@@@@@@@@@@@@@@@OOOOOO",
"@@@@@@@@@@@@@@@@@@@@@@@@@@@@@@@@@@@@@@@@@@@@@@@@@@@@@@@@@@@@@@@@@@@@@@@@@@@@@@@@@@@@@@@@@@OOOOOO",
"@@@@@@@@@@@@@@@@@@@@@@@@@@@@@@@@@@@@@@@@@@@@@@@@@@@@@@@@@@@@@@@@@@@@@@@@@@@@@@@@@@@@OOOOOOOOO+++",
"@@@@@@@@@@@@@@@@@@@@@@@@@@@@@@@@@@@@@@@@@@@@@@@@@@@@@@@@@@@@@@@@@@@@@@@@@@@@@@@@@@@@OOOOOOOOO+++",
"@@@@@@@@@@@@@@@@@@@@@@@@@@@@@@@@@@@@@@@@@@@@@@@@@@@@@@@@@@@@@@@@@@@@@@@@@@@@@@@@@@@@OOOOOOOOO+++",
"++++++@@@@@@@@@@@@@@@@@@@@@@@@@@@@@@@@@@@@@@@@@@@@@@@@@@@@@@@@@@@@@@@@@@@@@@@@@@@OOOOOO+++++++++",
"++++++@@@@@@@@@@@@@@@@@@@@@@@@@@@@@@@@@@@@@@@@@@@@@@@@@@@@@@@@@@@@@@@@@@@@@@@@@@@OOOOOO+++++++++",
"++++++@@@@@@@@@@@@@@@@@@@@@@@@@@@@@@@@@@@@@@@@@@@@@@@@@@@@@@@@@@@@@@@@@@@@@@@@@@@OOOOOO+++++++++",
"++++++++++++@@@@@@@@@@@@@@@@@@@@@@@@@@@@@@@@@@@@@@@@@@@@@@@@@@@@@@@@@@@@@@@@@@OOOOOO++++++++++++",
"++++++++++++@@@@@@@@@@@@@@@@@@@@@@@@@@@@@@@@@@@@@@@@@@@@@@@@@@@@@@@@@@@@@@@@@@OOOOOO++++++++++++",
"++++++++++++@@@@@@@@@@@@@@@@@@@@@@@@@@@@@@@@@@@@@@@@@@@@@@@@@@@@@@@@@@@@@@@@@@OOOOOO++++++++++++",
"++++++++++++###@@@@@@@@@@@@@@@@@@@@@@@@@@@@@@@@@@@@@@@@@@@@@@@@@@@@@@@@@++++++++++++++++++++++++",
"++++++++++++###@@@@@@@@@@@@@@@@@@@@@@@@@@@@@@@@@@@@@@@@@@@@@@@@@@@@@@@@@++++++++++++++++++++++++",
"++++++++++++###@@@@@@@@@@@@@@@@@@@@@@@@@@@@@@@@@@@@@@@@@@@@@@@@@@@@@@@@@++++++++++++++++++++++++",
"+++++++++###+++++++++###+++++++++++++++@@@@@@@@@@@@@@@@@@@@@++++++++++++++++++++++++++++++++++++",
"+++++++++###+++++++++###+++++++++++++++@@@@@@@@@@@@@@@@@@@@@++++++++++++++++++++++++++++++++++++",
"+++++++++###+++++++++###+++++++++++++++@@@@@@@@@@@@@@@@@@@@@++++++++++++++++++++++++++++++++++++",
"+++######+++++++++++++++######+++######+++++++++++++++######++++++++++++++++++++++++++++++++++++",
"+++######+++++++++++++++######+++######+++++++++++++++######++++++++++++++++++++++++++++++++++++",
"+++######+++++++++++++++######+++######+++++++++++++++######++++++++++++++++++++++++++++++++++++",
"###+++++++++++++++++++++++++++###+++++++++++++++++++++++++++###+++++++++++++++++++++++++++++++++",
"###+++++++++++++++++++++++++++###+++++++++++++++++++++++++++###+++++++++++++++++++++++++++++++++",
"###+++++++++++++++++++++++++++###+++++++++++++++++++++++++++###+++++++++++++++++++++++++++++++++",
"++++++++++++++++++++++++++++++++++++++++++++++++++++++++++++++++++++++++++++++++++++++++++++++++",
"++++++++++++++++++++++++++++++++++++++++++++++++++++++++++++++++++++++++++++++++++++++++++++++++",
"++++++++++++++++++++++++++++++++++++++++++++++++++++++++++++++++++++++++++++++++++++++++++++++++",
"++++++++++++++++++++++++++++++++++++++++++++++++++++++++++++++++++++++++++++++++++++++++++++++++",
"++++++++++++++++++++++++++++++++++++++++++++++++++++++++++++++++++++++++++++++++++++++++++++++++",
"++++++++++++++++++++++++++++++++++++++++++++++++++++++++++++++++++++++++++++++++++++++++++++++++",
"++++++++++++++++++++++++++++++++++++++++++++++++++++++++++++++++++++++++++++++++++++++++++++++++",
"++++++++++++++++++++++++++++++++++++++++++++++++++++++++++++++++++++++++++++++++++++++++++++++++",
"++++++++++++++++++++++++++++++++++++++++++++++++++++++++++++++++++++++++++++++++++++++++++++++++",
"++++++++++++++++++++++++++++++++++++++++++++++++++++++++++++++++++++++++++++++++++++++++++++++++",
"++++++++++++++++++++++++++++++++++++++++++++++++++++++++++++++++++++++++++++++++++++++++++++++++",
"++++++++++++++++++++++++++++++++++++++++++++++++++++++++++++++++++++++++++++++++++++++++++++++++",
"++++++++++++++++++++++++++++++++++++++++++++++++++++++++++++++++++++++++++++++++++++++++++++++++",
"++++++++++++++++++++++++++++++++++++++++++++++++++++++++++++++++++++++++++++++++++++++++++++++++",
"++++++++++++++++++++++++++++++++++++++++++++++++++++++++++++++++++++++++++++++++++++++++++++++++",
"++++++++++++++++++++++++++++++++++++++++++++++++++++++++++++++++++++++++++++++++++++++++++++++++",
"++++++++++++++++++++++++++++++++++++++++++++++++++++++++++++++++++++++++++++++++++++++++++++++++",
"++++++++++++++++++++++++++++++++++++++++++++++++++++++++++++++++++++++++++++++++++++++++++++++++",
"++++++++++++++++++++++++++++++++++++++++++++++++++++++++++++++++++++++++++++++++++++++++++++++++",
"++++++++++++++++++++++++++++++++++++++++++++++++++++++++++++++++++++++++++++++++++++++++++++++++",
"++++++++++++++++++++++++++++++++++++++++++++++++++++++++++++++++++++++++++++++++++++++++++++++++"
};
