/* XPM */
static char *xpm_[] = {
/* columns rows colors chars-per-pixel */
"96 96 9 1 ",
"  c gray50",
". c #880015",
"X c #ED1C24",
"o c #804000",
"O c #B97A57",
"+ c #00A2E8",
"@ c #99D9EA",
"# c #C3C3C3",
"$ c white",
/* pixels */
"++++++++++++++++++++++++++++++++++++++++++++++++++++++++++++++++++++++++++++++++++++++++++++++++",
"++++++++++++++++++++++++++++++++++++++++++++++++++++++++++++++++++++++++++++++++++++++++++++++++",
"++++++++++++++++++++++++++++++++++++++++++++++++++++++++++++++++++++++++++++++++++++++++++++++++",
"++++++++++++++++++++++++++++++++++++++++++++++++++++++++++++++++++++++++++++++++++++++++++++++++",
"++++++++++++++++++++++++++++++++++++++++++++++++++++++++++++++++++++++++++++++++++++++++++++++++",
"++++++++++++++++++++++++++++++++++++++++++++++++++++++++++++++++++++++++++++++++++++++++++++++++",
"++++++++++++++++++++++++++++++++++++++++++++++++++++++++++++++++++++++++++++++++++++++++++++++++",
"++++++++++++++++++++++++++++++++++++++++++++++++++++++++++++++++++++++++++++++++++++++++++++++++",
"++++++++++++++++++++++++++++++++++++++++++++++++++++++++++++++++++++++++++++++++++++++++++++++++",
"++++++++++++++++++@@@+++++++++++++++++++++++++++++++++++++++++++++++++++++++++++++++++++++++++++",
"++++++++++++++++++@@@+++++++++++++++++++++++++++++++++++++++++++++++++++++++++++++++++++++++++++",
"++++++++++++++++++@@@+++++++++++++++++++++++++++++++++++++++++++++++++++++++++++++++++++++++++++",
"++++++++++++++++++@@@+++++++XXX+++++++++++++++++++++++++++++++++++++++++++++++++++++++++++++++++",
"++++++++++++++++++@@@+++++++XXX+++++++++++++++++++++++++++++++++++++++++++++++++++++++++++++++++",
"++++++++++++++++++@@@+++++++XXX+++++++++++++++++++++++++++++++++++++++++++++++++++++++++++++++++",
"+++++++++++++++@@@+++@@@+###ooo+++++++++++++++++++++++++++++++++++++++++++++++++++++++++++++++++",
"+++++++++++++++@@@+++@@@+###ooo+++++++++++++++++++++++++++++++++++++++++++++++++++++++++++++++++",
"+++++++++++++++@@@+++@@@+###ooo+++++++++++++++++++++++++++++++++++++++++++++++++++++++++++++++++",
"++++++++++++@@@++++......###ooo+++++++++++++++++++++++++++++++++++++++++++++++++++++++++++++++++",
"++++++++++++@@@++++......###ooo+++++++++++++++++++++++++++++++++++++++++++++++++++++++++++++++++",
"++++++++++++@@@++++......###ooo+++++++++++++++++++++++++++++++++++++++++++++++++++++++++++++++++",
"++++++@@@@@@++++###......###ooo@@++++$$$++++++++++++++++++++++++++++++++++++++++++++++++++++++++",
"++++++@@@@@@++++###......###ooo@@++++$$$++++++++++++++++++++++++++++++++++++++++++++++++++++++++",
"++++++@@@@@@++++###......###ooo@@++++$$$++++++++++++++++++++++++++++++++++++++++++++++++++++++++",
"+++@@@+++++++######......+++ooo$$$$$$$$$+++++++++XXX++++++++++++++++++++++++++++++++++++++++++++",
"+++@@@+++++++######......+++ooo$$$$$$$$$+++++++++XXX++++++++++++++++++++++++++++++++++++++++++++",
"+++@@@+++++++######......+++ooo$$$$$$$$$+++++++++XXX++++++++++++++++++++++++++++++++++++++++++++",
"+++++++++++++###+++++++++$$$$$$$$$$$$$$$$$$++++++ooo+++++++++$$$++++++++++++++++++++++++++++++++",
"+++++++++++++###+++++++++$$$$$$$$$$$$$$$$$$++++++ooo+++++++++$$$++++++++++++++++++++++++++++++++",
"+++++++++++++###+++++++++$$$$$$$$$$$$$$$$$$++++++ooo+++++++++$$$++++++++++++++++++++++++++++++++",
"+++++++++++++++++++$$$$$$$$$$$$$$$$$$$$$$$$+++++@ooo+++$$$$$$$$$++++++++++++++@@@+++++++++++++++",
"+++++++++++++++++++$$$$$$$$$$$$$$$$$$$$$$$$+++++@ooo+++$$$$$$$$$++++++++++++++@@@+++++++++++++++",
"+++++++++++++++++++$$$$$$$$$$$$$$$$$$$$$$$$+++++@ooo+++$$$$$$$$$++++++++++++++@@@+++++++++++++++",
"+++++++++++++$$$$$$$$$$$$$$$$$$$$$$$$$$$$$$   ++@$$$$$$$$$$$$$$$$$$+++++++++++@@@+++++++++++++++",
"+++++++++++++$$$$$$$$$$$$$$$$$$$$$$$$$$$$$$   ++@$$$$$$$$$$$$$$$$$$+++++++++++@@@+++++++++++++++",
"+++++++++++++$$$$$$$$$$$$$$$$$$$$$$$$$$$$$$   ++@$$$$$$$$$$$$$$$$$$+++++++++++@@@+++++++++++++++",
"+++++++######$$$$$$$$$$$$$$$$$$$$$$$$$$$   $$$$$$$$$$$$$$$$$$$$$$$$++++++++@@@+++@@@++++++++++++",
"+++++++######$$$$$$$$$$$$$$$$$$$$$$$$$$$   $$$$$$$$$$$$$$$$$$$$$$$$++++++++@@@+++@@@++++++++++++",
"+++++++######$$$$$$$$$$$$$$$$$$$$$$$$$$$   $$$$$$$$$$$$$$$$$$$$$$$$++++++++@@@+++@@@++++++++++++",
"++++++++++###$$$$$$$$$$$$$$$$$$$$$$$$######$$$$$$$$$$$$$$$$$$$$$$$$$$$++@@@+++++++++@@@+++++++++",
"++++++++++###$$$$$$$$$$$$$$$$$$$$$$$$######$$$$$$$$$$$$$$$$$$$$$$$$$$$++@@@+++++++++@@@+++++++++",
"++++++++++###$$$$$$$$$$$$$$$$$$$$$$$$######$$$$$$$$$$$$$$$$$$$$$$$$$$$++@@@+++++++++@@@+++++++++",
"++++++++++######$$$$$$$$$$$$$$$$$$$$$   ###$$$$$$$$$$$$$$$$$$$$$$$$$$$@@+++++++++++++ooooooo@+++",
"++++++++++######$$$$$$$$$$$$$$$$$$$$$   ###$$$$$$$$$$$$$$$$$$$$$$$$$$$@@+++++++++++++ooooooo@+++",
"++++++++++######$$$$$$$$$$$$$$$$$$$$$   ###$$$$$$$$$$$$$$$$$$$$$$$$$$$@@+++++++++++++ooooooo@+++",
"+++++++++++++###$$$$$$$$$$$$$$$######   ######$$$$$$$$$$$$$$$$$$$$$######++++++oooooo++++++++@@@",
"+++++++++++++###$$$$$$$$$$$$$$$######   ######$$$$$$$$$$$$$$$$$$$$$######++++++oooooo++++++++@@@",
"+++++++++++++###$$$$$$$$$$$$$$$######   ######$$$$$$$$$$$$$$$$$$$$$######++++++oooooo++++++++@@@",
"++++ooo++++++######$$$$$$######++++++++++++###$$$$$$$$$$$$#########+++++++++ooo+++++++++++++++++",
"++++ooo++++++######$$$$$$######++++++++++++###$$$$$$$$$$$$#########+++++++++ooo+++++++++++++++++",
"++++ooo++++++######$$$$$$######++++++++++++###$$$$$$$$$$$$#########+++++++++ooo+++++++++++++++++",
"+++++++ooooooooo#########+++ooo++++++++++++######$$$#########++++++++++++ooo++++++++++++++++++++",
"+++++++ooooooooo#########+++ooo++++++++++++######$$$#########++++++++++++ooo++++++++++++++++++++",
"+++++++ooooooooo#########+++ooo++++++++++++######$$$#########++++++++++++ooo++++++++++++++++++++",
"+++++++oooOOOOOO###OOOooo+++ooo+++++++++++++++#########+++++++++oooooooooooo++++++++++++++++++++",
"+++++++oooOOOOOO###OOOooo+++ooo+++++++++++++++#########+++++++++oooooooooooo++++++++++++++++++++",
"+++++++oooOOOOOO###OOOooo+++ooo+++++++++++++++#########+++++++++oooooooooooo++++++++++++++++++++",
"++++++++++oooOOOOOOOOOooooooooo++++++++++++++@###ooo+++oooooooooOOOOOOooo+++++++++++++++++++++++",
"++++++++++oooOOOOOOOOOooooooooo++++++++++++++@###ooo+++oooooooooOOOOOOooo+++++++++++++++++++++++",
"++++++++++oooOOOOOOOOOooooooooo++++++++++++++@###ooo+++oooooooooOOOOOOooo+++++++++++++++++++++++",
"+++++++++++++oooOOOOOOoooooooooooooooooooooooooooooooooOOOOOOOOOOOOooo++++++++++++++++++++++++++",
"+++++++++++++oooOOOOOOoooooooooooooooooooooooooooooooooOOOOOOOOOOOOooo++++++++++++++++++++++++++",
"+++++++++++++oooOOOOOOoooooooooooooooooooooooooooooooooOOOOOOOOOOOOooo++++++++++++++++++++++++++",
"++++++++++++@@@+oooOOOOOOOOOOOOOOOOOOOOOOOOOOOOOOOOOOOOOOOOOOOOOooo+++++++++++++++++++++++++++++",
"++++++++++++@@@+oooOOOOOOOOOOOOOOOOOOOOOOOOOOOOOOOOOOOOOOOOOOOOOooo+++++++++++++++++++++++++++++",
"++++++++++++@@@+oooOOOOOOOOOOOOOOOOOOOOOOOOOOOOOOOOOOOOOOOOOOOOOooo+++++++++++++++++++++++++++++",
"+++++++++@@@+++++++ooooooOOOOOOOOOOOOOOOOOOOOOOOOOOOOOOOOOoooooo++++++++++++++++++++++++++++++++",
"+++++++++@@@+++++++ooooooOOOOOOOOOOOOOOOOOOOOOOOOOOOOOOOOOoooooo++++++++++++++++++++++++++++++++",
"+++++++++@@@+++++++ooooooOOOOOOOOOOOOOOOOOOOOOOOOOOOOOOOOOoooooo++++++++++++++++++++++++++++++++",
"+++@@@@@@+++++++++++++++@ooooooOOOOOOOOOOOOOOOOOOOOOoooooo@@++++++++++++++++++++++++++++++++++++",
"+++@@@@@@+++++++++++++++@ooooooOOOOOOOOOOOOOOOOOOOOOoooooo@@++++++++++++++++++++++++++++++++++++",
"+++@@@@@@+++++++++++++++@ooooooOOOOOOOOOOOOOOOOOOOOOoooooo@@++++++++++++++++++++++++++++++++++++",
"@@@+++++++++++++++++++++++++++@ooooooooooooooooooooo++++++++@@@+++++++++++++++++++++++++++++++++",
"@@@+++++++++++++++++++++++++++@ooooooooooooooooooooo++++++++@@@+++++++++++++++++++++++++++++++++",
"@@@+++++++++++++++++++++++++++@ooooooooooooooooooooo++++++++@@@+++++++++++++++++++++++++++++++++",
"++++++++++++++++++++++++++++++++++++++++++++++++++++++++++++++++++++++++++++++++++++++++++++++++",
"++++++++++++++++++++++++++++++++++++++++++++++++++++++++++++++++++++++++++++++++++++++++++++++++",
"++++++++++++++++++++++++++++++++++++++++++++++++++++++++++++++++++++++++++++++++++++++++++++++++",
"++++++++++++++++++++++++++++++++++++++++++++++++++++++++++++++++++++++++++++++++++++++++++++++++",
"++++++++++++++++++++++++++++++++++++++++++++++++++++++++++++++++++++++++++++++++++++++++++++++++",
"++++++++++++++++++++++++++++++++++++++++++++++++++++++++++++++++++++++++++++++++++++++++++++++++",
"++++++++++++++++++++++++++++++++++++++++++++++++++++++++++++++++++++++++++++++++++++++++++++++++",
"++++++++++++++++++++++++++++++++++++++++++++++++++++++++++++++++++++++++++++++++++++++++++++++++",
"++++++++++++++++++++++++++++++++++++++++++++++++++++++++++++++++++++++++++++++++++++++++++++++++",
"++++++++++++++++++++++++++++++++++++++++++++++++++++++++++++++++++++++++++++++++++++++++++++++++",
"++++++++++++++++++++++++++++++++++++++++++++++++++++++++++++++++++++++++++++++++++++++++++++++++",
"++++++++++++++++++++++++++++++++++++++++++++++++++++++++++++++++++++++++++++++++++++++++++++++++",
"++++++++++++++++++++++++++++++++++++++++++++++++++++++++++++++++++++++++++++++++++++++++++++++++",
"++++++++++++++++++++++++++++++++++++++++++++++++++++++++++++++++++++++++++++++++++++++++++++++++",
"++++++++++++++++++++++++++++++++++++++++++++++++++++++++++++++++++++++++++++++++++++++++++++++++",
"++++++++++++++++++++++++++++++++++++++++++++++++++++++++++++++++++++++++++++++++++++++++++++++++",
"++++++++++++++++++++++++++++++++++++++++++++++++++++++++++++++++++++++++++++++++++++++++++++++++",
"++++++++++++++++++++++++++++++++++++++++++++++++++++++++++++++++++++++++++++++++++++++++++++++++",
"++++++++++++++++++++++++++++++++++++++++++++++++++++++++++++++++++++++++++++++++++++++++++++++++",
"++++++++++++++++++++++++++++++++++++++++++++++++++++++++++++++++++++++++++++++++++++++++++++++++",
"++++++++++++++++++++++++++++++++++++++++++++++++++++++++++++++++++++++++++++++++++++++++++++++++"
};
