/* XPM */
static char *e29760d0770e4447840da4bd019631ab[] = {
/* columns rows colors chars-per-pixel */
"64 64 9 1 ",
"  c gray50",
". c #880015",
"X c #ED1C24",
"o c #804000",
"O c #B97A57",
"+ c #00A2E8",
"@ c #99D9EA",
"# c #C3C3C3",
"$ c white",
/* pixels */
"++++++++++++++++++++++++++++++++++++++++++++++++++++++++++++++++",
"++++++++++++++++++++++++++++++++++++++++++++++++++++++++++++++++",
"++++++++++++++++++++++++++++++++++++++++++++++++++++++++++++++++",
"++++++++++++++++++++++++++++++++++++++++++++++++++++++++++++++++",
"++++++++++++++++++++++++++++++++++++++++++++++++++++++++++++++++",
"++++++++++++++++++++++++++++++++++++++++++++++++++++++++++++++++",
"++++++++++++@@++++++++++++++++++++++++++++++++++++++++++++++++++",
"++++++++++++@@++++++++++++++++++++++++++++++++++++++++++++++++++",
"++++++++++++@@++++++++++++++++++++++++++++++++++++++++++++++++++",
"++++++++++++@@++++++++++++++++++++++++++++++++++++++++++++++++++",
"++++++++++@@++@@++++++++++++++++++++++++++++++++++++++++++++++++",
"++++++++++@@++@@++++++++++++++++++++++++++++++++++++++++++++++++",
"++++++++@@++++++@@++++++++++++++++++++++++XX++++++++++++++++++++",
"++++++++@@++++++@@++++++++++++++++++++++++XX++++++++++++++++++++",
"++++@@@@++++++++++@@@@++++++++++++++++++++oo##++++++++++++++++++",
"++++@@@@++++++++++@@@@++++++++++++++++++++oo##++++++++++++++++++",
"++@@++++++++++++++++++@@++++++++++++++++++oo##....++++++++++++++",
"++@@++++++++++++++++++@@++++++++++++++++++oo##....++++++++++++++",
"++++++++++++++++++++++++++++++++++++$$++++oo##....##++++++++++++",
"++++++++++++++++++++++++++++++++++++$$++++oo##....##++++++++++++",
"++++++++++++++++++++++++++++XX++@@++$$$$$$oo++....####++++++++++",
"++++++++++++++++++++++++++++XX++@@++$$$$$$oo++....####++++++++++",
"++++++++++++++++++++$$++++++oo++@@$$$$$$$$$$$$++++++##++++++++++",
"++++++++++++++++++++$$++++++oo++@@$$$$$$$$$$$$++++++##++++++++++",
"++++++++++++++++++++$$$$$$++oo@@++$$$$$$$$$$$$$$$$@@++@@++++++++",
"++++++++++++++++++++$$$$$$++oo@@++$$$$$$$$$$$$$$$$@@++@@++++++++",
"++++++++++++++++++$$$$$$$$$$$$++  $$$$$$$$$$$$$$$$$$$$++@@++++++",
"++++++++++++++++++$$$$$$$$$$$$++  $$$$$$$$$$$$$$$$$$$$++@@++++++",
"++++++++++++++++++$$$$$$$$$$$$$$$$  $$$$$$$$$$$$$$$$$$####@@@@++",
"++++++++++++++++++$$$$$$$$$$$$$$$$  $$$$$$$$$$$$$$$$$$####@@@@++",
"++++++++++++++++$$$$$$$$$$$$$$$$$$####$$$$$$$$$$$$$$$$##++++++@@",
"++++++++++++++++$$$$$$$$$$$$$$$$$$####$$$$$$$$$$$$$$$$##++++++@@",
"++oooo++++++++++$$$$$$$$$$$$$$$$$$##  $$$$$$$$$$$$$$####++++++++",
"++oooo++++++++++$$$$$$$$$$$$$$$$$$##  $$$$$$$$$$$$$$####++++++++",
"++++++oooo++++####$$$$$$$$$$$$$$####  ####$$$$$$$$$$##++++++++++",
"++++++oooo++++####$$$$$$$$$$$$$$####  ####$$$$$$$$$$##++++++++++",
"++++++++++oo++++++######$$$$$$$$##++++++++####$$$$####++++oo++++",
"++++++++++oo++++++######$$$$$$$$##++++++++####$$$$####++++oo++++",
"++++++++++@@oo++++++++######$$####@@++++++oo++######oooooo++++++",
"++++++++++@@oo++++++++######$$####@@++++++oo++######oooooo++++++",
"++++++++++@@oooooooo++++++######++++@@++++oo++ooOO##OOOOoo++++++",
"++++++++++@@oooooooo++++++######++++@@++++oo++ooOO##OOOOoo++++++",
"++++++++@@++@@ooOOOOoooooo++oo##++++++@@@@ooooooOOOOOOoo++++++++",
"++++++++@@++@@ooOOOOoooooo++oo##++++++@@@@ooooooOOOOOOoo++++++++",
"++++++@@++++++@@ooOOOOOOOOooooooooooooooooooooooOOOOoo++++++++++",
"++++++@@++++++@@ooOOOOOOOOooooooooooooooooooooooOOOOoo++++++++++",
"++@@@@++++++++++++ooOOOOOOOOOOOOOOOOOOOOOOOOOOOOOOoo++++++++++++",
"++@@@@++++++++++++ooOOOOOOOOOOOOOOOOOOOOOOOOOOOOOOoo++++++++++++",
"@@++++++++++++++++++ooooOOOOOOOOOOOOOOOOOOOOOOoooo++++++++++++++",
"@@++++++++++++++++++ooooOOOOOOOOOOOOOOOOOOOOOOoooo++++++++++++++",
"++++++++++++++++++++++++ooooOOOOOOOOOOOOOOoooo++++++++++++++++++",
"++++++++++++++++++++++++ooooOOOOOOOOOOOOOOoooo++++++++++++++++++",
"++++++++++++++++++++++++++++oooooooooooooo++++++++++++++++++++++",
"++++++++++++++++++++++++++++oooooooooooooo++++++++++++++++++++++",
"++++++++++++++++++++++++++++++++++++++++++++++++++++++++++++++++",
"++++++++++++++++++++++++++++++++++++++++++++++++++++++++++++++++",
"++++++++++++++++++++++++++++++++++++++++++++++++++++++++++++++++",
"++++++++++++++++++++++++++++++++++++++++++++++++++++++++++++++++",
"++++++++++++++++++++++++++++++++++++++++++++++++++++++++++++++++",
"++++++++++++++++++++++++++++++++++++++++++++++++++++++++++++++++",
"++++++++++++++++++++++++++++++++++++++++++++++++++++++++++++++++",
"++++++++++++++++++++++++++++++++++++++++++++++++++++++++++++++++",
"++++++++++++++++++++++++++++++++++++++++++++++++++++++++++++++++",
"++++++++++++++++++++++++++++++++++++++++++++++++++++++++++++++++"
};
