/* XPM */
static char *xpm_[] = {
/* columns rows colors chars-per-pixel */
"64 64 9 1 ",
"  c gray50",
". c #880015",
"X c #ED1C24",
"o c #804000",
"O c #B97A57",
"+ c #00A2E8",
"@ c #99D9EA",
"# c #C3C3C3",
"$ c white",
/* pixels */
"++++++++++++++++++++++++++++++++++++++++++++++++++++++++++++++++",
"++++++++++++++++++++++++++++++++++++++++++++++++++++++++++++++++",
"++++++++++++++++++++++++++++++++++++++++++++++++++++++++++++++++",
"++++++++++++++++++++++++++++++++++++++++++++++++++++++++++++++++",
"++++++++++++++++++++++++++++++++++++++++++++++++++++++++++++++++",
"++++++++++++++++++++++++++++++++++++++++++++++++++++++++++++++++",
"++++++++++++@@++++++++++++++++++++++++++++++++++++++++++++++++++",
"++++++++++++@@++++++++++++++++++++++++++++++++++++++++++++++++++",
"++++++++++++@@++++++++++++++++++++++++++++++++++++++++++++++++++",
"++++++++++++@@++++++++++++++++++++++++++++++++++++++++++++++++++",
"++++++++++@@++@@++++++++++++XX++++++++++++++++++++++++++++++++++",
"++++++++++@@++@@++++++++++++XX++++++++++++++++++++++++++++++++++",
"++++++++@@++++++@@++++++++++oo##++++++++++++++++++++++++++++++++",
"++++++++@@++++++@@++++++++++oo##++++++++++++++++++++++++++++++++",
"++++@@@@++++++++++@@@@++++++oo##....++++++++++++++++++++++++++++",
"++++@@@@++++++++++@@@@++++++oo##....++++++++++++++++++++++++++++",
"++@@++++++++++++++++++@@++++oo##....##++++++++++++++++++++++++++",
"++@@++++++++++++++++++@@++++oo##....##++++++++++++++++++++++++++",
"++++++++++++++++++++$$$$$$$$oo$$....####++++++++++++++++++++++++",
"++++++++++++++++++++$$$$$$$$oo$$....####++++++++++++++++++++++++",
"++++++++++++++++++++$$$$$$$$XX$$$$$$$$##++++++++++++@@++++++++++",
"++++++++++++++++++++$$$$$$$$XX$$$$$$$$##++++++++++++@@++++++++++",
"++++++++++++++++++++        oo        ++++++++++++++@@++++++++++",
"++++++++++++++++++++        oo        ++++++++++++++@@++++++++++",
"++++++++++++++++++$$$$$$$$$$oo$$$$$$$$##++++++++++@@++@@++++++++",
"++++++++++++++++++$$$$$$$$$$oo$$$$$$$$##++++++++++@@++@@++++++++",
"++++++++++++++++++$$$$$$$$$$oo$$$$$$$$##++++++++@@++++++@@++++++",
"++++++++++++++++++$$$$$$$$$$oo$$$$$$$$##++++++++@@++++++@@++++++",
"++++++++++++++++++$$$$$$$$$$oo$$$$$$$$##@@++@@@@++++++++++@@@@++",
"++++++++++++++++++$$$$$$$$$$oo$$$$$$$$##@@++@@@@++++++++++@@@@++",
"++++++++++++++++++$$$$$$$$$$oo$$$$$$$$##++@@++++++++++++++++++@@",
"++++++++++++++++++$$$$$$$$$$oo$$$$$$$$##++@@++++++++++++++++++@@",
"++++++++++++++++++$$$$$$$$$$oo$$$$$$$$##++++++++++++++++++++++++",
"++++++++++++++++++$$$$$$$$$$oo$$$$$$$$##++++++++++++++++++++++++",
"++++++++++++++++++$$$$$$$$$$oo$$$$$$$$##++++++++++++++++++++++++",
"++++++++++++++++++$$$$$$$$$$oo$$$$$$$$##++++++++++++++++++++++++",
"++++++++++++++++++##########oo##########++++++++++++++++++++++++",
"++++++++++++++++++##########oo##########++++++++++++++++++++++++",
"++++++++++@@++++++++++++++oooooo++++++++++++++++++++++++++++++++",
"++++++++++@@++++++++++++++oooooo++++++++++++++++++++++++++++++++",
"++++++++++@@++++++++++++ooooOOoooo++++++++++++++++++++++++++++++",
"++++++++++@@++++++++++++ooooOOoooo++++++++++++++++++++++++++++++",
"++++++++@@++@@++ooooooooOOOOOOOOOOoooooooo++++++++++++++++++++++",
"++++++++@@++@@++ooooooooOOOOOOOOOOoooooooo++++++++++++++++++++++",
"++++++@@++++++@@ooOOOOOOOOOOOOOOOOOOOOOOoo++++++++++++++++++++++",
"++++++@@++++++@@ooOOOOOOOOOOOOOOOOOOOOOOoo++++++++++++++++++++++",
"++@@@@++++++++++@@ooOOOOOOOOOOOOOOOOOOoo++++++++++++++++++++++++",
"++@@@@++++++++++@@ooOOOOOOOOOOOOOOOOOOoo++++++++++++++++++++++++",
"@@++++++++++++++++ooOOOOOOOOOOOOOOOOOOoo@@++++++++++++++++++++++",
"@@++++++++++++++++ooOOOOOOOOOOOOOOOOOOoo@@++++++++++++++++++++++",
"++++++++++++++++++++ooooOOOOOOOOOOoooo++++++++++++++++++++++++++",
"++++++++++++++++++++ooooOOOOOOOOOOoooo++++++++++++++++++++++++++",
"++++++++++++++++++++++++oooooooooo++++++++++++++++++++++++++++++",
"++++++++++++++++++++++++oooooooooo++++++++++++++++++++++++++++++",
"++++++++++++++++++++++++++++++++++++++++++++++++++++++++++++++++",
"++++++++++++++++++++++++++++++++++++++++++++++++++++++++++++++++",
"++++++++++++++++++++++++++++++++++++++++++++++++++++++++++++++++",
"++++++++++++++++++++++++++++++++++++++++++++++++++++++++++++++++",
"++++++++++++++++++++++++++++++++++++++++++++++++++++++++++++++++",
"++++++++++++++++++++++++++++++++++++++++++++++++++++++++++++++++",
"++++++++++++++++++++++++++++++++++++++++++++++++++++++++++++++++",
"++++++++++++++++++++++++++++++++++++++++++++++++++++++++++++++++",
"++++++++++++++++++++++++++++++++++++++++++++++++++++++++++++++++",
"++++++++++++++++++++++++++++++++++++++++++++++++++++++++++++++++"
};
