/* XPM */
static char *xpm_[] = {
/* columns rows colors chars-per-pixel */
"96 96 9 1 ",
"  c gray50",
". c #880015",
"X c #ED1C24",
"o c #804000",
"O c #B97A57",
"+ c #00A2E8",
"@ c #99D9EA",
"# c #C3C3C3",
"$ c white",
/* pixels */
"++++++++++++++++++++++++++++++++++++++++++++++++++++++++++++++++++++++++++++++++++++++++++++++++",
"++++++++++++++++++++++++++++++++++++++++++++++++++++++++++++++++++++++++++++++++++++++++++++++++",
"++++++++++++++++++++++++++++++++++++++++++++++++++++++++++++++++++++++++++++++++++++++++++++++++",
"++++++++++++++++++++++++++++++++++++++++++++++++++++++++++++++++++++++++++++++++++++++++++++++++",
"++++++++++++++++++++++++++++++++++++++++++++++++++++++++++++++++++++++++++++++++++++++++++++++++",
"++++++++++++++++++++++++++++++++++++++++++++++++++++++++++++++++++++++++++++++++++++++++++++++++",
"++++++++++++++++++++++++++++++++++++++++++++++++++++++++++++++++++++++++++++++++++++++++++++++++",
"++++++++++++++++++++++++++++++++++++++++++++++++++++++++++++++++++++++++++++++++++++++++++++++++",
"++++++++++++++++++++++++++++++++++++++++++++++++++++++++++++++++++++++++++++++++++++++++++++++++",
"++++++++++++++++++@@@+++++++++++++++++++++++++++++++++++++++++++++++++++++++++++++++++++++++++++",
"++++++++++++++++++@@@+++++++++++++++++++++++++++++++++++++++++++++++++++++++++++++++++++++++++++",
"++++++++++++++++++@@@+++++++++++++++++++++++++++++++++++++++++++++++++++++++++++++++++++++++++++",
"++++++++++++++++++@@@+++++++++++++++++++++++++++++++++++++++++++XXX+++++++++++++++++++++++++++++",
"++++++++++++++++++@@@+++++++++++++++++++++++++++++++++++++++++++XXX+++++++++++++++++++++++++++++",
"++++++++++++++++++@@@+++++++++++++++++++++++++++++++++++++++++++XXX+++++++++++++++++++++++++++++",
"+++++++++++++++@@@+++@@@++++++++++++++++++++++++++++++++++++++++ooo###++++++++++++++++++++++++++",
"+++++++++++++++@@@+++@@@++++++++++++++++++++++++++++++++++++++++ooo###++++++++++++++++++++++++++",
"+++++++++++++++@@@+++@@@++++++++++++++++++++++++++++++++++++++++ooo###++++++++++++++++++++++++++",
"++++++++++++@@@+++++++++@@@+++++++++++++++++++++++++++++++++++++ooo###......++++++++++++++++++++",
"++++++++++++@@@+++++++++@@@+++++++++++++++++++++++++++++++++++++ooo###......++++++++++++++++++++",
"++++++++++++@@@+++++++++@@@+++++++++++++++++++++++++++++++++++++ooo###......++++++++++++++++++++",
"++++++@@@@@@+++++++++++++++@@@@@@++++++++++++++++++++++$$$++++++ooo###......###+++++++++++++++++",
"++++++@@@@@@+++++++++++++++@@@@@@++++++++++++++++++++++$$$++++++ooo###......###+++++++++++++++++",
"++++++@@@@@@+++++++++++++++@@@@@@++++++++++++++++++++++$$$++++++ooo###......###+++++++++++++++++",
"+++@@@+++++++++++++++++++++++++++@@@+++++++XXX+++++++++$$$$$$$$$ooo+++......######++++++++++++++",
"+++@@@+++++++++++++++++++++++++++@@@+++++++XXX+++++++++$$$$$$$$$ooo+++......######++++++++++++++",
"+++@@@+++++++++++++++++++++++++++@@@+++++++XXX+++++++++$$$$$$$$$ooo+++......######++++++++++++++",
"+++++++++++++++++++++++++++++++$$$+++++++++ooo++++++$$$$$$$$$$$$$$$$$$+++++++++###++++++++++++++",
"+++++++++++++++++++++++++++++++$$$+++++++++ooo++++++$$$$$$$$$$$$$$$$$$+++++++++###++++++++++++++",
"+++++++++++++++++++++++++++++++$$$+++++++++ooo++++++$$$$$$$$$$$$$$$$$$+++++++++###++++++++++++++",
"+++++++++++++++++++++++++++++++$$$$$$$$$+++ooo++@@@+$$$$$$$$$$$$$$$$$$$$$$$$++@@@+++++++++++++++",
"+++++++++++++++++++++++++++++++$$$$$$$$$+++ooo++@@@+$$$$$$$$$$$$$$$$$$$$$$$$++@@@+++++++++++++++",
"+++++++++++++++++++++++++++++++$$$$$$$$$+++ooo++@@@+$$$$$$$$$$$$$$$$$$$$$$$$++@@@+++++++++++++++",
"++++++++++++++++++++++++++++$$$$$$$$$$$$$$$$$$++@   $$$$$$$$$$$$$$$$$$$$$$$$$$$$$$++++++++++++++",
"++++++++++++++++++++++++++++$$$$$$$$$$$$$$$$$$++@   $$$$$$$$$$$$$$$$$$$$$$$$$$$$$$++++++++++++++",
"++++++++++++++++++++++++++++$$$$$$$$$$$$$$$$$$++@   $$$$$$$$$$$$$$$$$$$$$$$$$$$$$$++++++++++++++",
"++++++++++++++++++++++++++++$$$$$$$$$$$$$$$$$$$$$$$$   $$$$$$$$$$$$$$$$$$$$$$$$$$$######++++++++",
"++++++++++++++++++++++++++++$$$$$$$$$$$$$$$$$$$$$$$$   $$$$$$$$$$$$$$$$$$$$$$$$$$$######++++++++",
"++++++++++++++++++++++++++++$$$$$$$$$$$$$$$$$$$$$$$$   $$$$$$$$$$$$$$$$$$$$$$$$$$$######++++++++",
"+++++++++++++++++++++++++$$$$$$$$$$$$$$$$$$$$$$$$$$$######$$$$$$$$$$$$$$$$$$$$$$$$###@@+++++++++",
"+++++++++++++++++++++++++$$$$$$$$$$$$$$$$$$$$$$$$$$$######$$$$$$$$$$$$$$$$$$$$$$$$###@@+++++++++",
"+++++++++++++++++++++++++$$$$$$$$$$$$$$$$$$$$$$$$$$$######$$$$$$$$$$$$$$$$$$$$$$$$###@@+++++++++",
"++++oooooo+++++++++++++++$$$$$$$$$$$$$$$$$$$$$$$$$$$###   $$$$$$$$$$$$$$$$$$$$$######++@@@@@@+++",
"++++oooooo+++++++++++++++$$$$$$$$$$$$$$$$$$$$$$$$$$$###   $$$$$$$$$$$$$$$$$$$$$######++@@@@@@+++",
"++++oooooo+++++++++++++++$$$$$$$$$$$$$$$$$$$$$$$$$$$###   $$$$$$$$$$$$$$$$$$$$$######++@@@@@@+++",
"++++++++++oooooo++++++######$$$$$$$$$$$$$$$$$$$$$######   ######$$$$$$$$$$$$$$$###+++++++++++@@@",
"++++++++++oooooo++++++######$$$$$$$$$$$$$$$$$$$$$######   ######$$$$$$$$$$$$$$$###+++++++++++@@@",
"++++++++++oooooo++++++######$$$$$$$$$$$$$$$$$$$$$######   ######$$$$$$$$$$$$$$$###+++++++++++@@@",
"++++++++++++++++ooo+++++++++#########$$$$$$$$$$$$###++++++++++++######$$$$$$######++++++oooo++++",
"++++++++++++++++ooo+++++++++#########$$$$$$$$$$$$###++++++++++++######$$$$$$######++++++oooo++++",
"++++++++++++++++ooo+++++++++#########$$$$$$$$$$$$###++++++++++++######$$$$$$######++++++oooo++++",
"+++++++++++++++++++ooo++++++++++++#########$$$######++++++++++++ooo+++#########ooooooooo++++++++",
"+++++++++++++++++++ooo++++++++++++#########$$$######++++++++++++ooo+++#########ooooooooo++++++++",
"+++++++++++++++++++ooo++++++++++++#########$$$######++++++++++++ooo+++#########ooooooooo++++++++",
"+++++++++++++++++++oooooooooooo+++++++++#########+++++++++++++++ooo+++oooOOO###OOOOOOooo++++++++",
"+++++++++++++++++++oooooooooooo+++++++++#########+++++++++++++++ooo+++oooOOO###OOOOOOooo++++++++",
"+++++++++++++++++++oooooooooooo+++++++++#########+++++++++++++++ooo+++oooOOO###OOOOOOooo++++++++",
"+++++++++++++++@@@++++oooOOOOOOooooooooo+++ooo###+++++++++++++++oooooooooOOOOOOOOOooo+++++++++++",
"+++++++++++++++@@@++++oooOOOOOOooooooooo+++ooo###+++++++++++++++oooooooooOOOOOOOOOooo+++++++++++",
"+++++++++++++++@@@++++oooOOOOOOooooooooo+++ooo###+++++++++++++++oooooooooOOOOOOOOOooo+++++++++++",
"+++++++++++++++@@@+++++++oooOOOOOOOOOOOOoooooooooooooooooooooooooooooooooOOOOOOooo++++++++++++++",
"+++++++++++++++@@@+++++++oooOOOOOOOOOOOOoooooooooooooooooooooooooooooooooOOOOOOooo++++++++++++++",
"+++++++++++++++@@@+++++++oooOOOOOOOOOOOOoooooooooooooooooooooooooooooooooOOOOOOooo++++++++++++++",
"++++++++++++@@@+++@@@+++++++oooOOOOOOOOOOOOOOOOOOOOOOOOOOOOOOOOOOOOOOOOOOOOOooo+++++++++++++++++",
"++++++++++++@@@+++@@@+++++++oooOOOOOOOOOOOOOOOOOOOOOOOOOOOOOOOOOOOOOOOOOOOOOooo+++++++++++++++++",
"++++++++++++@@@+++@@@+++++++oooOOOOOOOOOOOOOOOOOOOOOOOOOOOOOOOOOOOOOOOOOOOOOooo+++++++++++++++++",
"+++++++++@@@+++++++++@@@+++++++ooooooOOOOOOOOOOOOOOOOOOOOOOOOOOOOOOOOOoooooo++++++++++++++++++++",
"+++++++++@@@+++++++++@@@+++++++ooooooOOOOOOOOOOOOOOOOOOOOOOOOOOOOOOOOOoooooo++++++++++++++++++++",
"+++++++++@@@+++++++++@@@+++++++ooooooOOOOOOOOOOOOOOOOOOOOOOOOOOOOOOOOOoooooo++++++++++++++++++++",
"+++@@@@@@+++++++++++++++@@@@@@+++@@@@ooooooOOOOOOOOOOOOOOOOOOOOOoooooo++++++++++++++++++++++++++",
"+++@@@@@@+++++++++++++++@@@@@@+++@@@@ooooooOOOOOOOOOOOOOOOOOOOOOoooooo++++++++++++++++++++++++++",
"+++@@@@@@+++++++++++++++@@@@@@+++@@@@ooooooOOOOOOOOOOOOOOOOOOOOOoooooo++++++++++++++++++++++++++",
"@@@+++++++++++++++++++++++++++@@@++++++++++ooooooooooooooooooooo++++++++++++++++++++++++++++++++",
"@@@+++++++++++++++++++++++++++@@@++++++++++ooooooooooooooooooooo++++++++++++++++++++++++++++++++",
"@@@+++++++++++++++++++++++++++@@@++++++++++ooooooooooooooooooooo++++++++++++++++++++++++++++++++",
"++++++++++++++++++++++++++++++++++++++++++++++++++++++++++++++++++++++++++++++++++++++++++++++++",
"++++++++++++++++++++++++++++++++++++++++++++++++++++++++++++++++++++++++++++++++++++++++++++++++",
"++++++++++++++++++++++++++++++++++++++++++++++++++++++++++++++++++++++++++++++++++++++++++++++++",
"++++++++++++++++++++++++++++++++++++++++++++++++++++++++++++++++++++++++++++++++++++++++++++++++",
"++++++++++++++++++++++++++++++++++++++++++++++++++++++++++++++++++++++++++++++++++++++++++++++++",
"++++++++++++++++++++++++++++++++++++++++++++++++++++++++++++++++++++++++++++++++++++++++++++++++",
"++++++++++++++++++++++++++++++++++++++++++++++++++++++++++++++++++++++++++++++++++++++++++++++++",
"++++++++++++++++++++++++++++++++++++++++++++++++++++++++++++++++++++++++++++++++++++++++++++++++",
"++++++++++++++++++++++++++++++++++++++++++++++++++++++++++++++++++++++++++++++++++++++++++++++++",
"++++++++++++++++++++++++++++++++++++++++++++++++++++++++++++++++++++++++++++++++++++++++++++++++",
"++++++++++++++++++++++++++++++++++++++++++++++++++++++++++++++++++++++++++++++++++++++++++++++++",
"++++++++++++++++++++++++++++++++++++++++++++++++++++++++++++++++++++++++++++++++++++++++++++++++",
"++++++++++++++++++++++++++++++++++++++++++++++++++++++++++++++++++++++++++++++++++++++++++++++++",
"++++++++++++++++++++++++++++++++++++++++++++++++++++++++++++++++++++++++++++++++++++++++++++++++",
"++++++++++++++++++++++++++++++++++++++++++++++++++++++++++++++++++++++++++++++++++++++++++++++++",
"++++++++++++++++++++++++++++++++++++++++++++++++++++++++++++++++++++++++++++++++++++++++++++++++",
"++++++++++++++++++++++++++++++++++++++++++++++++++++++++++++++++++++++++++++++++++++++++++++++++",
"++++++++++++++++++++++++++++++++++++++++++++++++++++++++++++++++++++++++++++++++++++++++++++++++",
"++++++++++++++++++++++++++++++++++++++++++++++++++++++++++++++++++++++++++++++++++++++++++++++++",
"++++++++++++++++++++++++++++++++++++++++++++++++++++++++++++++++++++++++++++++++++++++++++++++++",
"++++++++++++++++++++++++++++++++++++++++++++++++++++++++++++++++++++++++++++++++++++++++++++++++"
};
