/* XPM */
static char *_609e0a44c3f410fa12474d449b0066ev64iv36bgsv3Hbpe[] = {
/* columns rows colors chars-per-pixel */
"128 128 11 1 ",
"  c #00A2E8",
". c #5AC3E9",
"X c #13A9E8",
"o c #37B6E9",
"O c #07A5E8",
"+ c #43BBE9",
"@ c #24AFE8",
"# c #73CCEA",
"$ c #87D3EA",
"% c #69C8E9",
"& c #0DA7E8",
/* pixels */
"                                                                                                                                ",
"                                                                                                                                ",
"                                                                                                                                ",
"                                                                                                                                ",
"                                                                                                                                ",
"                                                                                                                                ",
"                                                                                                                                ",
"                                                                                                                                ",
"                                                                                                                                ",
"                                                                                                                                ",
"                       O&XX&O                                                                                                   ",
"                      OX@oo@XO                                                                                                  ",
"                      &@+..+@&                                                                                                  ",
"                      Xo.##.oX                                                                                                  ",
"                      Xo%$$%oX                                                                                                  ",
"                      Xo%$$%oX                                                                                                  ",
"                      Xo%$$%oX                                                                                                  ",
"                      Xo%$$%oX                                                                                                  ",
"                    OX@+.##.+@XOO                                                                                               ",
"                  OX@o++....++o@XO                                                                                              ",
"                  O@+...++++...+@O                                                                                              ",
"                  Xo.##.o@@o.##.oX                                                                                              ",
"               OOX@+.##.oXXo.##.+@XOO                                                                                           ",
"              OX@o+....o@OO@+....+o@XO                                                                                          ",
"              O@+....+o@&OO&@o+....+@O                                                                                          ",
"              Xo.##.+@XO    OX@+.##.oX                                                                                          ",
"       O&XXXXX@+.##.oX        Xo.##.+@XXXXX&O                                                                                   ",
"      OX@ooo+o++...+@O        O@+.%.++ooooo@XO                                                                                  ",
"      O@+.%%%%...+o@XO         X@o++..%%%%.+@O                                                                                  ",
"      &o.#$$$$#.+@XOO          OOX@+.#$$$$#.oX                                                                                  ",
"   OOX@+.#$$$$#.oX                Xo.#$$$$#.+@XOO                                                                               ",
"  OX@o++..%%%%.+@O                O@+.%%%%..++o@XO                                                                              ",
"  &@+....+o+ooo@XO                 X@ooo+o++...+@&                                                                              ",
"  Xo.##.+@XXXXX&O                  O&XXXXX@+.##.oX                                                                              ",
"  Xo.##.oX                                Xo.##.oX                                                                              ",
"  &@+..+@O                                O@+..+@&                                                                              ",
"  OX@oo@XO                                 X@oo@XO                                                                              ",
"   O&XX&O                                  O&XX&O                                                                               ",
"                                                               O&XX&O                                  O&XX&O                   ",
"                                                              OX@oo@XO                                OX@oo@XO                  ",
"                                                              &@+..+@&                                &@+..+@&                  ",
"                                                              Xo.##.oX                                Xo.##.oX                  ",
"                                                              Xo%$$%oX                                Xo%$$%oX                  ",
"                                                              Xo%$$%oX                                Xo%$$%oX                  ",
"                                                              Xo%$$%oX                                Xo%$$%oX                  ",
"                                                              Xo%$$%oX                                Xo%$$%oX                  ",
"                                                            OX@+.##.+@XOO                           OX@+.##.+@XOO               ",
"                                                          OX@o++....++o@XO                        OX@o++....++o@XO              ",
"                                                          O@+...++++...+@O                        O@+...++++...+@O              ",
"                                                          Xo.##.o@@o.##.oX                        Xo.##.o@@o.##.oX              ",
"                                                       OOX@+.##.oXXo.##.+@XOO                  OOX@+.##.oXXo.##.+@XOO           ",
"                                                      OX@o+....o@OO@+....+o@XO                OX@o+....o@OO@+....+o@XO          ",
"                                                      O@+....+o@&OO&@o+....+@O                O@+....+o@&OO&@o+....+@O          ",
"                                                      Xo.##.+@XO    OX@+.##.oX                Xo.##.+@XO    OX@+.##.oX          ",
"                                               O&XXXXX@+.##.oX        Xo.##.+@XXXXX&O  O&XXXXX@+.##.oX        Xo.##.+@XXXXX&O   ",
"                                              OX@ooo+o++...+@O        O@+.%.++ooooo@XOOX@ooo+o++...+@O        O@+.%.++ooooo@XO  ",
"                                              O@+.%%%%...+o@XO         X@o++..%%%%.o@OO@o.%%%%...+o@XO         X@o++..%%%%.o@O  ",
"                                              &o.#$$$$#.+@XOO          OOX@+.#$$$$%.@XX@.#$$$$#.+@XOO          OOX@+.#$$$$#.oX  ",
"                                           OOX@+.#$$$$#.oX                Xo.#$$$$#.o@@o.#$$$$#.oX                Xo.#$$$$#.o@X&",
"                                          OX@o++..%%%%.+@O                O@+.%%%%..++++..%%%%.+@O                O@+.%%%%..++oo",
"                                          &@+....+o+ooo@XO                 X@ooo+o++..%.++o+ooo@XO                 X@ooo+o++..%%",
"                                          Xo.##.+@XXXXX&O                  O&XXXXX@+.##.+@XXXXX&O                  O&XXXXX@+.#$$",
"                                          Xo.##.oX                                Xo.##.oX                                Xo.#$$",
"                                          &@+..+@O                                O@+..+@O                                O@+.%%",
"                                          OX@oo@XO                                 X@oo@XO                                 X@oo+",
"                                           &&XX&O                                  O&XX&O                                  O&XXX",
"                                                                                                                                ",
"                                                                                                                                ",
"                                                                                                                                ",
"                                                                                                                                ",
"                                                                                                                                ",
"                                                                                                                                ",
"                                                                                                                                ",
"                                                                                                                                ",
"                   O&XX&O                                  O&XX&O                                                               ",
"                  OX@oo@XO                                OX@oo@XO                                                              ",
"                  &@+..+@&                                &@+..+@&                                                              ",
"                  Xo.##.oX                                Xo.##.oX                                                              ",
"                  Xo%$$%oX                                Xo%$$%oX                                                              ",
"                  Xo%$$%oX                                Xo%$$%oX                                                              ",
"                  Xo%$$%oX                                Xo%$$%oX                                                              ",
"                  Xo%$$%oX                                Xo%$$%oX                                                              ",
"                OX@+.##.+@XOO                           OX@+.##.+@XOO                                                           ",
"              OX@o++....++o@XO                        OX@o++....++o@XO                                                          ",
"              O@+...++++...+@O                        O@+...++++...+@O                                                          ",
"              Xo.##.o@@o.##.oX                        Xo.##.o@@o.##.oX                                                          ",
"           OOX@+.##.oXXo.##.+@XOO                  OOX@+.##.oXXo.##.+@XOO                                                       ",
"          OX@o+....o@OO@+....+o@XO                OX@o+....o@OO@+....+o@XO                                                      ",
"          O@+....+o@&OO&@o+....+@O                O@+....+o@&OO&@o+....+@O                                                      ",
"          Xo.##.+@XO    OX@+.##.oX                Xo.##.+@XO    OX@+.##.oX                                                      ",
"   O&XXXXX@+.##.oX        Xo.##.+@XXXXX&O  O&XXXXX@+.##.oX        Xo.##.+@XXXXX&O                                               ",
"  OX@ooo+o++...+@O        O@+.%.++ooooo@XOOX@ooo+o++...+@O        O@+.%.++ooooo@XO                                              ",
"  O@o.%%%%...+o@XO         X@o++..%%%%.o@OO@o.%%%%...+o@XO         X@o++..%%%%.+@O                                              ",
"  &o.#$$$$#.+@XOO          OOX@+.#$$$$%.@XX@.#$$$$#.+@XOO          OOX@+.#$$$$#.oX                                              ",
"&X@o.#$$$$#.oX                Xo.#$$$$#.o@@o.#$$$$#.oX                Xo.#$$$$#.+@XOO                                           ",
"oo++..%%%%.+@O                O@+.%%%%..++++..%%%%.+@O                O@+.%%%%..++o@XO                                          ",
"%%..++o+ooo@XO                 X@ooo+o++..%.++o+ooo@XO                 X@ooo+o++...+@&                                          ",
"$$#.+@XXXXX&O                  O&XXXXX@+.##.+@XXXXX&O                  O&XXXXX@+.##.oX                                          ",
"$$#.oX                                Xo.##.oX                                Xo.##.oX                                          ",
"%%.+@O                                O@+..+@O                                O@+..+@&                                          ",
"+oo@XO                                 X@oo@XO                                 X@oo@XO                                          ",
"XXX&O                                  O&XX&O                                  O&XX&O                                           ",
"                                                                                                                                ",
"                                                                                                                                ",
"                                                                                                                                ",
"                                                                                                                                ",
"                                                                                                                                ",
"                                                                                                                                ",
"                                                                                                                                ",
"                                                                                                                                ",
"                                                                                                                                ",
"                                                                                                                                ",
"                                                                                                                                ",
"                                                                                                                                ",
"                                                                                                                                ",
"                                                                                                                                ",
"                                                                                                                                ",
"                                                                                                                                ",
"                                                                                                                                ",
"                                                                                                                                ",
"                                                                                                                                ",
"                                                                                                                                ",
"                                                                                                                                ",
"                                                                                                                                ",
"                                                                                                                                ",
"                                                                                                                                ",
"                                                                                                                                ",
"                                                                                                                                "
};
