/* XPM */
static char *xpm_[] = {
/* columns rows colors chars-per-pixel */
"96 96 2 1 ",
"  c #00A2E8",
". c #99D9EA",
/* pixels */
"                                                                                                ",
"                                                                                                ",
"                                                                                                ",
"                                                                                                ",
"                                                                                                ",
"                                                                                                ",
"                                                                                                ",
"                                                                                                ",
"                                                                                                ",
"                  ...                                                                           ",
"                  ...                                                                           ",
"                  ...                                                                           ",
"                  ...                                                                           ",
"                  ...                                                                           ",
"                  ...                                                                           ",
"               ...   ...                                                                        ",
"               ...   ...                                                                        ",
"               ...   ...                                                                        ",
"            ...         ...                                                                     ",
"            ...         ...                                                                     ",
"            ...         ...                                                                     ",
"      ......               ......                                                               ",
"      ......               ......                                                               ",
"      ......               ......                                                               ",
"   ...                           ...                                                            ",
"   ...                           ...                                                            ",
"   ...                           ...                                                            ",
"                                                                                                ",
"                                                                                                ",
"                                                                                                ",
"                                                ...                           ...               ",
"                                                ...                           ...               ",
"                                                ...                           ...               ",
"                                                ...                           ...               ",
"                                                ...                           ...               ",
"                                                ...                           ...               ",
"                                             ...   ...                     ...   ...            ",
"                                             ...   ...                     ...   ...            ",
"                                             ...   ...                     ...   ...            ",
"                                          ...         ...               ...         ...         ",
"                                          ...         ...               ...         ...         ",
"                                          ...         ...               ...         ...         ",
"                                    ......               ......   ......               ......   ",
"                                    ......               ......   ......               ......   ",
"                                    ......               ......   ......               ......   ",
"                                 ...                           ...                           ...",
"                                 ...                           ...                           ...",
"                                 ...                           ...                           ...",
"                                                                                                ",
"                                                                                                ",
"                                                                                                ",
"                                                                                                ",
"                                                                                                ",
"                                                                                                ",
"                                                                                                ",
"                                                                                                ",
"                                                                                                ",
"               ...                           ...                                                ",
"               ...                           ...                                                ",
"               ...                           ...                                                ",
"               ...                           ...                                                ",
"               ...                           ...                                                ",
"               ...                           ...                                                ",
"            ...   ...                     ...   ...                                             ",
"            ...   ...                     ...   ...                                             ",
"            ...   ...                     ...   ...                                             ",
"         ...         ...               ...         ...                                          ",
"         ...         ...               ...         ...                                          ",
"         ...         ...               ...         ...                                          ",
"   ......               ......   ......               ......                                    ",
"   ......               ......   ......               ......                                    ",
"   ......               ......   ......               ......                                    ",
"...                           ...                           ...                                 ",
"...                           ...                           ...                                 ",
"...                           ...                           ...                                 ",
"                                                                                                ",
"                                                                                                ",
"                                                                                                ",
"                                                                                                ",
"                                                                                                ",
"                                                                                                ",
"                                                                                                ",
"                                                                                                ",
"                                                                                                ",
"                                                                                                ",
"                                                                                                ",
"                                                                                                ",
"                                                                                                ",
"                                                                                                ",
"                                                                                                ",
"                                                                                                ",
"                                                                                                ",
"                                                                                                ",
"                                                                                                ",
"                                                                                                ",
"                                                                                                "
};
